<?xml version="1.0" encoding="UTF-8"?><svg id="Layer_2" xmlns="http://www.w3.org/2000/svg" viewBox="0 0 1103.56 306.92"><defs><style>.cls-1{fill:#1d183b;}.cls-2{fill:#2e7fbb;}.cls-3{fill:none;stroke:#f5d360;stroke-linejoin:round;stroke-width:45.16px;}</style></defs><g id="Geometric"><rect class="cls-2" y="2.02" width="304.9" height="304.9"/><polyline class="cls-3" points="72.88 200.41 92.77 211.89 112.67 223.38 112.67 223.38 132.56 234.86 152.45 246.35 172.35 234.86 192.24 223.38 212.13 211.89 212.13 211.89 232.02 200.41 232.02 177.44 232.02 154.47 232.02 108.52 212.13 97.04 192.24 85.56 172.35 74.07 152.45 62.59 132.56 74.07 132.56 74.07 112.67 85.56 112.67 85.56 92.77 97.04 92.77 97.04 72.88 108.52 72.88 136.8"/><g><path class="cls-1" d="M359.15,303.53V2.54h69.53V242.48h145.83v61.04h-215.35Z"/><path class="cls-1" d="M796.21,90.72c-.85-1.13-3.81-3.25-8.9-6.36-5.09-3.11-11.45-6.36-19.08-9.75-7.63-3.39-15.97-6.36-25.01-8.9-9.05-2.54-18.09-3.82-27.13-3.82-24.87,0-37.3,8.34-37.3,25.01,0,5.09,1.34,9.33,4.03,12.72,2.68,3.39,6.64,6.43,11.87,9.11,5.23,2.69,11.8,5.16,19.71,7.42,7.91,2.27,17.1,4.81,27.56,7.63,14.41,3.96,27.41,8.27,39,12.93,11.58,4.66,21.41,10.46,29.46,17.38,8.05,6.93,14.27,15.33,18.65,25.22,4.38,9.9,6.57,21.77,6.57,35.61,0,16.96-3.18,31.3-9.54,43.03-6.36,11.73-14.77,21.2-25.22,28.4-10.46,7.21-22.47,12.44-36.03,15.69-13.57,3.25-27.55,4.88-41.97,4.88-11.02,0-22.33-.85-33.91-2.54-11.59-1.7-22.89-4.17-33.91-7.42-11.02-3.25-21.69-7.13-32-11.66-10.32-4.52-19.86-9.75-28.62-15.69l30.52-60.62c1.13,1.42,4.8,4.1,11.02,8.05,6.22,3.96,13.92,7.92,23.1,11.87,9.18,3.96,19.43,7.49,30.73,10.6,11.3,3.11,22.75,4.66,34.34,4.66,24.59,0,36.88-7.48,36.88-22.47,0-5.65-1.84-10.31-5.51-13.99-3.68-3.67-8.76-6.99-15.26-9.96-6.5-2.97-14.2-5.72-23.1-8.27-8.9-2.54-18.59-5.37-29.04-8.48-13.85-4.24-25.86-8.83-36.04-13.78-10.17-4.94-18.59-10.66-25.22-17.17-6.64-6.5-11.59-13.99-14.84-22.47-3.25-8.48-4.87-18.37-4.87-29.67,0-15.82,2.97-29.81,8.9-41.97,5.94-12.15,13.99-22.39,24.17-30.73,10.17-8.33,21.97-14.63,35.4-18.86,13.42-4.24,27.62-6.36,42.6-6.36,10.45,0,20.77,.99,30.95,2.97,10.17,1.98,19.92,4.52,29.25,7.63,9.33,3.11,18.02,6.64,26.07,10.6,8.05,3.96,15.47,7.92,22.26,11.87l-30.52,57.65Z"/><path class="cls-1" d="M1103.56,63.59h-91.57v239.94h-69.52V63.59h-91.99V2.54h253.08V63.59Z"/></g></g></svg>