<?xml version="1.0" encoding="UTF-8"?><svg id="Layer_2" xmlns="http://www.w3.org/2000/svg" viewBox="0 0 469.42 126.35"><defs><style>.cls-1{fill:none;stroke:#ca5f5b;stroke-miterlimit:10;stroke-width:15.29px;}.cls-2{fill:#fff;}.cls-2,.cls-3{stroke-width:0px;}.cls-3{fill:#e69a60;}</style></defs><g id="Geometric"><path class="cls-2" d="m150.92,124.96V1.05h52.88c5.93,0,11.37,1.22,16.32,3.67,4.94,2.44,9.19,5.64,12.74,9.6,3.55,3.96,6.34,8.44,8.38,13.44,2.03,5,3.05,10.06,3.05,15.18,0,5.47-.96,10.71-2.88,15.71-1.92,5-4.6,9.48-8.03,13.44-3.43,3.96-7.59,7.1-12.48,9.42-4.89,2.33-10.3,3.49-16.23,3.49h-25.13v39.97h-28.62Zm28.62-64.92h23.39c3.37,0,6.28-1.45,8.73-4.36,2.44-2.91,3.67-7.16,3.67-12.74,0-2.91-.38-5.41-1.13-7.5-.76-2.09-1.78-3.84-3.05-5.24-1.28-1.4-2.73-2.41-4.36-3.05-1.63-.64-3.26-.96-4.89-.96h-22.34v33.86Z"/><path class="cls-2" d="m333.99,37.35c-.35-.46-1.57-1.34-3.67-2.62-2.09-1.28-4.71-2.62-7.85-4.01-3.14-1.4-6.57-2.62-10.3-3.67-3.73-1.05-7.45-1.57-11.17-1.57-10.24,0-15.36,3.43-15.36,10.3,0,2.09.55,3.84,1.66,5.24,1.1,1.4,2.73,2.65,4.89,3.75,2.15,1.11,4.86,2.12,8.11,3.05,3.26.93,7.04,1.98,11.34,3.14,5.93,1.63,11.28,3.4,16.06,5.32,4.77,1.92,8.81,4.31,12.13,7.16,3.32,2.85,5.87,6.31,7.68,10.38,1.8,4.07,2.71,8.96,2.71,14.66,0,6.98-1.31,12.89-3.93,17.71-2.62,4.83-6.08,8.73-10.38,11.69-4.31,2.97-9.25,5.12-14.83,6.46-5.58,1.34-11.34,2.01-17.28,2.01-4.54,0-9.19-.35-13.96-1.05-4.77-.7-9.42-1.72-13.96-3.05-4.54-1.34-8.93-2.94-13.18-4.8-4.25-1.86-8.18-4.01-11.78-6.46l12.57-24.96c.46.58,1.98,1.69,4.54,3.32,2.56,1.63,5.73,3.26,9.51,4.89,3.78,1.63,8,3.08,12.65,4.36,4.65,1.28,9.36,1.92,14.14,1.92,10.12,0,15.18-3.08,15.18-9.25,0-2.33-.76-4.25-2.27-5.76-1.51-1.51-3.61-2.88-6.28-4.1-2.68-1.22-5.85-2.36-9.51-3.4-3.67-1.05-7.65-2.21-11.95-3.49-5.7-1.75-10.65-3.64-14.83-5.67-4.19-2.03-7.65-4.39-10.38-7.07-2.73-2.68-4.77-5.76-6.11-9.25-1.34-3.49-2.01-7.56-2.01-12.22,0-6.51,1.22-12.27,3.67-17.28,2.44-5,5.76-9.22,9.95-12.65,4.19-3.43,9.04-6.02,14.57-7.77,5.52-1.75,11.37-2.62,17.54-2.62,4.3,0,8.55.41,12.74,1.22,4.19.82,8.2,1.86,12.04,3.14,3.84,1.28,7.42,2.74,10.73,4.36,3.32,1.63,6.37,3.26,9.16,4.89l-12.57,23.73Z"/><path class="cls-2" d="m469.42,93.19c0,5.35-1.11,10.01-3.32,13.96-2.21,3.96-5.24,7.24-9.08,9.86-3.84,2.62-8.32,4.6-13.44,5.93-5.12,1.34-10.53,2.01-16.23,2.01h-60.38V1.05h68.94c4.3,0,8.2.93,11.69,2.79,3.49,1.86,6.46,4.28,8.9,7.24s4.33,6.34,5.67,10.12c1.34,3.78,2.01,7.65,2.01,11.61,0,5.93-1.48,11.52-4.45,16.75-2.97,5.24-7.42,9.19-13.35,11.87,7.1,2.09,12.71,5.82,16.84,11.17,4.13,5.35,6.2,12.22,6.2,20.59Zm-73.82-67.71v25.65h28.1c3.14,0,5.93-1.05,8.38-3.14s3.67-5.35,3.67-9.77c0-4.07-1.08-7.21-3.23-9.42-2.15-2.21-4.74-3.32-7.77-3.32h-29.14Zm44.68,61.95c0-3.84-1.11-7.1-3.32-9.77-2.21-2.68-5-4.01-8.38-4.01h-32.98v27.05h31.76c3.72,0,6.81-1.22,9.25-3.66,2.44-2.44,3.66-5.64,3.66-9.6Z"/><rect class="cls-3" x="0" y=".96" width="124.09" height="124.11"/><path class="cls-1" d="m45.08,97.05c-15.7-8.36-23.17-27.25-16.78-44.37,6.95-18.64,27.7-28.12,46.34-21.17,18.64,6.95,28.12,27.7,21.17,46.34-3.34,8.97-9.88,15.82-17.84,19.74"/></g></svg>