<?xml version="1.0" encoding="UTF-8"?><svg id="Layer_2" xmlns="http://www.w3.org/2000/svg" viewBox="0 0 739.68 203.36"><defs><style>.cls-1{fill:#fff;}.cls-2{fill:#5a319f;}.cls-3{fill:none;stroke:#69bda4;stroke-linejoin:round;stroke-width:22px;}</style></defs><g id="Geometric"><g><rect class="cls-2" width="203.37" height="203.36"/><polyline class="cls-3" points="156.31 47.06 156.31 156.3 47.06 156.3 47.06 47.06 101.68 47.06"/><g><path class="cls-1" d="M359.74,60.61c-.56-.74-2.5-2.13-5.84-4.17-3.34-2.04-7.5-4.17-12.51-6.39-5-2.22-10.47-4.17-16.4-5.84-5.93-1.67-11.86-2.5-17.79-2.5-16.31,0-24.46,5.47-24.46,16.4,0,3.34,.88,6.11,2.64,8.34,1.76,2.22,4.35,4.22,7.78,5.98,3.43,1.76,7.73,3.38,12.92,4.86,5.19,1.49,11.21,3.15,18.07,5,9.45,2.6,17.97,5.42,25.57,8.48,7.6,3.06,14.04,6.86,19.32,11.4,5.28,4.54,9.35,10.05,12.23,16.54,2.87,6.49,4.31,14.27,4.31,23.35,0,11.12-2.09,20.52-6.25,28.21-4.17,7.69-9.68,13.9-16.54,18.62-6.86,4.72-14.73,8.16-23.63,10.28-8.89,2.13-18.07,3.2-27.52,3.2-7.23,0-14.64-.56-22.24-1.67-7.6-1.11-15.01-2.73-22.23-4.86-7.23-2.13-14.22-4.68-20.99-7.64-6.77-2.96-13.02-6.39-18.76-10.28l20.01-39.75c.74,.93,3.15,2.69,7.23,5.28,4.07,2.6,9.12,5.19,15.15,7.78,6.02,2.6,12.74,4.91,20.15,6.95,7.41,2.04,14.91,3.06,22.51,3.06,16.12,0,24.18-4.91,24.18-14.73,0-3.7-1.21-6.76-3.61-9.17-2.41-2.41-5.75-4.59-10.01-6.53-4.26-1.95-9.31-3.75-15.15-5.42-5.84-1.67-12.19-3.52-19.04-5.56-9.08-2.78-16.95-5.79-23.62-9.03-6.67-3.24-12.19-6.99-16.54-11.26-4.36-4.26-7.6-9.17-9.73-14.73-2.13-5.56-3.2-12.04-3.2-19.46,0-10.38,1.95-19.55,5.84-27.52,3.89-7.96,9.17-14.68,15.84-20.15,6.67-5.46,14.4-9.59,23.21-12.37,8.8-2.78,18.11-4.17,27.93-4.17,6.85,0,13.62,.65,20.29,1.95,6.67,1.3,13.06,2.97,19.18,5,6.12,2.04,11.81,4.36,17.09,6.95,5.28,2.6,10.14,5.19,14.59,7.78l-20.01,37.8Z"/><path class="cls-1" d="M412.27,200.14V2.8h73.65c16.3,0,30.57,2.6,42.8,7.78,12.23,5.19,22.46,12.23,30.71,21.12,8.24,8.89,14.45,19.32,18.62,31.27,4.17,11.95,6.25,24.69,6.25,38.22,0,15.01-2.32,28.58-6.95,40.72-4.63,12.14-11.26,22.51-19.87,31.13s-19,15.29-31.13,20.01c-12.14,4.72-25.62,7.09-40.44,7.09h-73.65Zm125.63-98.95c0-8.71-1.16-16.63-3.47-23.76-2.32-7.13-5.7-13.29-10.15-18.48-4.45-5.19-9.91-9.17-16.4-11.95-6.49-2.78-13.81-4.17-21.96-4.17h-28.07v117.29h28.07c8.34,0,15.75-1.48,22.23-4.45,6.48-2.96,11.9-7.09,16.26-12.37,4.35-5.28,7.69-11.49,10.01-18.62,2.32-7.13,3.47-14.96,3.47-23.49Z"/><path class="cls-1" d="M605.71,200.14V2.8h133.97V42.82h-88.38v42.52h72.82v36.97h-72.82v77.82h-45.58Z"/></g></g></g></svg>