<?xml version="1.0" encoding="UTF-8"?><svg id="Layer_2" xmlns="http://www.w3.org/2000/svg" viewBox="0 0 489.54 489.54"><defs><style>.cls-1,.cls-2{fill:none;}.cls-3{fill:#1d183b;}.cls-4{fill:#5a319f;}.cls-2{stroke:#69bda4;stroke-linejoin:round;stroke-width:22px;}</style></defs><g id="Geometric"><g><rect class="cls-1" width="489.54" height="489.54"/><g><rect class="cls-4" x="143.09" y="63.56" width="203.37" height="203.36"/><polyline class="cls-2" points="299.4 110.61 299.4 219.86 190.15 219.86 190.15 110.61 244.77 110.61"/><g><path class="cls-3" d="M167.03,336.98c-.35-.46-1.57-1.34-3.67-2.62-2.09-1.28-4.71-2.62-7.85-4.01-3.14-1.4-6.57-2.62-10.3-3.67-3.72-1.05-7.45-1.57-11.17-1.57-10.24,0-15.36,3.43-15.36,10.3,0,2.09,.55,3.84,1.66,5.24,1.1,1.4,2.73,2.65,4.89,3.75,2.15,1.11,4.86,2.12,8.12,3.05,3.26,.93,7.04,1.98,11.34,3.14,5.93,1.63,11.28,3.4,16.06,5.32,4.77,1.92,8.81,4.31,12.13,7.16,3.32,2.85,5.87,6.31,7.68,10.38,1.8,4.07,2.71,8.96,2.71,14.66,0,6.98-1.31,12.89-3.93,17.71-2.62,4.83-6.08,8.73-10.38,11.69-4.31,2.97-9.25,5.12-14.83,6.46-5.58,1.34-11.34,2.01-17.28,2.01-4.54,0-9.19-.35-13.96-1.05-4.77-.7-9.42-1.72-13.96-3.05-4.54-1.34-8.93-2.94-13.18-4.8-4.25-1.86-8.17-4.01-11.78-6.46l12.57-24.96c.46,.58,1.98,1.69,4.54,3.32,2.56,1.63,5.73,3.26,9.51,4.89,3.78,1.63,8,3.08,12.65,4.36,4.65,1.28,9.36,1.92,14.14,1.92,10.12,0,15.18-3.08,15.18-9.25,0-2.33-.76-4.25-2.27-5.76-1.51-1.51-3.61-2.88-6.28-4.1-2.68-1.22-5.85-2.36-9.51-3.4-3.67-1.05-7.65-2.21-11.96-3.49-5.7-1.75-10.65-3.64-14.83-5.67-4.19-2.03-7.65-4.39-10.38-7.07-2.74-2.68-4.77-5.76-6.11-9.25-1.34-3.49-2.01-7.56-2.01-12.22,0-6.51,1.22-12.27,3.67-17.28,2.44-5,5.76-9.22,9.95-12.65,4.19-3.43,9.04-6.02,14.57-7.77,5.52-1.75,11.37-2.62,17.54-2.62,4.3,0,8.55,.41,12.74,1.22,4.19,.82,8.2,1.86,12.04,3.14,3.84,1.28,7.42,2.74,10.73,4.36,3.32,1.63,6.37,3.26,9.16,4.89l-12.57,23.73Z"/><path class="cls-3" d="M200.01,424.59v-123.91h46.25c10.24,0,19.2,1.63,26.88,4.89,7.68,3.26,14.11,7.68,19.28,13.26,5.18,5.58,9.08,12.13,11.69,19.63,2.62,7.5,3.93,15.5,3.93,24,0,9.42-1.46,17.95-4.36,25.57-2.91,7.62-7.07,14.14-12.48,19.55s-11.93,9.6-19.55,12.57c-7.62,2.97-16.09,4.45-25.39,4.45h-46.25Zm78.88-62.13c0-5.47-.73-10.44-2.18-14.92-1.46-4.48-3.58-8.35-6.37-11.61-2.79-3.26-6.22-5.76-10.3-7.5-4.07-1.75-8.67-2.62-13.79-2.62h-17.63v73.65h17.63c5.24,0,9.89-.93,13.96-2.79,4.07-1.86,7.47-4.45,10.21-7.77,2.73-3.32,4.83-7.21,6.28-11.69,1.45-4.48,2.18-9.39,2.18-14.75Z"/><path class="cls-3" d="M321.47,424.59v-123.91h84.12v25.13h-55.5v26.7h45.72v23.21h-45.72v48.87h-28.62Z"/></g></g></g></g></svg>