<?xml version="1.0" encoding="UTF-8"?><svg id="Layer_2" xmlns="http://www.w3.org/2000/svg" xmlns:xlink="http://www.w3.org/1999/xlink" viewBox="0 0 1077.32 746.78"><defs><style>.cls-1,.cls-2{fill:none;}.cls-2{stroke:#2e7fbb;stroke-linejoin:round;}.cls-3{clip-path:url(#clippath);}</style><clipPath id="clippath"><rect class="cls-1" width="1077.32" height="746.78"/></clipPath></defs><g id="Geometric"><g class="cls-3"><g><g><polygon class="cls-2" points="57.68 316.91 57.67 316.93 57.67 316.91 57.68 316.91"/><polygon class="cls-2" points="57.68 373.55 57.67 373.56 57.67 373.55 57.68 373.55"/><polygon class="cls-2" points="8.62 401.87 57.67 430.2 57.67 543.47 8.62 515.16 8.62 401.87"/><polygon class="cls-2" points="57.67 203.64 57.68 203.64 106.72 231.95 106.72 231.97 106.73 231.95 155.77 260.28 155.77 316.91 106.73 288.6 106.72 288.59 57.68 260.28 57.67 260.28 8.62 288.6 -40.43 316.91 -40.43 260.28 8.62 231.97 8.62 231.95 57.67 203.64"/><polygon class="cls-2" points="106.72 288.59 106.73 288.6 106.72 288.6 106.72 288.59"/><polygon class="cls-2" points="106.73 231.95 106.72 231.97 106.72 231.95 106.73 231.95"/><polygon class="cls-2" points="155.77 147.01 204.82 175.32 253.87 203.64 253.87 316.91 204.82 345.24 204.82 231.95 155.77 203.64 106.73 175.32 155.77 147.01"/><polygon class="cls-2" points="204.82 231.95 204.82 345.24 155.77 373.56 155.77 260.28 204.82 231.95"/><polygon class="cls-2" points="106.72 401.88 106.72 515.16 106.73 515.16 155.77 543.47 204.82 571.79 155.77 600.12 106.72 571.79 57.68 543.47 57.67 543.47 57.67 430.2 57.68 430.2 106.72 401.88"/><polygon class="cls-2" points="155.77 373.56 155.77 486.83 106.73 515.16 106.72 515.14 106.72 458.52 106.73 458.51 106.72 458.51 106.72 401.88 106.73 401.87 155.77 373.56"/><polygon class="cls-2" points="106.72 515.14 106.73 515.16 106.72 515.16 106.72 515.14"/><polygon class="cls-2" points="106.73 458.51 106.72 458.52 106.72 458.51 106.73 458.51"/><polygon class="cls-2" points="106.73 401.87 106.72 401.88 106.72 401.87 106.73 401.87"/><polygon class="cls-2" points="351.97 373.56 351.97 430.2 302.92 458.51 253.87 486.83 253.87 430.2 302.92 401.87 351.97 373.56"/><polygon class="cls-2" points="155.77 373.56 204.82 401.87 253.87 430.2 253.87 486.83 204.82 458.51 155.77 430.2 155.77 373.56"/><line class="cls-2" x1="57.67" y1="543.47" x2="57.67" y2="543.48"/><line class="cls-2" x1="106.72" y1="175.32" x2="106.72" y2="175.33"/><polygon class="cls-2" points="302.92 231.95 351.97 260.28 351.97 373.56 302.92 401.87 253.87 430.2 204.82 401.87 253.87 373.55 302.92 345.24 302.92 231.95"/><g><polygon class="cls-2" points="155.77 486.83 204.82 515.14 204.82 515.16 253.87 543.47 204.82 571.79 155.77 543.47 106.73 515.16 155.77 486.83"/><polygon class="cls-2" points="253.87 203.64 302.92 231.95 302.92 345.24 253.87 316.91 253.87 203.64"/><line class="cls-2" x1="57.68" y1="543.47" x2="57.67" y2="543.48"/><polygon class="cls-2" points="106.72 345.24 155.77 373.56 106.73 401.87 106.72 401.87 106.72 401.88 57.68 430.2 57.67 430.2 8.62 401.87 57.67 373.56 57.68 373.55 106.72 345.24"/></g><g><polygon class="cls-2" points="106.73 175.32 155.77 203.64 204.82 231.95 155.77 260.28 106.73 231.95 106.72 231.95 57.68 203.64 106.72 175.33 106.73 175.32"/><polygon class="cls-2" points="253.87 316.91 302.92 345.24 253.87 373.55 204.82 401.87 155.77 373.56 204.82 345.24 253.87 316.91"/><polygon class="cls-2" points="302.92 458.51 351.97 430.2 351.97 486.83 302.92 515.14 302.92 515.16 253.87 543.47 204.82 515.16 204.82 515.14 155.77 486.83 155.77 430.2 204.82 458.51 253.87 486.83 302.92 458.51"/><line class="cls-2" x1="106.73" y1="175.32" x2="106.72" y2="175.32"/><polygon class="cls-2" points="57.67 260.28 57.68 260.28 106.72 288.59 106.72 288.6 106.73 288.6 155.77 316.91 155.77 373.56 106.72 345.24 57.68 316.91 57.67 316.91 57.67 260.28"/><polygon class="cls-2" points="57.67 260.28 57.67 316.93 8.63 345.24 8.62 345.24 -40.43 373.56 -40.43 316.91 8.62 288.6 57.67 260.28"/><polygon class="cls-2" points="57.68 316.91 106.72 345.24 57.68 373.55 57.67 373.55 57.67 373.56 8.62 401.87 8.62 515.16 -40.43 486.83 -40.43 373.56 8.62 345.24 8.63 345.24 57.67 316.93 57.68 316.91"/></g></g><g><polygon class="cls-2" points="450.07 316.91 450.06 316.93 450.06 316.91 450.07 316.91"/><polygon class="cls-2" points="450.07 373.55 450.06 373.56 450.06 373.55 450.07 373.55"/><polygon class="cls-2" points="401.01 401.87 450.06 430.2 450.06 543.47 401.01 515.16 401.01 401.87"/><polygon class="cls-2" points="450.06 203.64 450.07 203.64 499.11 231.95 499.11 231.97 499.12 231.95 548.17 260.28 548.17 316.91 499.12 288.6 499.11 288.59 450.07 260.28 450.06 260.28 401.01 288.6 351.97 316.91 351.97 260.28 401.01 231.97 401.01 231.95 450.06 203.64"/><polygon class="cls-2" points="499.11 288.59 499.12 288.6 499.11 288.6 499.11 288.59"/><polygon class="cls-2" points="499.12 231.95 499.11 231.97 499.11 231.95 499.12 231.95"/><polygon class="cls-2" points="548.17 147.01 597.22 175.32 646.26 203.64 646.26 316.91 597.22 345.24 597.22 231.95 548.17 203.64 499.12 175.32 548.17 147.01"/><polygon class="cls-2" points="597.22 231.95 597.22 345.24 548.17 373.56 548.17 260.28 597.22 231.95"/><polygon class="cls-2" points="499.11 401.88 499.11 515.16 499.12 515.16 548.17 543.47 597.22 571.79 548.17 600.12 499.11 571.79 450.07 543.47 450.06 543.47 450.06 430.2 450.07 430.2 499.11 401.88"/><polygon class="cls-2" points="548.17 373.56 548.17 486.83 499.12 515.16 499.11 515.14 499.11 458.52 499.12 458.51 499.11 458.51 499.11 401.88 499.12 401.87 548.17 373.56"/><polygon class="cls-2" points="499.11 515.14 499.12 515.16 499.11 515.16 499.11 515.14"/><polygon class="cls-2" points="499.12 458.51 499.11 458.52 499.11 458.51 499.12 458.51"/><polygon class="cls-2" points="499.12 401.87 499.11 401.88 499.11 401.87 499.12 401.87"/><polygon class="cls-2" points="744.36 373.56 744.36 430.2 695.31 458.51 646.26 486.83 646.26 430.2 695.31 401.87 744.36 373.56"/><polygon class="cls-2" points="548.17 373.56 597.22 401.87 646.26 430.2 646.26 486.83 597.22 458.51 548.17 430.2 548.17 373.56"/><line class="cls-2" x1="450.06" y1="543.47" x2="450.06" y2="543.48"/><line class="cls-2" x1="499.11" y1="175.32" x2="499.11" y2="175.33"/><polygon class="cls-2" points="695.31 231.95 744.36 260.28 744.36 373.56 695.31 401.87 646.26 430.2 597.22 401.87 646.26 373.55 695.31 345.24 695.31 231.95"/><g><polygon class="cls-2" points="548.17 486.83 597.22 515.14 597.22 515.16 646.26 543.47 597.22 571.79 548.17 543.47 499.12 515.16 548.17 486.83"/><polygon class="cls-2" points="646.26 203.64 695.31 231.95 695.31 345.24 646.26 316.91 646.26 203.64"/><line class="cls-2" x1="450.07" y1="543.47" x2="450.06" y2="543.48"/><polygon class="cls-2" points="499.11 345.24 548.17 373.56 499.12 401.87 499.11 401.87 499.11 401.88 450.07 430.2 450.06 430.2 401.01 401.87 450.06 373.56 450.07 373.55 499.11 345.24"/></g><g><polygon class="cls-2" points="499.12 175.32 548.17 203.64 597.22 231.95 548.17 260.28 499.12 231.95 499.11 231.95 450.07 203.64 499.11 175.33 499.12 175.32"/><polygon class="cls-2" points="646.26 316.91 695.31 345.24 646.26 373.55 597.22 401.87 548.17 373.56 597.22 345.24 646.26 316.91"/><polygon class="cls-2" points="695.31 458.51 744.36 430.2 744.36 486.83 695.31 515.14 695.31 515.16 646.26 543.47 597.22 515.16 597.22 515.14 548.17 486.83 548.17 430.2 597.22 458.51 646.26 486.83 695.31 458.51"/><line class="cls-2" x1="499.12" y1="175.32" x2="499.11" y2="175.32"/><polygon class="cls-2" points="450.06 260.28 450.07 260.28 499.11 288.59 499.11 288.6 499.12 288.6 548.17 316.91 548.17 373.56 499.11 345.24 450.07 316.91 450.06 316.91 450.06 260.28"/><polygon class="cls-2" points="450.06 260.28 450.06 316.93 401.03 345.24 401.01 345.24 351.97 373.56 351.97 316.91 401.01 288.6 450.06 260.28"/><polygon class="cls-2" points="450.07 316.91 499.11 345.24 450.07 373.55 450.06 373.55 450.06 373.56 401.01 401.87 401.01 515.16 351.97 486.83 351.97 373.56 401.01 345.24 401.03 345.24 450.06 316.93 450.07 316.91"/></g></g><g><polygon class="cls-2" points="842.47 316.91 842.46 316.93 842.46 316.91 842.47 316.91"/><polygon class="cls-2" points="842.47 373.55 842.46 373.56 842.46 373.55 842.47 373.55"/><polygon class="cls-2" points="793.41 401.87 842.46 430.2 842.46 543.47 793.41 515.16 793.41 401.87"/><polygon class="cls-2" points="842.46 203.64 842.47 203.64 891.5 231.95 891.5 231.97 891.51 231.95 940.56 260.28 940.56 316.91 891.51 288.6 891.5 288.59 842.47 260.28 842.46 260.28 793.41 288.6 744.36 316.91 744.36 260.28 793.41 231.97 793.41 231.95 842.46 203.64"/><polygon class="cls-2" points="891.5 288.59 891.51 288.6 891.5 288.6 891.5 288.59"/><polygon class="cls-2" points="891.51 231.95 891.5 231.97 891.5 231.95 891.51 231.95"/><polygon class="cls-2" points="940.56 147.01 989.61 175.32 1038.66 203.64 1038.66 316.91 989.61 345.24 989.61 231.95 940.56 203.64 891.51 175.32 940.56 147.01"/><polygon class="cls-2" points="989.61 231.95 989.61 345.24 940.56 373.56 940.56 260.28 989.61 231.95"/><polygon class="cls-2" points="891.5 401.88 891.5 515.16 891.51 515.16 940.56 543.47 989.61 571.79 940.56 600.12 891.5 571.79 842.47 543.47 842.46 543.47 842.46 430.2 842.47 430.2 891.5 401.88"/><polygon class="cls-2" points="940.56 373.56 940.56 486.83 891.51 515.16 891.5 515.14 891.5 458.52 891.51 458.51 891.5 458.51 891.5 401.88 891.51 401.87 940.56 373.56"/><polygon class="cls-2" points="891.5 515.14 891.51 515.16 891.5 515.16 891.5 515.14"/><polygon class="cls-2" points="891.51 458.51 891.5 458.52 891.5 458.51 891.51 458.51"/><polygon class="cls-2" points="891.51 401.87 891.5 401.88 891.5 401.87 891.51 401.87"/><polygon class="cls-2" points="1136.75 373.56 1136.75 430.2 1087.71 458.51 1038.66 486.83 1038.66 430.2 1087.71 401.87 1136.75 373.56"/><polygon class="cls-2" points="940.56 373.56 989.61 401.87 1038.66 430.2 1038.66 486.83 989.61 458.51 940.56 430.2 940.56 373.56"/><line class="cls-2" x1="842.46" y1="543.47" x2="842.46" y2="543.48"/><line class="cls-2" x1="891.5" y1="175.32" x2="891.5" y2="175.33"/><polygon class="cls-2" points="1087.71 231.95 1136.75 260.28 1136.75 373.56 1087.71 401.87 1038.66 430.2 989.61 401.87 1038.66 373.55 1087.71 345.24 1087.71 231.95"/><g><polygon class="cls-2" points="940.56 486.83 989.61 515.14 989.61 515.16 1038.66 543.47 989.61 571.79 940.56 543.47 891.51 515.16 940.56 486.83"/><polygon class="cls-2" points="1038.66 203.64 1087.71 231.95 1087.71 345.24 1038.66 316.91 1038.66 203.64"/><line class="cls-2" x1="842.47" y1="543.47" x2="842.46" y2="543.48"/><polygon class="cls-2" points="891.5 345.24 940.56 373.56 891.51 401.87 891.5 401.87 891.5 401.88 842.47 430.2 842.46 430.2 793.41 401.87 842.46 373.56 842.47 373.55 891.5 345.24"/></g><g><polygon class="cls-2" points="891.51 175.32 940.56 203.64 989.61 231.95 940.56 260.28 891.51 231.95 891.5 231.95 842.47 203.64 891.5 175.33 891.51 175.32"/><polygon class="cls-2" points="1038.66 316.91 1087.71 345.24 1038.66 373.55 989.61 401.87 940.56 373.56 989.61 345.24 1038.66 316.91"/><polygon class="cls-2" points="1087.71 458.51 1136.75 430.2 1136.75 486.83 1087.71 515.14 1087.71 515.16 1038.66 543.47 989.61 515.16 989.61 515.14 940.56 486.83 940.56 430.2 989.61 458.51 1038.66 486.83 1087.71 458.51"/><line class="cls-2" x1="891.51" y1="175.32" x2="891.5" y2="175.32"/><polygon class="cls-2" points="842.46 260.28 842.47 260.28 891.5 288.59 891.5 288.6 891.51 288.6 940.56 316.91 940.56 373.56 891.5 345.24 842.47 316.91 842.46 316.91 842.46 260.28"/><polygon class="cls-2" points="842.46 260.28 842.46 316.93 793.42 345.24 793.41 345.24 744.36 373.56 744.36 316.91 793.41 288.6 842.46 260.28"/><polygon class="cls-2" points="842.47 316.91 891.5 345.24 842.47 373.55 842.46 373.55 842.46 373.56 793.41 401.87 793.41 515.16 744.36 486.83 744.36 373.56 793.41 345.24 793.42 345.24 842.46 316.93 842.47 316.91"/></g></g><g><polygon class="cls-2" points="646.27 656.73 646.26 656.74 646.26 656.73 646.27 656.73"/><polygon class="cls-2" points="646.27 713.36 646.26 713.38 646.26 713.36 646.27 713.36"/><polygon class="cls-2" points="597.21 741.69 646.26 770.01 646.26 883.28 597.21 854.97 597.21 741.69"/><polygon class="cls-2" points="646.26 543.46 646.27 543.46 695.31 571.77 695.31 571.78 695.32 571.77 744.37 600.09 744.37 656.73 695.32 628.42 695.31 628.4 646.27 600.09 646.26 600.09 597.21 628.42 548.16 656.73 548.16 600.09 597.21 571.78 597.21 571.77 646.26 543.46"/><polygon class="cls-2" points="695.31 628.4 695.32 628.42 695.31 628.42 695.31 628.4"/><polygon class="cls-2" points="695.32 571.77 695.31 571.78 695.31 571.77 695.32 571.77"/><polygon class="cls-2" points="744.37 486.82 793.41 515.13 842.46 543.46 842.46 656.73 793.41 685.05 793.41 571.77 744.37 543.46 695.32 515.13 744.37 486.82"/><polygon class="cls-2" points="793.41 571.77 793.41 685.05 744.37 713.38 744.37 600.09 793.41 571.77"/><polygon class="cls-2" points="695.31 741.7 695.31 854.97 695.32 854.97 744.37 883.28 793.41 911.61 744.37 939.93 695.31 911.61 646.27 883.28 646.26 883.28 646.26 770.01 646.27 770.01 695.31 741.7"/><polygon class="cls-2" points="744.37 713.38 744.37 826.65 695.32 854.97 695.31 854.96 695.31 798.33 695.32 798.32 695.31 798.32 695.31 741.7 695.32 741.69 744.37 713.38"/><polygon class="cls-2" points="695.32 741.69 695.31 741.7 695.31 741.69 695.32 741.69"/><polygon class="cls-2" points="940.56 713.38 940.56 770.01 891.51 798.32 842.46 826.65 842.46 770.01 891.51 741.69 940.56 713.38"/><polygon class="cls-2" points="744.37 713.38 793.41 741.69 842.46 770.01 842.46 826.65 793.41 798.32 744.37 770.01 744.37 713.38"/><line class="cls-2" x1="695.31" y1="515.13" x2="695.31" y2="515.14"/><polygon class="cls-2" points="891.51 571.77 940.56 600.09 940.56 713.38 891.51 741.69 842.46 770.01 793.41 741.69 842.46 713.36 891.51 685.05 891.51 571.77"/><g><polygon class="cls-2" points="842.46 543.46 891.51 571.77 891.51 685.05 842.46 656.73 842.46 543.46"/><polygon class="cls-2" points="695.31 685.05 744.37 713.38 695.32 741.69 695.31 741.69 695.31 741.7 646.27 770.01 646.26 770.01 597.21 741.69 646.26 713.38 646.27 713.36 695.31 685.05"/></g><g><polygon class="cls-2" points="695.32 515.13 744.37 543.46 793.41 571.77 744.37 600.09 695.32 571.77 695.31 571.77 646.27 543.46 695.31 515.14 695.32 515.13"/><polygon class="cls-2" points="842.46 656.73 891.51 685.05 842.46 713.36 793.41 741.69 744.37 713.38 793.41 685.05 842.46 656.73"/><line class="cls-2" x1="695.32" y1="515.13" x2="695.31" y2="515.13"/><polygon class="cls-2" points="646.26 600.09 646.27 600.09 695.31 628.4 695.31 628.42 695.32 628.42 744.37 656.73 744.37 713.38 695.31 685.05 646.27 656.73 646.26 656.73 646.26 600.09"/><polygon class="cls-2" points="646.26 600.09 646.26 656.74 597.22 685.05 597.21 685.05 548.16 713.38 548.16 656.73 597.21 628.42 646.26 600.09"/><polygon class="cls-2" points="646.27 656.73 695.31 685.05 646.27 713.36 646.26 713.36 646.26 713.38 597.21 741.69 597.21 854.97 548.16 826.65 548.16 713.38 597.21 685.05 597.22 685.05 646.26 656.74 646.27 656.73"/></g></g><g><polygon class="cls-2" points="253.87 33.71 253.86 33.72 253.86 33.71 253.87 33.71"/><polygon class="cls-2" points="204.81 62.04 253.86 90.36 253.86 203.63 204.81 175.32 204.81 62.04"/><polygon class="cls-2" points="351.97 -192.83 401.01 -164.52 450.06 -136.19 450.06 -22.92 401.01 5.4 401.01 -107.88 351.97 -136.19 302.92 -164.52 351.97 -192.83"/><polygon class="cls-2" points="401.01 -107.88 401.01 5.4 351.97 33.72 351.97 -79.56 401.01 -107.88"/><polygon class="cls-2" points="302.91 62.05 302.91 175.32 302.92 175.32 351.97 203.63 401.01 231.95 351.97 260.28 302.91 231.95 253.87 203.63 253.86 203.63 253.86 90.36 253.87 90.36 302.91 62.05"/><polygon class="cls-2" points="351.97 33.72 351.97 147 302.92 175.32 302.91 175.31 302.91 118.68 302.92 118.67 302.91 118.67 302.91 62.05 302.92 62.04 351.97 33.72"/><polygon class="cls-2" points="302.91 175.31 302.92 175.32 302.91 175.32 302.91 175.31"/><polygon class="cls-2" points="302.92 118.67 302.91 118.68 302.91 118.67 302.92 118.67"/><polygon class="cls-2" points="302.92 62.04 302.91 62.05 302.91 62.04 302.92 62.04"/><polygon class="cls-2" points="548.16 33.72 548.16 90.36 499.11 118.67 450.06 147 450.06 90.36 499.11 62.04 548.16 33.72"/><polygon class="cls-2" points="351.97 33.72 401.01 62.04 450.06 90.36 450.06 147 401.01 118.67 351.97 90.36 351.97 33.72"/><line class="cls-2" x1="253.86" y1="203.63" x2="253.86" y2="203.64"/><polygon class="cls-2" points="499.11 -107.88 548.16 -79.56 548.16 33.72 499.11 62.04 450.06 90.36 401.01 62.04 450.06 33.71 499.11 5.4 499.11 -107.88"/><g><polygon class="cls-2" points="351.97 147 401.01 175.31 401.01 175.32 450.06 203.63 401.01 231.95 351.97 203.63 302.92 175.32 351.97 147"/><polygon class="cls-2" points="450.06 -136.19 499.11 -107.88 499.11 5.4 450.06 -22.92 450.06 -136.19"/><line class="cls-2" x1="253.87" y1="203.63" x2="253.86" y2="203.64"/><polygon class="cls-2" points="302.91 5.4 351.97 33.72 302.92 62.04 302.91 62.04 302.91 62.05 253.87 90.36 253.86 90.36 204.81 62.04 253.86 33.72 253.87 33.71 302.91 5.4"/></g><g><polygon class="cls-2" points="450.06 -22.92 499.11 5.4 450.06 33.71 401.01 62.04 351.97 33.72 401.01 5.4 450.06 -22.92"/><polygon class="cls-2" points="499.11 118.67 548.16 90.36 548.16 147 499.11 175.31 499.11 175.32 450.06 203.63 401.01 175.32 401.01 175.31 351.97 147 351.97 90.36 401.01 118.67 450.06 147 499.11 118.67"/><polygon class="cls-2" points="253.86 -79.56 253.87 -79.56 302.91 -51.25 302.91 -51.23 302.92 -51.23 351.97 -22.92 351.97 33.72 302.91 5.4 253.87 -22.92 253.86 -22.92 253.86 -79.56"/><polygon class="cls-2" points="253.86 -79.56 253.86 -22.91 204.82 5.4 204.81 5.4 155.76 33.72 155.76 -22.92 204.81 -51.23 253.86 -79.56"/><polygon class="cls-2" points="253.87 -22.92 302.91 5.4 253.87 33.71 253.86 33.71 253.86 33.72 204.81 62.04 204.81 175.32 155.76 147 155.76 33.72 204.81 5.4 204.82 5.4 253.86 -22.91 253.87 -22.92"/></g></g><g><polygon class="cls-2" points="646.27 33.71 646.26 33.72 646.26 33.71 646.27 33.71"/><polygon class="cls-2" points="597.21 62.04 646.26 90.36 646.26 203.63 597.21 175.32 597.21 62.04"/><polygon class="cls-2" points="744.37 -192.83 793.41 -164.52 842.46 -136.19 842.46 -22.92 793.41 5.4 793.41 -107.88 744.37 -136.19 695.32 -164.52 744.37 -192.83"/><polygon class="cls-2" points="793.41 -107.88 793.41 5.4 744.37 33.72 744.37 -79.56 793.41 -107.88"/><polygon class="cls-2" points="695.31 62.05 695.31 175.32 695.32 175.32 744.37 203.63 793.41 231.95 744.37 260.28 695.31 231.95 646.27 203.63 646.26 203.63 646.26 90.36 646.27 90.36 695.31 62.05"/><polygon class="cls-2" points="744.37 33.72 744.37 147 695.32 175.32 695.31 175.31 695.31 118.68 695.32 118.67 695.31 118.67 695.31 62.05 695.32 62.04 744.37 33.72"/><polygon class="cls-2" points="695.31 175.31 695.32 175.32 695.31 175.32 695.31 175.31"/><polygon class="cls-2" points="695.32 118.67 695.31 118.68 695.31 118.67 695.32 118.67"/><polygon class="cls-2" points="695.32 62.04 695.31 62.05 695.31 62.04 695.32 62.04"/><polygon class="cls-2" points="940.56 33.72 940.56 90.36 891.51 118.67 842.46 147 842.46 90.36 891.51 62.04 940.56 33.72"/><polygon class="cls-2" points="744.37 33.72 793.41 62.04 842.46 90.36 842.46 147 793.41 118.67 744.37 90.36 744.37 33.72"/><line class="cls-2" x1="646.26" y1="203.63" x2="646.26" y2="203.64"/><polygon class="cls-2" points="891.51 -107.88 940.56 -79.56 940.56 33.72 891.51 62.04 842.46 90.36 793.41 62.04 842.46 33.71 891.51 5.4 891.51 -107.88"/><g><polygon class="cls-2" points="744.37 147 793.41 175.31 793.41 175.32 842.46 203.63 793.41 231.95 744.37 203.63 695.32 175.32 744.37 147"/><polygon class="cls-2" points="842.46 -136.19 891.51 -107.88 891.51 5.4 842.46 -22.92 842.46 -136.19"/><line class="cls-2" x1="646.27" y1="203.63" x2="646.26" y2="203.64"/><polygon class="cls-2" points="695.31 5.4 744.37 33.72 695.32 62.04 695.31 62.04 695.31 62.05 646.27 90.36 646.26 90.36 597.21 62.04 646.26 33.72 646.27 33.71 695.31 5.4"/></g><g><polygon class="cls-2" points="842.46 -22.92 891.51 5.4 842.46 33.71 793.41 62.04 744.37 33.72 793.41 5.4 842.46 -22.92"/><polygon class="cls-2" points="891.51 118.67 940.56 90.36 940.56 147 891.51 175.31 891.51 175.32 842.46 203.63 793.41 175.32 793.41 175.31 744.37 147 744.37 90.36 793.41 118.67 842.46 147 891.51 118.67"/><polygon class="cls-2" points="646.26 -79.56 646.27 -79.56 695.31 -51.25 695.31 -51.23 695.32 -51.23 744.37 -22.92 744.37 33.72 695.31 5.4 646.27 -22.92 646.26 -22.92 646.26 -79.56"/><polygon class="cls-2" points="646.26 -79.56 646.26 -22.91 597.22 5.4 597.21 5.4 548.16 33.72 548.16 -22.92 597.21 -51.23 646.26 -79.56"/><polygon class="cls-2" points="646.27 -22.92 695.31 5.4 646.27 33.71 646.26 33.71 646.26 33.72 597.21 62.04 597.21 175.32 548.16 147 548.16 33.72 597.21 5.4 597.22 5.4 646.26 -22.91 646.27 -22.92"/></g></g><g><polygon class="cls-2" points="253.87 656.74 253.86 656.75 253.86 656.74 253.87 656.74"/><polygon class="cls-2" points="253.87 713.38 253.86 713.39 253.86 713.38 253.87 713.38"/><polygon class="cls-2" points="204.81 741.7 253.86 770.02 253.86 883.29 204.81 854.98 204.81 741.7"/><polygon class="cls-2" points="253.86 543.47 253.87 543.47 302.91 571.78 302.91 571.79 302.92 571.78 351.97 600.1 351.97 656.74 302.92 628.43 302.91 628.42 253.87 600.1 253.86 600.1 204.81 628.43 155.76 656.74 155.76 600.1 204.81 571.79 204.81 571.78 253.86 543.47"/><polygon class="cls-2" points="302.91 628.42 302.92 628.43 302.91 628.43 302.91 628.42"/><polygon class="cls-2" points="302.92 571.78 302.91 571.79 302.91 571.78 302.92 571.78"/><polygon class="cls-2" points="351.97 486.83 401.01 515.14 450.06 543.47 450.06 656.74 401.01 685.06 401.01 571.78 351.97 543.47 302.92 515.14 351.97 486.83"/><polygon class="cls-2" points="401.01 571.78 401.01 685.06 351.97 713.39 351.97 600.1 401.01 571.78"/><polygon class="cls-2" points="302.91 741.71 302.91 854.98 302.92 854.98 351.97 883.29 401.01 911.62 351.97 939.94 302.91 911.62 253.87 883.29 253.86 883.29 253.86 770.02 253.87 770.02 302.91 741.71"/><polygon class="cls-2" points="351.97 713.39 351.97 826.66 302.92 854.98 302.91 854.97 302.91 798.35 302.92 798.33 302.91 798.33 302.91 741.71 302.92 741.7 351.97 713.39"/><polygon class="cls-2" points="302.92 741.7 302.91 741.71 302.91 741.7 302.92 741.7"/><polygon class="cls-2" points="548.16 713.39 548.16 770.02 499.11 798.33 450.06 826.66 450.06 770.02 499.11 741.7 548.16 713.39"/><polygon class="cls-2" points="351.97 713.39 401.01 741.7 450.06 770.02 450.06 826.66 401.01 798.33 351.97 770.02 351.97 713.39"/><line class="cls-2" x1="302.91" y1="515.14" x2="302.91" y2="515.16"/><polygon class="cls-2" points="499.11 571.78 548.16 600.1 548.16 713.39 499.11 741.7 450.06 770.02 401.01 741.7 450.06 713.38 499.11 685.06 499.11 571.78"/><g><polygon class="cls-2" points="450.06 543.47 499.11 571.78 499.11 685.06 450.06 656.74 450.06 543.47"/><polygon class="cls-2" points="302.91 685.06 351.97 713.39 302.92 741.7 302.91 741.7 302.91 741.71 253.87 770.02 253.86 770.02 204.81 741.7 253.86 713.39 253.87 713.38 302.91 685.06"/></g><g><polygon class="cls-2" points="302.92 515.14 351.97 543.47 401.01 571.78 351.97 600.1 302.92 571.78 302.91 571.78 253.87 543.47 302.91 515.16 302.92 515.14"/><polygon class="cls-2" points="450.06 656.74 499.11 685.06 450.06 713.38 401.01 741.7 351.97 713.39 401.01 685.06 450.06 656.74"/><line class="cls-2" x1="302.92" y1="515.14" x2="302.91" y2="515.14"/><polygon class="cls-2" points="253.86 600.1 253.87 600.1 302.91 628.42 302.91 628.43 302.92 628.43 351.97 656.74 351.97 713.39 302.91 685.06 253.87 656.74 253.86 656.74 253.86 600.1"/><polygon class="cls-2" points="253.86 600.1 253.86 656.75 204.82 685.06 204.81 685.06 155.76 713.39 155.76 656.74 204.81 628.43 253.86 600.1"/><polygon class="cls-2" points="253.87 656.74 302.91 685.06 253.87 713.38 253.86 713.38 253.86 713.39 204.81 741.7 204.81 854.98 155.76 826.66 155.76 713.39 204.81 685.06 204.82 685.06 253.86 656.75 253.87 656.74"/></g></g></g><g><polygon class="cls-2" points="-41.26 486.25 7.79 514.56 56.84 542.88 56.84 656.15 7.79 684.48 7.79 571.19 -41.26 542.88 -90.3 514.56 -41.26 486.25"/><polygon class="cls-2" points="7.79 571.19 7.79 684.48 -41.26 712.8 -41.26 599.52 7.79 571.19"/><polygon class="cls-2" points="-90.31 741.12 -90.31 854.39 -90.3 854.39 -41.26 882.71 7.79 911.03 -41.26 939.35 -90.31 911.03 -139.35 882.71 -139.36 882.71 -139.36 769.43 -139.35 769.43 -90.31 741.12"/><polygon class="cls-2" points="154.94 712.8 154.94 769.43 105.89 797.75 56.84 826.07 56.84 769.43 105.89 741.11 154.94 712.8"/><polygon class="cls-2" points="-41.26 712.8 7.79 741.11 56.84 769.43 56.84 826.07 7.79 797.75 -41.26 769.43 -41.26 712.8"/><polygon class="cls-2" points="105.89 571.19 154.94 599.52 154.94 712.8 105.89 741.11 56.84 769.43 7.79 741.11 56.84 712.79 105.89 684.48 105.89 571.19"/><polygon class="cls-2" points="56.84 542.88 105.89 571.19 105.89 684.48 56.84 656.15 56.84 542.88"/><g><polygon class="cls-2" points="-90.3 514.56 -41.26 542.88 7.79 571.19 -41.26 599.52 -90.3 571.19 -90.31 571.19 -139.35 542.88 -90.31 514.57 -90.3 514.56"/><polygon class="cls-2" points="56.84 656.15 105.89 684.48 56.84 712.79 7.79 741.11 -41.26 712.8 7.79 684.48 56.84 656.15"/></g></g><g><polygon class="cls-2" points="-41.16 -193.37 7.89 -165.06 56.93 -136.73 56.93 -23.46 7.89 4.86 7.89 -108.42 -41.16 -136.73 -90.21 -165.06 -41.16 -193.37"/><polygon class="cls-2" points="7.89 -108.42 7.89 4.86 -41.16 33.18 -41.16 -80.1 7.89 -108.42"/><polygon class="cls-2" points="-90.22 61.51 -90.22 174.78 -90.21 174.78 -41.16 203.09 7.89 231.41 -41.16 259.74 -90.22 231.41 -139.26 203.09 -139.27 203.09 -139.27 89.82 -139.26 89.82 -90.22 61.51"/><polygon class="cls-2" points="155.03 33.18 155.03 89.82 105.98 118.13 56.93 146.46 56.93 89.82 105.98 61.5 155.03 33.18"/><polygon class="cls-2" points="-41.16 33.18 7.89 61.5 56.93 89.82 56.93 146.46 7.89 118.13 -41.16 89.82 -41.16 33.18"/><polygon class="cls-2" points="105.98 -108.42 155.03 -80.1 155.03 33.18 105.98 61.5 56.93 89.82 7.89 61.5 56.93 33.17 105.98 4.86 105.98 -108.42"/><g><polygon class="cls-2" points="-41.16 146.46 7.89 174.77 7.89 174.78 56.93 203.09 7.89 231.41 -41.16 203.09 -90.21 174.78 -41.16 146.46"/><polygon class="cls-2" points="56.93 -136.73 105.98 -108.42 105.98 4.86 56.93 -23.46 56.93 -136.73"/></g><g><polygon class="cls-2" points="56.93 -23.46 105.98 4.86 56.93 33.17 7.89 61.5 -41.16 33.18 7.89 4.86 56.93 -23.46"/><polygon class="cls-2" points="105.98 118.13 155.03 89.82 155.03 146.46 105.98 174.77 105.98 174.78 56.93 203.09 7.89 174.78 7.89 174.77 -41.16 146.46 -41.16 89.82 7.89 118.13 56.93 146.46 105.98 118.13"/></g></g><g><polygon class="cls-2" points="1038.1 33.17 1038.09 33.18 1038.09 33.17 1038.1 33.17"/><polygon class="cls-2" points="989.04 61.49 1038.09 89.81 1038.09 203.09 989.04 174.77 989.04 61.49"/><polygon class="cls-2" points="1087.13 61.5 1087.13 174.77 1087.15 174.77 1136.19 203.09 1185.24 231.41 1136.19 259.73 1087.13 231.41 1038.1 203.09 1038.09 203.09 1038.09 89.81 1038.1 89.81 1087.13 61.5"/><line class="cls-2" x1="1038.09" y1="203.09" x2="1038.09" y2="203.1"/><g><line class="cls-2" x1="1038.1" y1="203.09" x2="1038.09" y2="203.1"/><polygon class="cls-2" points="1087.13 4.85 1136.19 33.18 1087.15 61.49 1087.13 61.49 1087.13 61.5 1038.1 89.81 1038.09 89.81 989.04 61.49 1038.09 33.18 1038.1 33.17 1087.13 4.85"/></g><g><polygon class="cls-2" points="1038.09 -80.1 1038.1 -80.1 1087.13 -51.79 1087.13 -51.78 1087.15 -51.78 1136.19 -23.47 1136.19 33.18 1087.13 4.85 1038.1 -23.47 1038.09 -23.47 1038.09 -80.1"/><polygon class="cls-2" points="1038.09 -80.1 1038.09 -23.46 989.05 4.85 989.04 4.85 939.99 33.18 939.99 -23.47 989.04 -51.78 1038.09 -80.1"/><polygon class="cls-2" points="1038.1 -23.47 1087.13 4.85 1038.1 33.17 1038.09 33.17 1038.09 33.18 989.04 61.49 989.04 174.77 939.99 146.45 939.99 33.18 989.04 4.85 989.05 4.85 1038.09 -23.46 1038.1 -23.47"/></g></g><g><polygon class="cls-2" points="1038.1 656.75 1038.09 656.76 1038.09 656.75 1038.1 656.75"/><polygon class="cls-2" points="1038.1 713.38 1038.09 713.39 1038.09 713.38 1038.1 713.38"/><polygon class="cls-2" points="989.05 741.7 1038.09 770.03 1038.09 883.3 989.05 854.99 989.05 741.7"/><polygon class="cls-2" points="1038.09 543.47 1038.1 543.47 1087.14 571.79 1087.14 571.8 1087.15 571.79 1136.2 600.11 1136.2 656.75 1087.15 628.43 1087.14 628.42 1038.1 600.11 1038.09 600.11 989.05 628.43 940 656.75 940 600.11 989.05 571.8 989.05 571.79 1038.09 543.47"/><polygon class="cls-2" points="1087.14 741.72 1087.14 854.99 1087.15 854.99 1136.2 883.3 1185.25 911.62 1136.2 939.95 1087.14 911.62 1038.1 883.3 1038.09 883.3 1038.09 770.03 1038.1 770.03 1087.14 741.72"/><polygon class="cls-2" points="1087.14 685.07 1136.2 713.39 1087.15 741.7 1087.14 741.7 1087.14 741.72 1038.1 770.03 1038.09 770.03 989.05 741.7 1038.09 713.39 1038.1 713.38 1087.14 685.07"/><g><polygon class="cls-2" points="1087.15 515.15 1136.2 543.47 1185.25 571.79 1136.2 600.11 1087.15 571.79 1087.14 571.79 1038.1 543.47 1087.14 515.16 1087.15 515.15"/><polygon class="cls-2" points="1038.09 600.11 1038.1 600.11 1087.14 628.42 1087.14 628.43 1087.15 628.43 1136.2 656.75 1136.2 713.39 1087.14 685.07 1038.1 656.75 1038.09 656.75 1038.09 600.11"/><polygon class="cls-2" points="1038.09 600.11 1038.09 656.76 989.06 685.07 989.05 685.07 940 713.39 940 656.75 989.05 628.43 1038.09 600.11"/><polygon class="cls-2" points="1038.1 656.75 1087.14 685.07 1038.1 713.38 1038.09 713.38 1038.09 713.39 989.05 741.7 989.05 854.99 940 826.66 940 713.39 989.05 685.07 989.06 685.07 1038.09 656.76 1038.1 656.75"/></g></g></g></g></svg>