<?xml version="1.0" encoding="UTF-8"?><svg id="Layer_2" xmlns="http://www.w3.org/2000/svg" xmlns:xlink="http://www.w3.org/1999/xlink" viewBox="0 0 1069.53 720.41"><defs><style>.cls-1,.cls-2{fill:none;}.cls-2{stroke:#f5d360;stroke-linecap:round;stroke-linejoin:round;}.cls-3{clip-path:url(#clippath);}</style><clipPath id="clippath"><rect id="SVGID" class="cls-1" width="1069.53" height="720.41"/></clipPath></defs><g id="Geometric"><g class="cls-3"><rect class="cls-2" x="-1870.17" y="-1314.33" width="4809.88" height="3349.06"/><rect class="cls-2" x="-1870.17" y="-1314.33" width="4809.88" height="3349.06"/><path class="cls-2" d="M128.62,16.78V-16.76s0-33.56,0-33.56v-33.54s-29.06-16.78-29.06-16.78l-29.05-16.76-29.06-16.79-29.05-16.76L-103.82-83.86V-50.32s0,33.56,0,33.56V16.78s0,33.56,0,33.56l29.05,16.76,29.06,16.79,29.05,16.76,29.06,16.78L128.63,50.34V16.78ZM12.39,83.88l-29.05-16.76V33.55S12.39,16.78,12.39,16.78L-16.66,.01l-29.06-16.78-29.05-16.76v-33.56S12.39-117.43,12.39-117.43l29.06,16.79v33.54S12.39-50.32,12.39-50.32l29.06,16.78,29.05,16.76L99.57,.01V33.55S12.39,83.88,12.39,83.88Z"/><path class="cls-2" d="M128.62,16.78V-16.76s0-33.56,0-33.56v-33.54s-29.06-16.78-29.06-16.78l-29.05-16.76-29.06-16.79-29.05-16.76L-103.82-83.86V-50.32s0,33.56,0,33.56V16.78s0,33.56,0,33.56l29.05,16.76,29.06,16.79,29.05,16.76,29.06,16.78L128.63,50.34V16.78ZM12.39,83.88l-29.05-16.76V33.55S12.39,16.78,12.39,16.78L-16.66,.01l-29.06-16.78-29.05-16.76v-33.56S12.39-117.43,12.39-117.43l29.06,16.79v33.54S12.39-50.32,12.39-50.32l29.06,16.78,29.05,16.76L99.57,.01V33.55S12.39,83.88,12.39,83.88Z"/><polygon class="cls-2" points="99.56 33.55 12.39 83.88 -16.66 67.12 41.46 33.56 12.39 16.78 -16.66 .01 -45.72 -16.77 -74.77 -33.54 -74.78 -67.1 -45.71 -50.31 -16.66 -33.55 12.4 -16.76 41.45 0 70.51 16.79 99.56 33.55"/><polygon class="cls-2" points="99.56 33.55 12.39 83.88 -16.66 67.12 41.46 33.56 12.39 16.78 -16.66 .01 -45.72 -16.77 -74.77 -33.54 -74.78 -67.1 -45.71 -50.31 -16.66 -33.55 12.4 -16.76 41.45 0 70.51 16.79 99.56 33.55"/><polygon class="cls-2" points="99.56 33.55 70.51 16.79 41.45 0 12.4 -16.76 -16.66 -33.55 -45.71 -50.31 -74.78 -67.1 12.39 -117.43 41.46 -100.64 -16.66 -67.09 12.39 -50.32 41.46 -33.54 70.51 -16.78 99.57 .01 99.56 33.55"/><polygon class="cls-2" points="99.56 33.55 70.51 16.79 41.45 0 12.4 -16.76 -16.66 -33.55 -45.71 -50.31 -74.78 -67.1 12.39 -117.43 41.46 -100.64 -16.66 -67.09 12.39 -50.32 41.46 -33.54 70.51 -16.78 99.57 .01 99.56 33.55"/><polygon class="cls-2" points="41.46 33.56 -16.66 67.12 -16.66 33.55 12.39 16.78 41.46 33.56"/><polygon class="cls-2" points="41.46 33.56 -16.66 67.12 -16.66 33.55 12.39 16.78 41.46 33.56"/><polygon class="cls-2" points="331.7 -83.88 360.76 -67.11 360.76 -33.57 360.76 0 360.76 33.53 331.71 16.76 331.7 -16.78 331.71 -50.34 331.7 -83.88"/><polygon class="cls-2" points="331.7 -83.88 360.76 -67.11 360.76 -33.57 360.76 0 360.76 33.53 331.71 16.76 331.7 -16.78 331.71 -50.34 331.7 -83.88"/><polygon class="cls-2" points="186.43 -67.12 215.48 -50.35 215.48 -16.78 215.48 16.76 186.43 -.02 186.42 -33.56 186.43 -67.12"/><polygon class="cls-2" points="186.43 -67.12 215.48 -50.35 215.48 -16.78 215.48 16.76 186.43 -.02 186.42 -33.56 186.43 -67.12"/><polygon class="cls-2" points="273.59 -83.89 273.59 -50.33 273.6 -16.79 244.53 0 215.48 16.76 215.48 -16.78 215.48 -50.35 244.53 -67.11 273.59 -83.89"/><polygon class="cls-2" points="273.59 -83.89 273.59 -50.33 273.6 -16.79 244.53 0 215.48 16.76 215.48 -16.78 215.48 -50.35 244.53 -67.11 273.59 -83.89"/><polygon class="cls-2" points="331.7 -83.88 331.71 -50.34 331.7 -16.78 331.71 16.76 302.65 33.55 273.6 50.31 244.53 67.09 244.54 33.53 273.59 16.77 302.65 -.02 302.64 -33.56 302.65 -67.12 331.7 -83.88"/><polygon class="cls-2" points="331.7 -83.88 331.71 -50.34 331.7 -16.78 331.71 16.76 302.65 33.55 273.6 50.31 244.53 67.09 244.54 33.53 273.59 16.77 302.65 -.02 302.64 -33.56 302.65 -67.12 331.7 -83.88"/><polygon class="cls-2" points="331.71 16.76 360.76 33.53 331.7 50.32 302.65 67.09 273.59 83.87 244.53 67.09 273.6 50.31 302.65 33.55 331.71 16.76"/><polygon class="cls-2" points="331.71 16.76 360.76 33.53 331.7 50.32 302.65 67.09 273.59 83.87 244.53 67.09 273.6 50.31 302.65 33.55 331.71 16.76"/><path class="cls-2" d="M244.53-134.21l-29.05,16.76-29.06,16.78-29.05,16.76V-50.33s0,33.54,0,33.54V16.77s0,33.54,0,33.54l116.23,67.1,29.05-16.76,29.06-16.78,29.05-16.76,29.06-16.79V16.77s0-33.56,0-33.56V-50.33s0-33.56,0-33.56l-116.23-67.1-29.06,16.79ZM186.43-.02V-33.56s0-33.56,0-33.56l29.05-16.76,29.06-16.78,29.06,16.78V-50.33s0,33.54,0,33.54L244.53,0l-29.05,16.76L186.43-.02Zm174.33-67.09V-33.57S360.76,0,360.76,0V33.53s-29.06,16.79-29.06,16.79l-29.05,16.76-29.06,16.78-29.06-16.78V33.53s29.06-16.76,29.06-16.76L302.65-.02V-33.56s0-33.56,0-33.56l29.05-16.76,29.06,16.78Z"/><path class="cls-2" d="M244.53-134.21l-29.05,16.76-29.06,16.78-29.05,16.76V-50.33s0,33.54,0,33.54V16.77s0,33.54,0,33.54l116.23,67.1,29.05-16.76,29.06-16.78,29.05-16.76,29.06-16.79V16.77s0-33.56,0-33.56V-50.33s0-33.56,0-33.56l-116.23-67.1-29.06,16.79ZM186.43-.02V-33.56s0-33.56,0-33.56l29.05-16.76,29.06-16.78,29.06,16.78V-50.33s0,33.54,0,33.54L244.53,0l-29.05,16.76L186.43-.02Zm174.33-67.09V-33.57S360.76,0,360.76,0V33.53s-29.06,16.79-29.06,16.79l-29.05,16.76-29.06,16.78-29.06-16.78V33.53s29.06-16.76,29.06-16.76L302.65-.02V-33.56s0-33.56,0-33.56l29.05-16.76,29.06,16.78Z"/><polygon class="cls-2" points="621.94 .01 592.88 16.79 592.87 -16.78 592.88 -50.32 621.94 -67.09 621.93 -33.55 621.94 .01"/><polygon class="cls-2" points="621.94 .01 592.88 16.79 592.87 -16.78 592.88 -50.32 621.94 -67.09 621.93 -33.55 621.94 .01"/><polygon class="cls-2" points="563.82 67.1 534.76 83.88 505.71 67.12 476.65 50.33 447.6 33.56 476.65 16.79 505.7 33.55 534.77 50.34 563.82 67.1"/><polygon class="cls-2" points="563.82 67.1 534.76 83.88 505.71 67.12 476.65 50.33 447.6 33.56 476.65 16.79 505.7 33.55 534.77 50.34 563.82 67.1"/><polygon class="cls-2" points="592.88 16.79 563.82 0 534.77 -16.76 534.76 -50.32 534.77 -83.86 563.82 -67.1 592.88 -50.32 592.87 -16.78 592.88 16.79"/><polygon class="cls-2" points="592.88 16.79 563.82 0 534.77 -16.76 534.76 -50.32 534.77 -83.86 563.82 -67.1 592.88 -50.32 592.87 -16.78 592.88 16.79"/><polygon class="cls-2" points="563.82 67.1 534.77 50.34 505.7 33.55 476.65 16.79 476.65 -16.77 476.65 -50.31 476.65 -83.88 505.71 -67.09 505.7 -33.55 505.71 .01 534.76 16.78 563.82 33.56 563.82 67.1"/><polygon class="cls-2" points="563.82 67.1 534.77 50.34 505.7 33.55 476.65 16.79 476.65 -16.77 476.65 -50.31 476.65 -83.88 505.71 -67.09 505.7 -33.55 505.71 .01 534.76 16.78 563.82 33.56 563.82 67.1"/><polygon class="cls-2" points="476.65 16.79 447.6 33.56 447.59 0 447.6 -33.54 447.59 -67.1 476.65 -83.88 476.65 -50.31 476.65 -16.77 476.65 16.79"/><polygon class="cls-2" points="476.65 16.79 447.6 33.56 447.59 0 447.6 -33.54 447.59 -67.1 476.65 -83.88 476.65 -50.31 476.65 -16.77 476.65 16.79"/><path class="cls-2" d="M650.98,16.78V-16.76s0-33.56,0-33.56v-33.54s-29.06-16.78-29.06-16.78l-29.05-16.76-29.06-16.79-29.05-16.76-116.23,67.1V-50.32s0,33.56,0,33.56V16.78s0,33.56,0,33.56l29.05,16.76,29.06,16.79,29.05,16.76,29.06,16.78,116.23-67.1V16.78Zm-87.17-117.42l29.05,16.76,29.06,16.78V-33.55S621.94,.01,621.94,.01l-29.06,16.78L563.82,0l-29.05-16.76V-50.32s0-33.54,0-33.54l29.06-16.78Zm-29.07,184.52l-29.05-16.76-29.06-16.79-29.05-16.76V0s0-33.54,0-33.54v-33.56s29.05-16.78,29.05-16.78l29.06,16.79V-33.55s0,33.56,0,33.56l29.05,16.76,29.06,16.79v33.54s-29.06,16.78-29.06,16.78Z"/><path class="cls-2" d="M650.98,16.78V-16.76s0-33.56,0-33.56v-33.54s-29.06-16.78-29.06-16.78l-29.05-16.76-29.06-16.79-29.05-16.76-116.23,67.1V-50.32s0,33.56,0,33.56V16.78s0,33.56,0,33.56l29.05,16.76,29.06,16.79,29.05,16.76,29.06,16.78,116.23-67.1V16.78Zm-87.17-117.42l29.05,16.76,29.06,16.78V-33.55S621.94,.01,621.94,.01l-29.06,16.78L563.82,0l-29.05-16.76V-50.32s0-33.54,0-33.54l29.06-16.78Zm-29.07,184.52l-29.05-16.76-29.06-16.79-29.05-16.76V0s0-33.54,0-33.54v-33.56s29.05-16.78,29.05-16.78l29.06,16.79V-33.55s0,33.56,0,33.56l29.05,16.76,29.06,16.79v33.54s-29.06,16.78-29.06,16.78Z"/><polygon class="cls-2" points="825.01 -33.56 795.96 -50.33 737.84 -83.89 737.85 -50.35 883.13 33.53 883.13 0 854.07 -16.78 854.07 -50.35 854.07 -83.88 825.01 -100.66 825.02 -67.12 825.01 -33.56"/><polygon class="cls-2" points="825.01 -33.56 795.96 -50.33 737.84 -83.89 737.85 -50.35 883.13 33.53 883.13 0 854.07 -16.78 854.07 -50.35 854.07 -83.88 825.01 -100.66 825.02 -67.12 825.01 -33.56"/><polygon class="cls-2" points="708.79 -33.56 766.9 0 795.96 16.77 766.91 33.53 737.84 50.32 766.9 67.09 795.96 50.31 825.01 33.55 854.07 50.32 883.13 33.53 737.85 -50.35 708.79 -33.56"/><polygon class="cls-2" points="708.79 -33.56 766.9 0 795.96 16.77 766.91 33.53 737.84 50.32 766.9 67.09 795.96 50.31 825.01 33.55 854.07 50.32 883.13 33.53 737.85 -50.35 708.79 -33.56"/><polygon class="cls-2" points="795.96 16.77 766.9 0 737.85 16.76 737.84 50.32 766.91 33.53 795.96 16.77"/><polygon class="cls-2" points="795.96 16.77 766.9 0 737.85 16.76 737.84 50.32 766.91 33.53 795.96 16.77"/><path class="cls-2" d="M737.85-117.45l-29.06,16.79-29.05,16.76V-50.33s0,33.54,0,33.54V16.77s0,33.54,0,33.54l116.23,67.1,29.05-16.76,29.06-16.78,29.05-16.76,29.06-16.79V16.77s0-33.56,0-33.56V-50.33s0-33.56,0-33.56l-116.23-67.1-29.06,16.79-29.05,16.76Zm116.22,33.57V-50.35s0,33.56,0,33.56L883.13,0V33.53s-29.06,16.79-29.06,16.79l-29.06-16.78-29.05,16.76-29.06,16.78-29.06-16.78V16.76S766.9,0,766.9,0l-58.11-33.55v-33.56s29.06-16.76,29.06-16.76l58.11,33.55v-33.56s29.06-16.76,29.06-16.76l29.06,16.78Z"/><path class="cls-2" d="M737.85-117.45l-29.06,16.79-29.05,16.76V-50.33s0,33.54,0,33.54V16.77s0,33.54,0,33.54l116.23,67.1,29.05-16.76,29.06-16.78,29.05-16.76,29.06-16.79V16.77s0-33.56,0-33.56V-50.33s0-33.56,0-33.56l-116.23-67.1-29.06,16.79-29.05,16.76Zm116.22,33.57V-50.35s0,33.56,0,33.56L883.13,0V33.53s-29.06,16.79-29.06,16.79l-29.06-16.78-29.05,16.76-29.06,16.78-29.06-16.78V16.76S766.9,0,766.9,0l-58.11-33.55v-33.56s29.06-16.76,29.06-16.76l58.11,33.55v-33.56s29.06-16.76,29.06-16.76l29.06,16.78Z"/><path class="cls-2" d="M1173.35,16.78V-16.76s0-33.56,0-33.56v-33.54s-29.06-16.78-29.06-16.78l-29.05-16.76-29.06-16.79-29.05-16.76-116.23,67.1V-50.32s0,33.56,0,33.56V16.78s0,33.56,0,33.56l29.05,16.76,29.06,16.79,29.05,16.76,29.06,16.78,116.23-67.1V16.78Zm-116.23,67.1l-29.05-16.76V33.55s29.05-16.78,29.05-16.78L1028.08,.01l-29.06-16.78-29.05-16.76v-33.56s87.16-50.33,87.16-50.33l29.06,16.79v33.54s-29.06,16.78-29.06,16.78l29.06,16.78,29.05,16.76L1144.3,.01V33.55s-87.18,50.33-87.18,50.33Z"/><path class="cls-2" d="M1173.35,16.78V-16.76s0-33.56,0-33.56v-33.54s-29.06-16.78-29.06-16.78l-29.05-16.76-29.06-16.79-29.05-16.76-116.23,67.1V-50.32s0,33.56,0,33.56V16.78s0,33.56,0,33.56l29.05,16.76,29.06,16.79,29.05,16.76,29.06,16.78,116.23-67.1V16.78Zm-116.23,67.1l-29.05-16.76V33.55s29.05-16.78,29.05-16.78L1028.08,.01l-29.06-16.78-29.05-16.76v-33.56s87.16-50.33,87.16-50.33l29.06,16.79v33.54s-29.06,16.78-29.06,16.78l29.06,16.78,29.05,16.76L1144.3,.01V33.55s-87.18,50.33-87.18,50.33Z"/><polygon class="cls-2" points="1144.3 33.55 1057.13 83.88 1028.08 67.12 1086.19 33.56 1057.13 16.78 1028.08 .01 999.01 -16.77 969.96 -33.54 969.96 -67.1 999.02 -50.31 1028.07 -33.55 1057.13 -16.76 1086.18 0 1115.25 16.79 1144.3 33.55"/><polygon class="cls-2" points="1144.3 33.55 1057.13 83.88 1028.08 67.12 1086.19 33.56 1057.13 16.78 1028.08 .01 999.01 -16.77 969.96 -33.54 969.96 -67.1 999.02 -50.31 1028.07 -33.55 1057.13 -16.76 1086.18 0 1115.25 16.79 1144.3 33.55"/><polygon class="cls-2" points="1144.3 33.55 1115.25 16.79 1086.18 0 1057.13 -16.76 1028.07 -33.55 999.02 -50.31 969.96 -67.1 1057.13 -117.43 1086.19 -100.64 1028.08 -67.09 1057.13 -50.32 1086.19 -33.54 1115.24 -16.78 1144.3 .01 1144.3 33.55"/><polygon class="cls-2" points="1144.3 33.55 1115.25 16.79 1086.18 0 1057.13 -16.76 1028.07 -33.55 999.02 -50.31 969.96 -67.1 1057.13 -117.43 1086.19 -100.64 1028.08 -67.09 1057.13 -50.32 1086.19 -33.54 1115.24 -16.78 1144.3 .01 1144.3 33.55"/><polygon class="cls-2" points="1086.19 33.56 1028.08 67.12 1028.07 33.55 1057.13 16.78 1086.19 33.56"/><polygon class="cls-2" points="1086.19 33.56 1028.08 67.12 1028.07 33.55 1057.13 16.78 1086.19 33.56"/><polygon class="cls-2" points="142.97 242.96 172.04 259.73 172.04 192.63 142.97 175.85 113.93 159.08 113.93 226.18 142.97 242.96"/><polygon class="cls-2" points="142.97 242.96 172.04 259.73 172.04 192.63 142.97 175.85 113.93 159.08 113.93 226.18 142.97 242.96"/><polygon class="cls-2" points="172.04 159.08 201.08 175.85 201.08 276.51 230.15 259.73 230.15 159.08 201.08 142.3 172.04 125.52 142.97 108.75 142.97 142.3 172.04 159.08"/><polygon class="cls-2" points="172.04 159.08 201.08 175.85 201.08 276.51 230.15 259.73 230.15 159.08 201.08 142.3 172.04 125.52 142.97 108.75 142.97 142.3 172.04 159.08"/><polygon class="cls-2" points="172.04 192.63 201.08 175.85 172.04 159.08 142.97 142.3 113.93 159.08 142.97 175.85 172.04 192.63"/><polygon class="cls-2" points="172.04 192.63 201.08 175.85 172.04 159.08 142.97 142.3 113.93 159.08 142.97 175.85 172.04 192.63"/><polygon class="cls-2" points="113.93 226.18 113.93 159.08 84.86 142.3 84.86 242.96 113.93 226.18"/><polygon class="cls-2" points="113.93 226.18 113.93 159.08 84.86 142.3 84.86 242.96 113.93 226.18"/><polygon class="cls-2" points="142.97 108.75 113.93 125.52 113.93 159.08 142.97 142.3 142.97 108.75"/><polygon class="cls-2" points="142.97 108.75 113.93 125.52 113.93 159.08 142.97 142.3 142.97 108.75"/><polygon class="cls-2" points="113.93 293.28 142.97 310.06 142.97 276.51 113.93 259.73 84.86 242.96 84.86 142.3 55.82 159.08 55.82 259.73 84.86 276.51 113.93 293.28"/><polygon class="cls-2" points="113.93 293.28 142.97 310.06 142.97 276.51 113.93 259.73 84.86 242.96 84.86 142.3 55.82 159.08 55.82 259.73 84.86 276.51 113.93 293.28"/><polygon class="cls-2" points="172.04 192.63 172.04 259.73 201.08 276.51 201.08 175.85 172.04 192.63"/><polygon class="cls-2" points="172.04 192.63 172.04 259.73 201.08 276.51 201.08 175.85 172.04 192.63"/><polygon class="cls-2" points="142.97 310.06 172.04 293.28 172.04 259.73 142.97 276.51 142.97 310.06"/><polygon class="cls-2" points="142.97 310.06 172.04 293.28 172.04 259.73 142.97 276.51 142.97 310.06"/><polygon class="cls-2" points="113.93 226.18 84.86 242.96 113.93 259.73 142.97 276.51 172.04 259.73 142.97 242.96 113.93 226.18"/><polygon class="cls-2" points="113.93 226.18 84.86 242.96 113.93 259.73 142.97 276.51 172.04 259.73 142.97 242.96 113.93 226.18"/><path class="cls-2" d="M84.86,310.06l29.07,16.78,29.04,16.78,29.07-16.78,29.04-16.78,29.07-16.78,29.04-16.78V142.3l-29.04-16.78-29.07-16.78-29.04-16.78-29.07-16.78-29.04,16.78-29.07,16.78-29.04,16.78-29.07,16.78v134.21l29.07,16.78,29.04,16.78Zm-29.04-150.98l29.04-16.78,29.07,16.78v-33.55l29.04-16.78,29.07,16.78,29.04,16.78,29.07,16.78v100.66l-29.07,16.78-29.04-16.78v33.55l-29.07,16.78-29.04-16.78-29.07-16.78-29.04-16.78v-100.66Z"/><path class="cls-2" d="M84.86,310.06l29.07,16.78,29.04,16.78,29.07-16.78,29.04-16.78,29.07-16.78,29.04-16.78V142.3l-29.04-16.78-29.07-16.78-29.04-16.78-29.07-16.78-29.04,16.78-29.07,16.78-29.04,16.78-29.07,16.78v134.21l29.07,16.78,29.04,16.78Zm-29.04-150.98l29.04-16.78,29.07,16.78v-33.55l29.04-16.78,29.07,16.78,29.04,16.78,29.07,16.78v100.66l-29.07,16.78-29.04-16.78v33.55l-29.07,16.78-29.04-16.78-29.07-16.78-29.04-16.78v-100.66Z"/><polygon class="cls-2" points="99.57 452.39 70.51 469.17 70.51 435.61 70.51 402.07 99.57 385.29 99.56 418.83 99.57 452.39"/><polygon class="cls-2" points="99.57 452.39 70.51 469.17 70.51 435.61 70.51 402.07 99.57 385.29 99.56 418.83 99.57 452.39"/><polygon class="cls-2" points="41.45 519.49 12.39 536.26 -16.66 519.5 -45.72 502.71 -74.77 485.95 -45.71 469.17 -16.66 485.93 12.4 502.72 41.45 519.49"/><polygon class="cls-2" points="41.45 519.49 12.39 536.26 -16.66 519.5 -45.72 502.71 -74.77 485.95 -45.71 469.17 -16.66 485.93 12.4 502.72 41.45 519.49"/><polygon class="cls-2" points="99.57 385.29 70.51 402.07 41.45 385.28 12.4 368.52 41.46 351.74 70.51 368.51 99.57 385.29"/><polygon class="cls-2" points="99.57 385.29 70.51 402.07 41.45 385.28 12.4 368.52 41.46 351.74 70.51 368.51 99.57 385.29"/><polygon class="cls-2" points="70.51 469.17 41.45 452.38 12.4 435.62 12.39 402.06 12.4 368.52 41.45 385.28 70.51 402.07 70.51 435.61 70.51 469.17"/><polygon class="cls-2" points="70.51 469.17 41.45 452.38 12.4 435.62 12.39 402.06 12.4 368.52 41.45 385.28 70.51 402.07 70.51 435.61 70.51 469.17"/><polygon class="cls-2" points="41.45 519.49 12.4 502.72 -16.66 485.93 -45.71 469.17 -45.72 435.61 -45.71 402.07 -45.72 368.51 -16.66 385.29 -16.66 418.83 -16.66 452.39 12.39 469.16 41.46 485.95 41.45 519.49"/><polygon class="cls-2" points="41.45 519.49 12.4 502.72 -16.66 485.93 -45.71 469.17 -45.72 435.61 -45.71 402.07 -45.72 368.51 -16.66 385.29 -16.66 418.83 -16.66 452.39 12.39 469.16 41.46 485.95 41.45 519.49"/><path class="cls-2" d="M128.62,469.16v-33.54s0-33.56,0-33.56v-33.54s-29.06-16.78-29.06-16.78l-29.05-16.76-29.06-16.79-29.05-16.76-116.23,67.1v33.54s0,33.56,0,33.56v33.54s0,33.56,0,33.56l29.05,16.76,29.06,16.79,29.05,16.76,29.06,16.78,116.23-67.1v-33.56Zm-87.17-117.42l29.05,16.76,29.06,16.78v33.54s0,33.56,0,33.56l-29.06,16.78-29.06-16.79-29.05-16.76v-33.56s0-33.54,0-33.54l29.06-16.78Zm-29.07,184.52l-29.05-16.76-29.06-16.79-29.05-16.76v-33.56s0-33.54,0-33.54v-33.56s29.05-16.78,29.05-16.78l29.06,16.79v33.54s0,33.56,0,33.56l29.05,16.76,29.06,16.79v33.54s-29.06,16.78-29.06,16.78Z"/><path class="cls-2" d="M128.62,469.16v-33.54s0-33.56,0-33.56v-33.54s-29.06-16.78-29.06-16.78l-29.05-16.76-29.06-16.79-29.05-16.76-116.23,67.1v33.54s0,33.56,0,33.56v33.54s0,33.56,0,33.56l29.05,16.76,29.06,16.79,29.05,16.76,29.06,16.78,116.23-67.1v-33.56Zm-87.17-117.42l29.05,16.76,29.06,16.78v33.54s0,33.56,0,33.56l-29.06,16.78-29.06-16.79-29.05-16.76v-33.56s0-33.54,0-33.54l29.06-16.78Zm-29.07,184.52l-29.05-16.76-29.06-16.79-29.05-16.76v-33.56s0-33.54,0-33.54v-33.56s29.05-16.78,29.05-16.78l29.06,16.79v33.54s0,33.56,0,33.56l29.05,16.76,29.06,16.79v33.54s-29.06,16.78-29.06,16.78Z"/><polygon class="cls-2" points="433.24 226.19 404.18 242.96 346.07 276.51 346.07 242.97 491.36 159.09 491.35 192.63 462.29 209.41 462.3 242.97 462.29 276.51 433.24 293.29 433.24 259.75 433.24 226.19"/><polygon class="cls-2" points="433.24 226.19 404.18 242.96 346.07 276.51 346.07 242.97 491.36 159.09 491.35 192.63 462.29 209.41 462.3 242.97 462.29 276.51 433.24 293.29 433.24 259.75 433.24 226.19"/><polygon class="cls-2" points="317.01 226.19 375.12 192.63 404.18 175.86 375.13 159.09 346.07 142.31 375.12 125.53 404.19 142.32 433.24 159.08 462.29 142.31 491.36 159.09 346.07 242.97 317.01 226.19"/><polygon class="cls-2" points="317.01 226.19 375.12 192.63 404.18 175.86 375.13 159.09 346.07 142.31 375.12 125.53 404.19 142.32 433.24 159.08 462.29 142.31 491.36 159.09 346.07 242.97 317.01 226.19"/><polygon class="cls-2" points="404.18 175.86 375.12 192.63 346.07 175.87 346.07 142.31 375.13 159.09 404.18 175.86"/><polygon class="cls-2" points="404.18 175.86 375.12 192.63 346.07 175.87 346.07 142.31 375.13 159.09 404.18 175.86"/><polygon class="cls-2" points="346.07 276.51 317.02 259.75 317.01 226.19 346.07 242.97 346.07 276.51"/><polygon class="cls-2" points="346.07 276.51 317.02 259.75 317.01 226.19 346.07 242.97 346.07 276.51"/><path class="cls-2" d="M375.12,326.84l29.06,16.79,116.23-67.1v-33.56s0-33.54,0-33.54v-33.56s0-33.54,0-33.54l-29.06-16.79-29.05-16.76-29.06-16.78-29.05-16.76-116.23,67.1v33.54s0,33.56,0,33.56v33.54s0,33.56,0,33.56l29.05,16.76,29.06,16.79,29.05,16.76Zm58.11-33.55l-29.05-16.76v-33.56s-58.12,33.55-58.12,33.55l-29.05-16.76v-33.56s58.11-33.55,58.11-33.55l-29.05-16.76v-33.56s29.05-16.78,29.05-16.78l29.06,16.78,29.05,16.76,29.06-16.78,29.06,16.79v33.54s-29.06,16.78-29.06,16.78v33.56s0,33.54,0,33.54l-29.06,16.78Z"/><path class="cls-2" d="M375.12,326.84l29.06,16.79,116.23-67.1v-33.56s0-33.54,0-33.54v-33.56s0-33.54,0-33.54l-29.06-16.79-29.05-16.76-29.06-16.78-29.05-16.76-116.23,67.1v33.54s0,33.56,0,33.56v33.54s0,33.56,0,33.56l29.05,16.76,29.06,16.79,29.05,16.76Zm58.11-33.55l-29.05-16.76v-33.56s-58.12,33.55-58.12,33.55l-29.05-16.76v-33.56s58.11-33.55,58.11-33.55l-29.05-16.76v-33.56s29.05-16.78,29.05-16.78l29.06,16.78,29.05,16.76,29.06-16.78,29.06,16.79v33.54s-29.06,16.78-29.06,16.78v33.56s0,33.54,0,33.54l-29.06,16.78Z"/><polygon class="cls-2" points="404.18 242.96 433.24 226.19 433.24 259.75 433.24 293.29 404.19 276.52 404.18 242.96"/><polygon class="cls-2" points="404.18 242.96 433.24 226.19 433.24 259.75 433.24 293.29 404.19 276.52 404.18 242.96"/><polygon class="cls-2" points="694.41 259.73 694.41 226.18 723.45 209.4 723.45 276.51 694.41 259.73"/><polygon class="cls-2" points="694.41 259.73 694.41 226.18 723.45 209.4 723.45 276.51 694.41 259.73"/><path class="cls-2" d="M578.18,293.28l29.04,16.78,29.07,16.78,29.04,16.78,29.07-16.78,29.04-16.78,29.07-16.78,29.04-16.78V142.3l-29.04-16.78-29.07-16.78-29.04-16.78-29.07-16.78-29.04,16.78-29.07,16.78-29.04,16.78-29.07,16.78v134.21l29.07,16.78Zm0-134.21l29.04-16.78,29.07,16.78v33.55l29.04-16.78,29.07-16.78,29.04-16.78,29.07,16.78v100.66l-29.07,16.78-29.04-16.78v-33.55l-29.07,16.78-29.04,16.78-29.07,16.78-29.04-16.78v-100.66Z"/><path class="cls-2" d="M578.18,293.28l29.04,16.78,29.07,16.78,29.04,16.78,29.07-16.78,29.04-16.78,29.07-16.78,29.04-16.78V142.3l-29.04-16.78-29.07-16.78-29.04-16.78-29.07-16.78-29.04,16.78-29.07,16.78-29.04,16.78-29.07,16.78v134.21l29.07,16.78Zm0-134.21l29.04-16.78,29.07,16.78v33.55l29.04-16.78,29.07-16.78,29.04-16.78,29.07,16.78v100.66l-29.07,16.78-29.04-16.78v-33.55l-29.07,16.78-29.04,16.78-29.07,16.78-29.04-16.78v-100.66Z"/><polygon class="cls-2" points="578.18 259.73 578.18 159.08 607.23 142.3 607.23 209.4 636.3 192.63 665.34 175.85 694.41 159.08 723.45 142.3 752.52 159.08 723.45 175.85 694.41 192.63 665.34 209.4 636.3 226.18 607.23 242.96 578.18 259.73"/><polygon class="cls-2" points="578.18 259.73 578.18 159.08 607.23 142.3 607.23 209.4 636.3 192.63 665.34 175.85 694.41 159.08 723.45 142.3 752.52 159.08 723.45 175.85 694.41 192.63 665.34 209.4 636.3 226.18 607.23 242.96 578.18 259.73"/><polygon class="cls-2" points="578.18 259.73 607.23 242.96 636.3 226.18 665.34 209.4 694.41 192.63 723.45 175.85 752.52 159.08 752.52 259.73 723.45 276.51 723.45 209.4 694.41 226.18 665.34 242.96 636.3 259.73 607.23 276.51 578.18 259.73"/><polygon class="cls-2" points="578.18 259.73 607.23 242.96 636.3 226.18 665.34 209.4 694.41 192.63 723.45 175.85 752.52 159.08 752.52 259.73 723.45 276.51 723.45 209.4 694.41 226.18 665.34 242.96 636.3 259.73 607.23 276.51 578.18 259.73"/><polygon class="cls-2" points="607.23 209.4 607.23 142.3 636.3 159.08 636.3 192.63 607.23 209.4"/><polygon class="cls-2" points="607.23 209.4 607.23 142.3 636.3 159.08 636.3 192.63 607.23 209.4"/><polygon class="cls-2" points="273.59 536.25 302.65 519.47 331.7 502.7 302.65 485.93 273.6 502.69 273.59 536.25"/><polygon class="cls-2" points="273.59 536.25 302.65 519.47 331.7 502.7 302.65 485.93 273.6 502.69 273.59 536.25"/><polygon class="cls-2" points="244.54 485.92 215.48 502.7 273.59 536.25 273.6 502.69 244.54 485.92"/><polygon class="cls-2" points="244.54 485.92 215.48 502.7 273.59 536.25 273.6 502.69 244.54 485.92"/><polygon class="cls-2" points="273.6 502.69 302.65 485.93 273.59 469.15 244.54 485.92 273.6 502.69"/><polygon class="cls-2" points="273.6 502.69 302.65 485.93 273.59 469.15 244.54 485.92 273.6 502.69"/><polygon class="cls-2" points="331.7 435.6 360.76 452.38 360.76 418.82 360.76 385.28 331.71 402.04 331.7 435.6"/><polygon class="cls-2" points="331.7 435.6 360.76 452.38 360.76 418.82 360.76 385.28 331.71 402.04 331.7 435.6"/><polygon class="cls-2" points="331.71 402.04 360.76 385.28 302.64 351.72 302.65 385.26 331.71 402.04"/><polygon class="cls-2" points="331.71 402.04 360.76 385.28 302.64 351.72 302.65 385.26 331.71 402.04"/><polygon class="cls-2" points="302.65 385.26 302.64 418.83 331.7 435.6 331.71 402.04 302.65 385.26"/><polygon class="cls-2" points="302.65 385.26 302.64 418.83 331.7 435.6 331.71 402.04 302.65 385.26"/><path class="cls-2" d="M244.53,452.38l-29.05,16.76-29.06,16.78-29.05,16.76,116.23,67.1,29.05-16.76,29.06-16.78,29.05-16.76,29.06-16.79-116.23-67.1-29.06,16.79Zm58.11,33.55l29.06,16.78-29.05,16.76-29.06,16.78-58.11-33.55,29.06-16.78,29.05-16.76,29.06,16.78Z"/><path class="cls-2" d="M244.53,452.38l-29.05,16.76-29.06,16.78-29.05,16.76,116.23,67.1,29.05-16.76,29.06-16.78,29.05-16.76,29.06-16.79-116.23-67.1-29.06,16.79Zm58.11,33.55l29.06,16.78-29.05,16.76-29.06,16.78-58.11-33.55,29.06-16.78,29.05-16.76,29.06,16.78Z"/><path class="cls-2" d="M273.59,368.49v33.56s0,33.54,0,33.54l116.23,67.1v-33.54s0-33.56,0-33.56v-33.54s0-33.56,0-33.56l-116.23-67.1v33.56s0,33.54,0,33.54Zm87.16,16.79v33.54s0,33.56,0,33.56l-29.06-16.78-29.06-16.78v-33.56s0-33.54,0-33.54l58.11,33.55Z"/><path class="cls-2" d="M273.59,368.49v33.56s0,33.54,0,33.54l116.23,67.1v-33.54s0-33.56,0-33.56v-33.54s0-33.56,0-33.56l-116.23-67.1v33.56s0,33.54,0,33.54Zm87.16,16.79v33.54s0,33.56,0,33.56l-29.06-16.78-29.06-16.78v-33.56s0-33.54,0-33.54l58.11,33.55Z"/><polygon class="cls-2" points="186.43 385.26 215.48 402.04 244.53 385.27 244.54 351.71 215.48 368.5 186.43 385.26"/><polygon class="cls-2" points="186.43 385.26 215.48 402.04 244.53 385.27 244.54 351.71 215.48 368.5 186.43 385.26"/><polygon class="cls-2" points="215.48 435.6 244.54 418.81 244.53 385.27 215.48 402.04 215.48 435.6"/><polygon class="cls-2" points="215.48 435.6 244.54 418.81 244.53 385.27 215.48 402.04 215.48 435.6"/><path class="cls-2" d="M215.48,334.94l-29.06,16.78-29.05,16.76v33.56s0,33.54,0,33.54v33.56s0,33.54,0,33.54l29.05-16.76,29.06-16.78,29.05-16.76,29.06-16.79v-33.54s0-33.56,0-33.56v-33.54s0-33.56,0-33.56l-29.06,16.79-29.05,16.76Zm29.05,50.34v33.54s-29.06,16.79-29.06,16.79l-29.05,16.76v-33.54s0-33.56,0-33.56l29.05-16.76,29.06-16.78v33.56Z"/><path class="cls-2" d="M215.48,334.94l-29.06,16.78-29.05,16.76v33.56s0,33.54,0,33.54v33.56s0,33.54,0,33.54l29.05-16.76,29.06-16.78,29.05-16.76,29.06-16.79v-33.54s0-33.56,0-33.56v-33.54s0-33.56,0-33.56l-29.06,16.79-29.05,16.76Zm29.05,50.34v33.54s-29.06,16.79-29.06,16.79l-29.05,16.76v-33.54s0-33.56,0-33.56l29.05-16.76,29.06-16.78v33.56Z"/><polygon class="cls-2" points="186.43 385.26 186.42 418.83 186.43 452.37 215.48 435.6 215.48 402.04 186.43 385.26"/><polygon class="cls-2" points="186.43 385.26 186.42 418.83 186.43 452.37 215.48 435.6 215.48 402.04 186.43 385.26"/><polygon class="cls-2" points="534.76 469.16 505.7 485.93 505.71 519.5 563.82 485.95 534.76 469.16"/><polygon class="cls-2" points="534.76 469.16 505.7 485.93 505.71 519.5 563.82 485.95 534.76 469.16"/><polygon class="cls-2" points="563.82 452.38 534.77 435.62 505.71 452.39 534.76 469.16 563.82 485.95 505.71 519.5 534.76 536.26 621.93 485.93 592.88 469.17 563.82 452.38"/><polygon class="cls-2" points="563.82 452.38 534.77 435.62 505.71 452.39 534.76 469.16 563.82 485.95 505.71 519.5 534.76 536.26 621.93 485.93 592.88 469.17 563.82 452.38"/><polygon class="cls-2" points="534.76 402.06 534.77 368.52 534.76 334.95 505.71 351.73 505.71 385.29 505.7 418.83 505.71 452.39 534.77 435.62 534.76 402.06"/><polygon class="cls-2" points="534.76 402.06 534.77 368.52 534.76 334.95 505.71 351.73 505.71 385.29 505.7 418.83 505.71 452.39 534.77 435.62 534.76 402.06"/><polygon class="cls-2" points="592.87 402.06 563.83 418.83 592.87 402.06 563.82 385.28 563.82 418.84 592.87 435.61 592.88 402.07 592.87 402.06"/><polygon class="cls-2" points="592.87 402.06 563.83 418.83 592.87 402.06 563.82 385.28 563.82 418.84 592.87 435.61 592.88 402.07 592.87 402.06"/><path class="cls-2" d="M650.99,435.62v-33.56s0-33.54,0-33.54l-29.06-16.78-29.05-16.76-29.06-16.79-29.05-16.76-116.23,67.1v33.54s0,33.56,0,33.56v33.54s0,33.56,0,33.56l29.05,16.76,29.06,16.79,29.05,16.76,29.06,16.78,116.23-67.1v-33.56s0-33.54,0-33.54Zm-116.23,100.64l-29.05-16.76v-33.56s29.05-16.78,29.05-16.78l-29.05-16.76v-33.56s0-33.54,0-33.54v-33.56s29.05-16.78,29.05-16.78l29.06,16.79,29.05,16.76,29.06,16.78v33.54s0,33.56,0,33.56v33.54s-87.18,50.33-87.18,50.33Z"/><path class="cls-2" d="M650.99,435.62v-33.56s0-33.54,0-33.54l-29.06-16.78-29.05-16.76-29.06-16.79-29.05-16.76-116.23,67.1v33.54s0,33.56,0,33.56v33.54s0,33.56,0,33.56l29.05,16.76,29.06,16.79,29.05,16.76,29.06,16.78,116.23-67.1v-33.56s0-33.54,0-33.54Zm-116.23,100.64l-29.05-16.76v-33.56s29.05-16.78,29.05-16.78l-29.05-16.76v-33.56s0-33.54,0-33.54v-33.56s29.05-16.78,29.05-16.78l29.06,16.79,29.05,16.76,29.06,16.78v33.54s0,33.56,0,33.56v33.54s-87.18,50.33-87.18,50.33Z"/><path class="cls-2" d="M621.93,418.83v-33.54s-29.05-16.78-29.05-16.78l-29.05-16.76-29.06-16.79v33.56s0,33.54,0,33.54v33.56s29.06,16.76,29.06,16.76l29.06,16.79,29.05,16.76v-33.54s0-33.56,0-33.56Zm-58.11,.01v-33.56s29.05,16.78,29.05,16.78h0s0,0,0,0h0s0,33.54,0,33.54l-29.05-16.76Z"/><path class="cls-2" d="M621.93,418.83v-33.54s-29.05-16.78-29.05-16.78l-29.05-16.76-29.06-16.79v33.56s0,33.54,0,33.54v33.56s29.06,16.76,29.06,16.76l29.06,16.79,29.05,16.76v-33.54s0-33.56,0-33.56Zm-58.11,.01v-33.56s29.05,16.78,29.05,16.78h0s0,0,0,0h0s0,33.54,0,33.54l-29.05-16.76Z"/><polygon class="cls-2" points="926.55 108.76 955.61 125.54 984.66 142.31 955.6 159.08 926.55 142.32 926.55 108.76"/><polygon class="cls-2" points="926.55 108.76 955.61 125.54 984.66 142.31 955.6 159.08 926.55 142.32 926.55 108.76"/><polygon class="cls-2" points="897.5 159.09 868.43 142.31 926.55 108.76 926.55 142.32 897.5 159.09"/><polygon class="cls-2" points="897.5 159.09 868.43 142.31 926.55 108.76 926.55 142.32 897.5 159.09"/><polygon class="cls-2" points="926.55 142.32 955.6 159.08 926.55 175.86 897.5 159.09 926.55 142.32"/><polygon class="cls-2" points="926.55 142.32 955.6 159.08 926.55 175.86 897.5 159.09 926.55 142.32"/><polygon class="cls-2" points="984.66 209.41 1013.72 192.63 1013.72 226.19 1013.72 259.73 984.67 242.97 984.66 209.41"/><polygon class="cls-2" points="984.66 209.41 1013.72 192.63 1013.72 226.19 1013.72 259.73 984.67 242.97 984.66 209.41"/><polygon class="cls-2" points="984.67 242.97 1013.72 259.73 955.6 293.29 955.61 259.75 984.67 242.97"/><polygon class="cls-2" points="984.67 242.97 1013.72 259.73 955.6 293.29 955.61 259.75 984.67 242.97"/><polygon class="cls-2" points="955.61 259.75 955.6 226.19 984.66 209.41 984.67 242.97 955.61 259.75"/><polygon class="cls-2" points="955.61 259.75 955.6 226.19 984.66 209.41 984.67 242.97 955.61 259.75"/><path class="cls-2" d="M926.55,209.42l116.23-67.1-29.06-16.79-29.05-16.76-29.06-16.78-29.05-16.76-116.23,67.1,29.05,16.76,29.06,16.78,29.05,16.76,29.06,16.79Zm0-33.56l-29.05-16.76-29.06-16.78,58.11-33.55,29.06,16.78,29.05,16.76-29.06,16.78-29.06,16.78Z"/><path class="cls-2" d="M926.55,209.42l116.23-67.1-29.06-16.79-29.05-16.76-29.06-16.78-29.05-16.76-116.23,67.1,29.05,16.76,29.06,16.78,29.05,16.76,29.06,16.79Zm0-33.56l-29.05-16.76-29.06-16.78,58.11-33.55,29.06,16.78,29.05,16.76-29.06,16.78-29.06,16.78Z"/><path class="cls-2" d="M926.55,310.06v33.56s116.23-67.1,116.23-67.1v-33.56s0-33.54,0-33.54v-33.56s0-33.54,0-33.54l-116.23,67.1v33.54s0,33.56,0,33.56v33.54Zm29.05-16.78v-33.54s0-33.56,0-33.56l29.06-16.78,29.06-16.78v33.56s0,33.54,0,33.54l-58.11,33.55Z"/><path class="cls-2" d="M926.55,310.06v33.56s116.23-67.1,116.23-67.1v-33.56s0-33.54,0-33.54v-33.56s0-33.54,0-33.54l-116.23,67.1v33.54s0,33.56,0,33.56v33.54Zm29.05-16.78v-33.54s0-33.56,0-33.56l29.06-16.78,29.06-16.78v33.56s0,33.54,0,33.54l-58.11,33.55Z"/><polygon class="cls-2" points="839.38 259.75 868.44 242.97 897.49 259.74 897.5 293.3 868.43 276.51 839.38 259.75"/><polygon class="cls-2" points="839.38 259.75 868.44 242.97 897.49 259.74 897.5 293.3 868.43 276.51 839.38 259.75"/><polygon class="cls-2" points="868.43 209.41 897.5 226.2 897.49 259.74 868.44 242.97 868.43 209.41"/><polygon class="cls-2" points="868.43 209.41 897.5 226.2 897.49 259.74 868.44 242.97 868.43 209.41"/><path class="cls-2" d="M897.49,326.84l29.06,16.79v-33.56s0-33.54,0-33.54v-33.56s0-33.54,0-33.54l-29.06-16.79-29.05-16.76-29.06-16.78-29.05-16.76v33.54s0,33.56,0,33.56v33.54s0,33.56,0,33.56l29.05,16.76,29.06,16.78,29.05,16.76Zm0-33.54l-29.06-16.78-29.05-16.76v-33.56s0-33.54,0-33.54l29.05,16.76,29.06,16.79v33.54s0,33.56,0,33.56Z"/><path class="cls-2" d="M897.49,326.84l29.06,16.79v-33.56s0-33.54,0-33.54v-33.56s0-33.54,0-33.54l-29.06-16.79-29.05-16.76-29.06-16.78-29.05-16.76v33.54s0,33.56,0,33.56v33.54s0,33.56,0,33.56l29.05,16.76,29.06,16.78,29.05,16.76Zm0-33.54l-29.06-16.78-29.05-16.76v-33.56s0-33.54,0-33.54l29.05,16.76,29.06,16.79v33.54s0,33.56,0,33.56Z"/><polygon class="cls-2" points="839.38 259.75 839.38 226.19 839.38 192.65 868.43 209.41 868.44 242.97 839.38 259.75"/><polygon class="cls-2" points="839.38 259.75 839.38 226.19 839.38 192.65 868.43 209.41 868.44 242.97 839.38 259.75"/><polygon class="cls-2" points="766.91 418.81 737.84 435.6 795.96 469.15 825.02 452.37 854.07 435.6 795.96 402.05 766.91 418.81"/><polygon class="cls-2" points="766.91 418.81 737.84 435.6 795.96 469.15 825.02 452.37 854.07 435.6 795.96 402.05 766.91 418.81"/><polygon class="cls-2" points="825.01 485.93 795.96 502.69 708.79 452.37 708.79 485.93 795.96 536.25 825.02 519.47 854.07 502.7 883.13 485.92 854.08 469.14 825.01 485.93"/><polygon class="cls-2" points="825.01 485.93 795.96 502.69 708.79 452.37 708.79 485.93 795.96 536.25 825.02 519.47 854.07 502.7 883.13 485.92 854.08 469.14 825.01 485.93"/><polygon class="cls-2" points="795.96 469.15 795.96 502.69 825.01 485.93 854.08 469.14 854.07 435.6 825.02 452.37 795.96 469.15"/><polygon class="cls-2" points="795.96 469.15 795.96 502.69 825.01 485.93 854.08 469.14 854.07 435.6 825.02 452.37 795.96 469.15"/><polygon class="cls-2" points="795.96 402.05 854.07 435.6 883.13 418.82 795.96 368.49 795.96 402.05"/><polygon class="cls-2" points="795.96 402.05 854.07 435.6 883.13 418.82 795.96 368.49 795.96 402.05"/><polygon class="cls-2" points="883.13 485.92 883.12 452.38 854.07 435.6 854.08 469.14 883.13 485.92"/><polygon class="cls-2" points="883.13 485.92 883.12 452.38 854.07 435.6 854.08 469.14 883.13 485.92"/><polygon class="cls-2" points="737.84 368.5 708.79 385.26 737.85 402.04 766.9 385.27 795.96 368.49 883.13 418.82 883.12 385.28 795.95 334.95 766.91 351.71 737.84 368.5"/><polygon class="cls-2" points="737.84 368.5 708.79 385.26 737.85 402.04 766.9 385.27 795.96 368.49 883.13 418.82 883.12 385.28 795.95 334.95 766.91 351.71 737.84 368.5"/><polygon class="cls-2" points="795.96 469.15 737.84 435.6 708.79 452.37 795.96 502.69 795.96 469.15"/><polygon class="cls-2" points="795.96 469.15 737.84 435.6 708.79 452.37 795.96 502.69 795.96 469.15"/><polygon class="cls-2" points="708.79 385.26 708.79 418.83 737.84 435.6 737.85 402.04 708.79 385.26"/><polygon class="cls-2" points="708.79 385.26 708.79 418.83 737.84 435.6 737.85 402.04 708.79 385.26"/><polygon class="cls-2" points="795.96 402.05 795.96 368.49 766.9 385.27 737.85 402.04 737.84 435.6 766.91 418.81 795.96 402.05"/><polygon class="cls-2" points="795.96 402.05 795.96 368.49 766.9 385.27 737.85 402.04 737.84 435.6 766.91 418.81 795.96 402.05"/><path class="cls-2" d="M737.85,334.94l-29.06,16.78-29.05,16.76v33.56s0,33.54,0,33.54v33.56s0,33.54,0,33.54l116.23,67.1,29.05-16.76,29.06-16.78,29.05-16.76,29.06-16.79v-33.54s0-33.56,0-33.56v-33.54s0-33.56,0-33.56l-116.23-67.1-29.06,16.79-29.05,16.76Zm145.28,50.34v33.54s-29.06,16.78-29.06,16.78l29.06,16.78v33.54s-29.06,16.79-29.06,16.79l-29.05,16.76-29.06,16.78-87.17-50.33v-33.56s29.06-16.76,29.06-16.76l-29.06-16.78v-33.56s29.06-16.76,29.06-16.76l29.06-16.78,29.05-16.76,87.17,50.33Z"/><path class="cls-2" d="M737.85,334.94l-29.06,16.78-29.05,16.76v33.56s0,33.54,0,33.54v33.56s0,33.54,0,33.54l116.23,67.1,29.05-16.76,29.06-16.78,29.05-16.76,29.06-16.79v-33.54s0-33.56,0-33.56v-33.54s0-33.56,0-33.56l-116.23-67.1-29.06,16.79-29.05,16.76Zm145.28,50.34v33.54s-29.06,16.78-29.06,16.78l29.06,16.78v33.54s-29.06,16.79-29.06,16.79l-29.05,16.76-29.06,16.78-87.17-50.33v-33.56s29.06-16.76,29.06-16.76l-29.06-16.78v-33.56s29.06-16.76,29.06-16.76l29.06-16.78,29.05-16.76,87.17,50.33Z"/><polygon class="cls-2" points="1086.19 418.84 1086.18 385.28 1028.07 418.83 1028.08 452.39 1028.07 485.93 1086.18 452.38 1086.19 418.84"/><polygon class="cls-2" points="1086.19 418.84 1086.18 385.28 1028.07 418.83 1028.08 452.39 1028.07 485.93 1086.18 452.38 1086.19 418.84"/><polygon class="cls-2" points="999.01 435.61 999.02 402.07 1086.19 351.74 1057.13 334.95 969.96 385.28 969.96 418.85 969.96 452.39 969.96 485.95 999.02 469.17 999.01 435.61"/><polygon class="cls-2" points="999.01 435.61 999.02 402.07 1086.19 351.74 1057.13 334.95 969.96 385.28 969.96 418.85 969.96 452.39 969.96 485.95 999.02 469.17 999.01 435.61"/><polygon class="cls-2" points="1028.07 418.83 999.02 402.07 999.01 435.61 999.02 469.17 1028.07 485.93 1028.08 452.39 1028.07 418.83"/><polygon class="cls-2" points="1028.07 418.83 999.02 402.07 999.01 435.61 999.02 469.17 1028.07 485.93 1028.08 452.39 1028.07 418.83"/><polygon class="cls-2" points="1086.18 452.38 1028.07 485.93 1028.08 519.5 1115.25 469.17 1086.18 452.38"/><polygon class="cls-2" points="1086.18 452.38 1028.07 485.93 1028.08 519.5 1115.25 469.17 1086.18 452.38"/><polygon class="cls-2" points="969.96 485.95 999.01 502.71 1028.07 485.93 999.02 469.17 969.96 485.95"/><polygon class="cls-2" points="969.96 485.95 999.01 502.71 1028.07 485.93 999.02 469.17 969.96 485.95"/><polygon class="cls-2" points="1144.3 418.83 1144.3 385.29 1115.25 402.07 1115.24 435.61 1115.25 469.17 1028.08 519.5 1057.13 536.26 1144.3 485.93 1144.3 452.39 1144.3 418.83"/><polygon class="cls-2" points="1144.3 418.83 1144.3 385.29 1115.25 402.07 1115.24 435.61 1115.25 469.17 1028.08 519.5 1057.13 536.26 1144.3 485.93 1144.3 452.39 1144.3 418.83"/><polygon class="cls-2" points="1028.07 418.83 1086.18 385.28 1086.19 351.74 999.02 402.07 1028.07 418.83"/><polygon class="cls-2" points="1028.07 418.83 1086.18 385.28 1086.19 351.74 999.02 402.07 1028.07 418.83"/><path class="cls-2" d="M1173.36,435.62v-33.56s0-33.54,0-33.54l-29.06-16.78-29.05-16.76-29.06-16.79-29.05-16.76-116.23,67.1v33.54s0,33.56,0,33.56v33.54s0,33.56,0,33.56l29.05,16.76,29.06,16.79,29.05,16.76,29.06,16.78,116.23-67.1v-33.56s0-33.54,0-33.54Zm-116.23,100.64l-29.05-16.76v-33.56s-29.06,16.78-29.06,16.78l-29.05-16.76v-33.56s0-33.54,0-33.54v-33.56s87.16-50.33,87.16-50.33l29.06,16.79v33.54s29.05-16.78,29.05-16.78l29.06,16.78v33.54s0,33.56,0,33.56v33.54s-87.18,50.33-87.18,50.33Z"/><path class="cls-2" d="M1173.36,435.62v-33.56s0-33.54,0-33.54l-29.06-16.78-29.05-16.76-29.06-16.79-29.05-16.76-116.23,67.1v33.54s0,33.56,0,33.56v33.54s0,33.56,0,33.56l29.05,16.76,29.06,16.79,29.05,16.76,29.06,16.78,116.23-67.1v-33.56s0-33.54,0-33.54Zm-116.23,100.64l-29.05-16.76v-33.56s-29.06,16.78-29.06,16.78l-29.05-16.76v-33.56s0-33.54,0-33.54v-33.56s87.16-50.33,87.16-50.33l29.06,16.79v33.54s29.05-16.78,29.05-16.78l29.06,16.78v33.54s0,33.56,0,33.56v33.54s-87.18,50.33-87.18,50.33Z"/><polygon class="cls-2" points="142.97 695.34 172.04 712.11 172.04 645.01 142.97 628.23 113.93 611.46 113.93 678.56 142.97 695.34"/><polygon class="cls-2" points="142.97 695.34 172.04 712.11 172.04 645.01 142.97 628.23 113.93 611.46 113.93 678.56 142.97 695.34"/><polygon class="cls-2" points="172.04 611.46 201.08 628.23 201.08 728.89 230.15 712.11 230.15 611.46 201.08 594.68 172.04 577.91 142.97 561.13 142.97 594.68 172.04 611.46"/><polygon class="cls-2" points="172.04 611.46 201.08 628.23 201.08 728.89 230.15 712.11 230.15 611.46 201.08 594.68 172.04 577.91 142.97 561.13 142.97 594.68 172.04 611.46"/><polygon class="cls-2" points="172.04 645.01 201.08 628.23 172.04 611.46 142.97 594.68 113.93 611.46 142.97 628.23 172.04 645.01"/><polygon class="cls-2" points="172.04 645.01 201.08 628.23 172.04 611.46 142.97 594.68 113.93 611.46 142.97 628.23 172.04 645.01"/><polygon class="cls-2" points="113.93 678.56 113.93 611.46 84.86 594.68 84.86 695.34 113.93 678.56"/><polygon class="cls-2" points="113.93 678.56 113.93 611.46 84.86 594.68 84.86 695.34 113.93 678.56"/><polygon class="cls-2" points="142.97 561.13 113.93 577.91 113.93 611.46 142.97 594.68 142.97 561.13"/><polygon class="cls-2" points="142.97 561.13 113.93 577.91 113.93 611.46 142.97 594.68 142.97 561.13"/><polygon class="cls-2" points="113.93 745.67 142.97 762.44 142.97 728.89 113.93 712.11 84.86 695.34 84.86 594.68 55.82 611.46 55.82 712.11 84.86 728.89 113.93 745.67"/><polygon class="cls-2" points="113.93 745.67 142.97 762.44 142.97 728.89 113.93 712.11 84.86 695.34 84.86 594.68 55.82 611.46 55.82 712.11 84.86 728.89 113.93 745.67"/><polygon class="cls-2" points="172.04 645.01 172.04 712.11 201.08 728.89 201.08 628.23 172.04 645.01"/><polygon class="cls-2" points="172.04 645.01 172.04 712.11 201.08 728.89 201.08 628.23 172.04 645.01"/><polygon class="cls-2" points="142.97 762.44 172.04 745.67 172.04 712.11 142.97 728.89 142.97 762.44"/><polygon class="cls-2" points="142.97 762.44 172.04 745.67 172.04 712.11 142.97 728.89 142.97 762.44"/><polygon class="cls-2" points="113.93 678.56 84.86 695.34 113.93 712.11 142.97 728.89 172.04 712.11 142.97 695.34 113.93 678.56"/><polygon class="cls-2" points="113.93 678.56 84.86 695.34 113.93 712.11 142.97 728.89 172.04 712.11 142.97 695.34 113.93 678.56"/><path class="cls-2" d="M84.86,762.44l29.07,16.78,29.04,16.78,29.07-16.78,29.04-16.78,29.07-16.78,29.04-16.78v-134.21l-29.04-16.78-29.07-16.78-29.04-16.78-29.07-16.78-29.04,16.78-29.07,16.78-29.04,16.78-29.07,16.78v134.21l29.07,16.78,29.04,16.78Zm-29.04-150.98l29.04-16.78,29.07,16.78v-33.55l29.04-16.78,29.07,16.78,29.04,16.78,29.07,16.78v100.66l-29.07,16.78-29.04-16.78v33.55l-29.07,16.78-29.04-16.78-29.07-16.78-29.04-16.78v-100.66Z"/><path class="cls-2" d="M84.86,762.44l29.07,16.78,29.04,16.78,29.07-16.78,29.04-16.78,29.07-16.78,29.04-16.78v-134.21l-29.04-16.78-29.07-16.78-29.04-16.78-29.07-16.78-29.04,16.78-29.07,16.78-29.04,16.78-29.07,16.78v134.21l29.07,16.78,29.04,16.78Zm-29.04-150.98l29.04-16.78,29.07,16.78v-33.55l29.04-16.78,29.07,16.78,29.04,16.78,29.07,16.78v100.66l-29.07,16.78-29.04-16.78v33.55l-29.07,16.78-29.04-16.78-29.07-16.78-29.04-16.78v-100.66Z"/><polygon class="cls-2" points="433.24 678.57 462.29 661.79 491.36 678.58 433.24 712.13 433.24 678.57"/><polygon class="cls-2" points="433.24 678.57 462.29 661.79 491.36 678.58 433.24 712.13 433.24 678.57"/><polygon class="cls-2" points="404.18 695.34 404.19 661.8 433.24 645.03 433.24 678.57 433.24 712.13 491.36 678.58 491.35 712.12 404.18 762.44 404.19 728.9 404.18 695.34"/><polygon class="cls-2" points="404.18 695.34 404.19 661.8 433.24 645.03 433.24 678.57 433.24 712.13 491.36 678.58 491.35 712.12 404.18 762.44 404.19 728.9 404.18 695.34"/><polygon class="cls-2" points="375.12 645.02 346.07 628.25 317.01 611.47 346.07 594.69 375.13 611.48 404.18 628.24 433.24 645.03 404.19 661.8 375.12 645.02"/><polygon class="cls-2" points="375.12 645.02 346.07 628.25 317.01 611.47 346.07 594.69 375.13 611.48 404.18 628.24 433.24 645.03 404.19 661.8 375.12 645.02"/><polygon class="cls-2" points="346.07 695.35 375.12 678.58 346.07 695.35 346.07 661.79 375.13 678.58 375.12 712.12 346.07 695.36 346.07 695.35"/><polygon class="cls-2" points="346.07 695.35 375.12 678.58 346.07 695.35 346.07 661.79 375.13 678.58 375.12 712.12 346.07 695.36 346.07 695.35"/><path class="cls-2" d="M375.12,779.22l29.06,16.79,116.23-67.1v-33.56s0-33.54,0-33.54v-33.56s0-33.54,0-33.54l-29.06-16.79-29.05-16.76-29.06-16.78-29.05-16.76-116.23,67.1v33.54s0,33.56,0,33.56v33.54s0,33.56,0,33.56l29.05,16.76,29.06,16.78,29.05,16.76Zm29.06-16.78l-29.05-16.76-29.06-16.78-29.05-16.76v-33.56s0-33.54,0-33.54v-33.56s29.05-16.78,29.05-16.78l29.06,16.78,29.05,16.76,29.06,16.79v33.54s29.05-16.78,29.05-16.78l29.06,16.78v33.54s-87.18,50.33-87.18,50.33Z"/><path class="cls-2" d="M375.12,779.22l29.06,16.79,116.23-67.1v-33.56s0-33.54,0-33.54v-33.56s0-33.54,0-33.54l-29.06-16.79-29.05-16.76-29.06-16.78-29.05-16.76-116.23,67.1v33.54s0,33.56,0,33.56v33.54s0,33.56,0,33.56l29.05,16.76,29.06,16.78,29.05,16.76Zm29.06-16.78l-29.05-16.76-29.06-16.78-29.05-16.76v-33.56s0-33.54,0-33.54v-33.56s29.05-16.78,29.05-16.78l29.06,16.78,29.05,16.76,29.06,16.79v33.54s29.05-16.78,29.05-16.78l29.06,16.78v33.54s-87.18,50.33-87.18,50.33Z"/><path class="cls-2" d="M375.13,745.68l29.05,16.76v-33.54s0-33.56,0-33.56v-33.54s-29.06-16.79-29.06-16.79l-29.05-16.76-29.06-16.78v33.56s0,33.54,0,33.54v33.56s29.06,16.76,29.06,16.76l29.06,16.78Zm0-33.56l-29.05-16.76h0s0,0,0,0h0s0-33.56,0-33.56l29.06,16.79v33.54Z"/><path class="cls-2" d="M375.13,745.68l29.05,16.76v-33.54s0-33.56,0-33.56v-33.54s-29.06-16.79-29.06-16.79l-29.05-16.76-29.06-16.78v33.56s0,33.54,0,33.54v33.56s29.06,16.76,29.06,16.76l29.06,16.78Zm0-33.56l-29.05-16.76h0s0,0,0,0h0s0-33.56,0-33.56l29.06,16.79v33.54Z"/><polygon class="cls-2" points="694.41 712.11 694.41 678.56 723.45 661.79 723.45 728.89 694.41 712.11"/><polygon class="cls-2" points="694.41 712.11 694.41 678.56 723.45 661.79 723.45 728.89 694.41 712.11"/><path class="cls-2" d="M578.18,745.67l29.04,16.78,29.07,16.78,29.04,16.78,29.07-16.78,29.04-16.78,29.07-16.78,29.04-16.78v-134.21l-29.04-16.78-29.07-16.78-29.04-16.78-29.07-16.78-29.04,16.78-29.07,16.78-29.04,16.78-29.07,16.78v134.21l29.07,16.78Zm0-134.21l29.04-16.78,29.07,16.78v33.55l29.04-16.78,29.07-16.78,29.04-16.78,29.07,16.78v100.66l-29.07,16.78-29.04-16.78v-33.55l-29.07,16.78-29.04,16.78-29.07,16.78-29.04-16.78v-100.66Z"/><path class="cls-2" d="M578.18,745.67l29.04,16.78,29.07,16.78,29.04,16.78,29.07-16.78,29.04-16.78,29.07-16.78,29.04-16.78v-134.21l-29.04-16.78-29.07-16.78-29.04-16.78-29.07-16.78-29.04,16.78-29.07,16.78-29.04,16.78-29.07,16.78v134.21l29.07,16.78Zm0-134.21l29.04-16.78,29.07,16.78v33.55l29.04-16.78,29.07-16.78,29.04-16.78,29.07,16.78v100.66l-29.07,16.78-29.04-16.78v-33.55l-29.07,16.78-29.04,16.78-29.07,16.78-29.04-16.78v-100.66Z"/><polygon class="cls-2" points="578.18 712.11 578.18 611.46 607.23 594.68 607.23 661.79 636.3 645.01 665.34 628.23 694.41 611.46 723.45 594.68 752.52 611.46 723.45 628.23 694.41 645.01 665.34 661.79 636.3 678.56 607.23 695.34 578.18 712.11"/><polygon class="cls-2" points="578.18 712.11 578.18 611.46 607.23 594.68 607.23 661.79 636.3 645.01 665.34 628.23 694.41 611.46 723.45 594.68 752.52 611.46 723.45 628.23 694.41 645.01 665.34 661.79 636.3 678.56 607.23 695.34 578.18 712.11"/><polygon class="cls-2" points="578.18 712.11 607.23 695.34 636.3 678.56 665.34 661.79 694.41 645.01 723.45 628.23 752.52 611.46 752.52 712.11 723.45 728.89 723.45 661.79 694.41 678.56 665.34 695.34 636.3 712.11 607.23 728.89 578.18 712.11"/><polygon class="cls-2" points="578.18 712.11 607.23 695.34 636.3 678.56 665.34 661.79 694.41 645.01 723.45 628.23 752.52 611.46 752.52 712.11 723.45 728.89 723.45 661.79 694.41 678.56 665.34 695.34 636.3 712.11 607.23 728.89 578.18 712.11"/><polygon class="cls-2" points="607.23 661.79 607.23 594.68 636.3 611.46 636.3 645.01 607.23 661.79"/><polygon class="cls-2" points="607.23 661.79 607.23 594.68 636.3 611.46 636.3 645.01 607.23 661.79"/><polygon class="cls-2" points="897.5 678.58 868.43 661.79 926.55 628.24 955.61 645.03 984.66 661.79 926.55 695.34 897.5 678.58"/><polygon class="cls-2" points="897.5 678.58 868.43 661.79 926.55 628.24 955.61 645.03 984.66 661.79 926.55 695.34 897.5 678.58"/><polygon class="cls-2" points="955.6 611.46 926.55 594.7 839.38 645.03 839.38 611.47 926.55 561.14 955.61 577.92 984.66 594.69 1013.72 611.48 984.67 628.25 955.6 611.46"/><polygon class="cls-2" points="955.6 611.46 926.55 594.7 839.38 645.03 839.38 611.47 926.55 561.14 955.61 577.92 984.66 594.69 1013.72 611.48 984.67 628.25 955.6 611.46"/><polygon class="cls-2" points="926.55 628.24 926.55 594.7 955.6 611.46 984.67 628.25 984.66 661.79 955.61 645.03 926.55 628.24"/><polygon class="cls-2" points="926.55 628.24 926.55 594.7 955.6 611.46 984.67 628.25 984.66 661.79 955.61 645.03 926.55 628.24"/><polygon class="cls-2" points="926.55 695.34 984.66 661.79 1013.72 678.58 926.55 728.9 926.55 695.34"/><polygon class="cls-2" points="926.55 695.34 984.66 661.79 1013.72 678.58 926.55 728.9 926.55 695.34"/><polygon class="cls-2" points="1013.72 611.48 1013.72 645.02 984.66 661.79 984.67 628.25 1013.72 611.48"/><polygon class="cls-2" points="1013.72 611.48 1013.72 645.02 984.66 661.79 984.67 628.25 1013.72 611.48"/><polygon class="cls-2" points="868.43 728.9 839.38 712.13 868.44 695.36 897.49 712.12 926.55 728.9 1013.72 678.58 1013.72 712.12 926.55 762.44 897.5 745.68 868.43 728.9"/><polygon class="cls-2" points="868.43 728.9 839.38 712.13 868.44 695.36 897.49 712.12 926.55 728.9 1013.72 678.58 1013.72 712.12 926.55 762.44 897.5 745.68 868.43 728.9"/><polygon class="cls-2" points="926.55 628.24 868.43 661.79 839.38 645.03 926.55 594.7 926.55 628.24"/><polygon class="cls-2" points="926.55 628.24 868.43 661.79 839.38 645.03 926.55 594.7 926.55 628.24"/><polygon class="cls-2" points="839.38 712.13 839.38 678.57 868.43 661.79 868.44 695.36 839.38 712.13"/><polygon class="cls-2" points="839.38 712.13 839.38 678.57 868.43 661.79 868.44 695.36 839.38 712.13"/><polygon class="cls-2" points="926.55 695.34 926.55 728.9 897.49 712.12 868.44 695.36 868.43 661.79 897.5 678.58 926.55 695.34"/><polygon class="cls-2" points="926.55 695.34 926.55 728.9 897.49 712.12 868.44 695.36 868.43 661.79 897.5 678.58 926.55 695.34"/><path class="cls-2" d="M897.49,779.22l29.06,16.79,116.23-67.1v-33.56s0-33.54,0-33.54v-33.56s0-33.54,0-33.54l-29.06-16.79-29.05-16.76-29.06-16.78-29.05-16.76-116.23,67.1v33.54s0,33.56,0,33.56v33.54s0,33.56,0,33.56l29.05,16.76,29.06,16.78,29.05,16.76Zm29.06-16.78l-29.05-16.76-29.06-16.78-29.05-16.76v-33.56s29.05-16.78,29.05-16.78l-29.05-16.76v-33.56s87.16-50.33,87.16-50.33l29.06,16.78,29.05,16.76,29.06,16.79v33.54s-29.06,16.78-29.06,16.78l29.06,16.78v33.54s-87.18,50.33-87.18,50.33Z"/><path class="cls-2" d="M897.49,779.22l29.06,16.79,116.23-67.1v-33.56s0-33.54,0-33.54v-33.56s0-33.54,0-33.54l-29.06-16.79-29.05-16.76-29.06-16.78-29.05-16.76-116.23,67.1v33.54s0,33.56,0,33.56v33.54s0,33.56,0,33.56l29.05,16.76,29.06,16.78,29.05,16.76Zm29.06-16.78l-29.05-16.76-29.06-16.78-29.05-16.76v-33.56s29.05-16.78,29.05-16.78l-29.05-16.76v-33.56s87.16-50.33,87.16-50.33l29.06,16.78,29.05,16.76,29.06,16.79v33.54s-29.06,16.78-29.06,16.78l29.06,16.78v33.54s-87.18,50.33-87.18,50.33Z"/></g></g></svg>