<?xml version="1.0" encoding="UTF-8"?><svg id="Layer_2" xmlns="http://www.w3.org/2000/svg" viewBox="0 0 945.22 784.99"><defs><style>.cls-1{fill:none;stroke:#fff;stroke-linecap:round;stroke-miterlimit:10;stroke-width:1.5px;}</style></defs><g id="Lines"><path class="cls-1" d="M118.01,138.29c-14.66-20-40.53-56.07-57.37-65.09,2.07,12.44,1.59,25.33-6.44,31.71-4.44,3.53-10.71,5.8-15.77,3.93-9.7-3.58-14.32-21.67-7.15-31.11,6.54-8.66,20.56-6.88,22.26-6.65,2.1-.06,4.49.7,7.09,2.12-1.46-8.93-4.23-17.61-6.44-23.47C45.53,26.69,25.68,9.04.75.75"/><path class="cls-1" d="M431.58,180.46c11.82.8,65.98,3.28,102.4-35.27,10.48-11.09,19.74-25.82,25.66-40.64-10.19,2.64-21.13,3.13-31.75-.73-2.44-.88-26.24-9.89-27.81-29.16-.97-11.97,7-23.13,16.27-28.48,14.26-8.24,34.33-4.26,43.41,6.09,9.92,11.34,8.06,31.87-.12,52.27,22.31-5.75,40.99-21.8,44.87-25.14,29.18-25.05,38.01-59.23,40.86-78.66"/><path class="cls-1" d="M944.47,8.5c-7.87,4.57-16.5,10.82-24.62,19.37-10.09,10.64-17.36,22.71-27.12,47.48-14.53,36.84-14.44,50.69-22.38,73.91-5.33,15.6-20.46,59.83-61.04,90.2-2.73,2.04-9.76,7.3-20.03,12.87-19.12,10.37-49.52,21.83-84.4,15.62-11.41-2.04-58.43-10.43-68.5-45.45-4.56-15.87-1.48-37.04,11.53-48.82,24.77-22.44,76.04-2.22,103.76,21.01,17.42,14.6,30.8,34.84,37.61,57.64,4.31,14.38,5.99,29.79,4.44,45.45-.13,1.25-1.97,17.52-9.69,36.39-7.38,18.03-20.1,38.46-41.86,50.41-63.05,34.68-164.82-22.13-219.72-80.69-39.98-42.65-37.04-66.95-99.69-132.25-42.72-44.51-67.09-57.19-91.55-62.39-8.46-1.79-54.76-11.62-93.01,14.74,4.57,2.73,9.13,5.95,13.66,9.69,28.24,24.68,42.51,69.23,26.45,102.4-17.7,34.87-53.15,51.02-75.95,14.92-20.5-32.04-8.39-90.26,28.48-121.39,2.41-2.03,4.86-3.9,7.36-5.62-52.56-31.32-106.95,1.48-128.75,27.31-50.77,56.61-26.58,149.79-9.49,215.65,5.78,28.52,38.15,123.32,96.32,166.96,17.18,12.89,36.63,21.32,58.29,22.25,30.01.61,52.94-16.05,81.38-37.3,3.62-2.7,6.9-5.26,9.91-7.7,29.1-23.59,32.6-35.73,60.62-48.58,12.62-5.78,31.92-14.35,56.97-12.2,2.76.24,57.98,5.72,70.53,44.08.97,2.94,6.26,20.04-2.03,36.61-12.56,25.12-46.3,29.04-59.01,30.52-45.69,5.32-81.57-18.79-103.07-33.23-8.12-5.45-16.36-10.98-24.01-17.2-14.32-11.61-26.6-25.59-32.29-45.87-1.65-5.9-8.52-30.44,2.73-53.57,20.94-43.09,87.23-45.29,98.32-45.45,9.06-.13,17.85.6,26.33,2.01,60.2,9.97,105.44,54.76,131.01,80.05,40.8,40.38,32.02,50.47,94.27,122.07,22.23,25.59,37.98,43.56,54.85,58.4,10.15,8.91,20.7,16.7,33.3,24.33,61.45,41.1,131.67,52.97,190.08,1.07"/><path class="cls-1" d="M196.26,533.48c.01.13.03.28.03.43,1.25,15.9,1.8,62.02-21.46,97.72-2.62,4.01-7.67,11.86-14.98,20.28-13.04,15.02-33.22,31.9-59.46,32.26-6.38.09-31.7.43-45.99-18.61-11.13-14.84-14.01-39.44-1.09-53.65,11.09-12.17,28.8-11.22,33.93-10.94,22.58.31,52.86,27.55,72.6,50.93,8.55,10.12,15.12,19.51,18.27,25.69,17.79,29.65,15.26,39.5,31.74,68.98,8.55,15.29,17.72,27.82,25.93,37.66"/><path class="cls-1" d="M772.33,784.24c-4.71-7.82-10.76-16.66-18.43-25.78-13.72-16.3-21.25-19.95-28.89-29.67-18.51-23.53-18.72-58.55-13.28-78.87,2.07-7.48,5.25-14.53,9.36-21.12,37.88-60.71,155.23-81.9,223.39-40.7"/><path class="cls-1" d="M481.59,560.45c1.12,6.23,3.89,21.2,9.19,38.86,43.47-4.71,93.01,18.64,106.93,51.38.8,1.91,9.88,23.95,0,35.14-10.85,12.29-37.67,3.78-42.17,2.35-35.02-11.12-54.55-54.96-64.76-88.87-12.59,1.34-24.66,5.05-35.21,11.55-19.07,11.77-28.09,29.55-30.46,34.36-12.62,25.69-8.18,50.14-3.11,78.1,2.7,14.92,8.08,36.4,19.74,60.92"/><path class="cls-1" d="M784.04,334.17c4.07-.31,19.27-.09,25.87,2.67,17.11,7.12,24.35,26.9,25.36,40.56,1.33,18-7.6,32.22-16.02,41.71-4.28,4.83-8.43,8.45-11.03,10.7-5.16,4.47-29.3,25.44-47.34,16.91-8.34-3.95-15.74-14.36-13.52-22.83,1.98-7.61,11.1-11.15,15.21-12.68,9.49-3.53,25.48-5.89,56.67,7.9,2.16.95,4.41,1.98,6.72,3.1,27.72,13.37,46.36,28.97,54.94,36.34,17.4,14.98,39.67,35.96,63.55,63.91"/><path class="cls-1" d="M344.62,112.97c-37.4,62.01,2.94,157.98,62.5,172.29.25-7.24,1.53-14.87,4.44-22.47,1.3-3.38,7.7-18.64,15.05-18.09,5.77.43,10.74,9.86,10.04,19.09-1.36,15.21-15.59,24.73-29.53,21.47-.79,22.47,8.36,41.13,9.46,43.3,2.86,5.63,2.67,3.71,13.05,20.58,4.34,7.06,8.12,13.52,11.34,19.15"/></g></svg>