<?xml version="1.0" encoding="UTF-8"?><svg id="Layer_2" xmlns="http://www.w3.org/2000/svg" viewBox="0 0 944.43 534.3"><defs><style>.cls-1,.cls-2,.cls-3,.cls-4,.cls-5,.cls-6,.cls-7,.cls-8,.cls-9,.cls-10{fill:none;}.cls-2,.cls-3,.cls-4,.cls-5,.cls-6,.cls-7,.cls-8,.cls-9,.cls-10{stroke-linecap:round;}.cls-2,.cls-4{stroke-linejoin:round;}.cls-2,.cls-4,.cls-5,.cls-8{stroke:#e69a60;}.cls-3{stroke-width:3px;}.cls-3,.cls-5,.cls-6,.cls-7,.cls-8,.cls-9,.cls-10{stroke-miterlimit:10;}.cls-3,.cls-7,.cls-9{stroke:#ca5f5b;}.cls-4,.cls-9,.cls-10{stroke-width:.75px;}.cls-6{opacity:.24;}.cls-6,.cls-10{stroke:#f5d360;}.cls-11{opacity:.87;}.cls-7,.cls-8{stroke-width:5px;}</style></defs><g id="Lines"><g><rect class="cls-1" x=".5" y="1.5" width="942.43" height="530.3"/><path class="cls-3" d="M215.84,1.5c9.72,4.5,21.03,11.5,29.44,22.17,3.88,4.91,8.67,11.16,7.53,18.29-1.09,6.83-6.65,8.43-7.53,15.6-.48,3.86,.82,5.97,6.45,17.22,9.83,19.6,10.74,22.84,9.69,26.36-1.45,4.83-6.42,9.51-11.84,10.22-10.28,1.34-13.63-12.73-28.51-15.6-7.24-1.4-17.65-.23-22.06,5.91-5.64,7.86,3.96,16.27-.54,26.9-5.22,12.35-21.32,8.55-27.43,20.99-5.65,11.48,2.48,26.11,5.91,32.27,2.08,3.74,10.66,19.17,26.9,23.68,12.01,3.33,16.6-2.52,24.75,2.15,10.79,6.18,7.37,19.09,16.14,23.67,9.59,5,28.04-2.94,37.12-16.14,12.48-18.14-1.99-32.74,7.53-64.02,2.91-9.55,10.14-33.3,26.36-37.66,20.45-5.5,35.06,25.19,58.11,19.91,16.01-3.67,24.33-22.01,25.82-25.29,11.35-25.01-5.76-42.01,.54-70.48,2.07-9.34,7.15-22.17,20.98-36.15"/><path class="cls-2" d="M.5,150.52c23.13,2.37,34.75,27.56,34.03,39.63,.19,10.02-1.9,12.04-2.49,22.73-.17,3.08-1.31,10.12,7.46,19.53,14.56,15.62,17.69,19.81,19.53,30.54,.33,1.97,3.48,21.96-8.17,35.51-5.42,6.3-11.01,7.68-12.78,14.91-.93,8.61,5.01,26.46-4.62,34.45-5.09,3.88-9.79-.26-15.62,4.26-4.91,5.22-10.07,16.87-17.34,17.46"/><path class="cls-5" d="M.5,302c6.53-1.19,12.05-1.35,16.17-1.22,4.24,.14,7.89,.25,12.42,1.65,2.34,.73,5.55,1.99,10.96,6.23,2.47,1.92,5.4,4.46,8.91,7.85,10.3,9.94,15.44,14.91,19.87,23.19,5.83,10.87,3.17,13.53,9.11,22.35,2.58,3.82,9.34,13.85,19.88,15.74,4.12,.74,10.82,.59,25.67-9.94,19.58-13.89,19.52-21.87,37.26-36.43,17.62-15.92,34.46-21.96,51.78-18.15,6.39,1.39,12.84,4.13,19.43,8.21,6.79,4.27,11.95,9.45,16.16,15.31,6.5,9.02,10.75,19.65,15.31,31.06,11.72,26.65,13.15,56.35,4.14,85.29-4.52,16.76-8.64,22.76-15.74,40.57-3.75,9.43-8.35,22.21-12.66,38.09"/><path class="cls-7" d="M96.28,531.8c13.12-15.2,19.89-35.2,20.58-51.34,.55-6.65-.19-15.19-1.65-32.29-.08-.91-.15-1.77-.23-2.61-1.39-15.35-2.35-19.26-1.43-28.03,1.08-10.3,2.13-19.05,9.11-25.67,8.42-7.98,19.81-7.5,20.7-7.45,5.13,.29,8.73,2.03,28.15,14.91,15.32,10.15,19,12.33,24.19,12.42,1.19,0,2.45-.06,5.75-1.34,3.5-1.35,8.17-4.05,13.95-9.43,9.76-9.08,16.5-20.02,25.67-43.88,3.4-8.86,5.47-15.16,7.05-20.3,3.15-10.33,4.33-16.01,10.34-28.56,12.14-25.35,21.04-30.67,24.01-32.29,1.3-.71,16.78-8.83,33.95-3.32,8.27,2.66,14.62,9.23,27.33,22.36,3.48,3.6,7.01,7.25,10.67,11.45,3.74,4.28,7.6,9.12,11.68,15.05,5.35,7.77,13.85,20.3,19.88,38.09,3.73,11.02,3.19,14.24,5.94,24.86,5.29-1.65,10.95-2.23,16.42-1.68,1.09,.12,18.74,2.2,28.98,17.39,1.65,2.46,11.42,16.96,4.97,26.5-3.56,5.25-10.64,6.95-15.74,6.63-7.95-.51-13.12-6.05-17.39-10.77-6.66-7.36-10.15-15.2-14.07-27.32-1.41-4.35-2.41-7.83-3.17-10.75-6.86,2.12-13.11,6.03-17.53,11.57-8.54,10.68-7.46,23.81-5.8,43.89,.85,10.28,2.38,16.57,3.69,21.95,1.57,6.54,2.82,11.74,2.11,21.11-.93,22.4-11.35,38.47-25.12,48.85"/><path class="cls-5" d="M814.78,1.5c3.22,11.21,2.55,23.54-1.53,32.65-1.83,4.28-7.28,17.06-19.04,21.53-11.36,4.31-16.55-3.69-33.95-3.32-4.58,.19-9.18,.87-13.69,2.04-20.51,5.3-39.14,20.72-45.93,46.82,0,0-.09,.39-.22,1.13-.31,1.85-.85,5.85-.73,11.25,3.7,1.5,6.86,3.5,9.23,5.01,8.07,5.13,12.21,11.49,14.9,15.73,3.54,5.57,6.5,10.38,5.8,16.56-.49,4.25-2.82,8.16-6.63,8.77-1.33,.21-4.2,1.99-9.1-4.63-11.35-15.33-13.99-31-14.2-41.44-4.31-1.76-9.37-2.83-14.79-1.62-9.14,2.04-14.38,9.46-18.21,14.91-7.59,10.76-5.05,15.53-11.6,28.15-5.1,9.85-11.18,15.68-19.87,24.01-10.17,9.76-17.2,16.51-28.98,19.88-8.87,2.37-17.69,2.68-26.21,.36-4.61-1.25-9.14-3.27-13.54-6.16-9.96-7.01-14.23-19.39-22.35-43.89-3.92-11.78-4.57-16.12-9.11-24.01-1.41-2.44-2.98-5.15-4.99-7.9h-.01c-2.78-3.83-6.41-7.74-11.56-11.14-3.24-2.15-11.04-7.16-21.53-7.46-12.22-.34-14.99,6.08-26.5,5.8-.8-.02-12.43-.45-21.53-8.28-15.77-13.56-12.95-39.82-12.42-44.72,1.23-11.44,4.97-17.77,4.97-34.77,.37-5.5-.23-10.58-1.57-15.26"/><g class="cls-11"><path class="cls-6" d="M32.21,1.5c1.37,1.18,2.82,2.41,4.33,3.66,20.04,16.57,26.32,16.74,36.44,27.33,12.88,13.49,17.59,28.82,20.7,38.92,4.04,13.12,2.74,17.14,4.49,30.02h0c.45,3.37,1.11,7.33,2.13,12.21,3.87,18.56,6.48,31.08,14.91,43.89,8.75,13.31,14.83,13.3,33.95,30.63,6.3,5.72,23.31,21.31,36.43,41.41,17.19,27.34,24.89,56.09,26.94,83.7,1.86,24.98-.89,49.04-5.41,70.31-2.03,10.71-3.72,19.51-5.67,26.82-3.43,12.89-7.65,21.13-15.86,27.01-15.11,10.81-37.65,10.23-48.86,9.93-8.56-.23-14.18-1.36-21.75-1.78-3.88-.22-8.28-.25-13.85,.13-8.14,.55-16.68,1.12-25.67,4.14-20.27,6.79-31.75,22.26-44.72,39.74-6.89,9.3-16.06,23.35-24.01,42.23"/><path class="cls-6" d="M563.01,531.8c19.32-38.41,33.29-85.35,28.86-135.07-.96-10.62-2.75-21.37-5.5-32.19-5.03-17.67-15.21-41.89-19.88-53-6.49-15.45-9.25-20.56-10.76-30.64-.57-3.8-2.51-18.64,4.14-41.4,5.06-17.34,10.15-22.26,20.16-40.21,2.59-4.63,5.5-10.12,8.82-16.92,10.55-21.58,15.84-32.62,16.56-44.72,.91-15.28-3.3-27.91-8.9-40.83-1.38-3.19-2.85-6.41-4.35-9.68-11.92-25.78-36.15-58.14-67.61-85.64"/><path class="cls-6" d="M720.9,1.5c1.3,13.99,5.2,24.12,8.72,30.99,3.1,6.08,5.79,9.37,16.95,21.91,3.59,4.03,8.05,9.01,13.69,15.35,14.79,17,26.95,29.93,36.67,43.24h0c8.8,12.07,15.58,24.43,20.46,40.39,3.55,12.74,7.8,28.02,1.66,43.89-3.52,9.1-7.08,9.65-16.56,26.5-2.77,4.92-5.4,9.58-7.69,14.39-2.22,4.61-4.12,9.37-5.56,14.59-4.25,15.43,.25,18.15,0,48.03-.22,26.21-3.75,31.5,1.65,42.23,5.48,10.86,14.75,16.67,19.88,19.87,7.65,4.79,19.87,12.44,33.95,9.11,3.39-.8,6.39-2.12,9.05-3.75-3.47-6.77-6.37-15.52-9.88-26.06-3.93-10.89-14.01-53.1-1.66-60.45,6.75-3.69,19.01,3.82,25.67,11.6,13.34,15.55,10.81,39.72,2.49,55.47-2.16,4.08-7.23,13.68-16.62,19.44,3.65,7.12,7.91,12.04,14.13,14.51,6.89,2.74,17.14,2.87,24.02-2.48,3.41-2.66,11.36-10.83,4.96-55.48-4.79-33.5-11.97-47.74-13.14-65.29-.33-5.1-.16-10.48,.72-16.69,.89-6.25,4.57-32.12,16.56-34.77,11.07-2.45,24.68,15.87,38.09,33.95,1.33,1.8,2.61,3.57,3.82,5.31"/></g><path class="cls-3" d="M852.06,1.5c5.47,4.05,10.05,9.68,12.53,16.91,4.43,12.84-2.46,18.05-.83,35.61,.99,15.25,8.09,29.43,22.36,39.75,11.51,9.08,15.26,7.07,22.36,14.07,2.65,2.62,4.69,5.43,6.31,8.31,3.07,5.47,4.66,11.23,6.11,16.53,4.35,15.87,.35,20.62,4.14,30.64,2.18,5.75,6.84,13.04,17.89,19.83"/><path class="cls-10" d="M.5,128.61c8.24-10.34,22.12-24.48,35.21-26.56,7.82-.88,12.63,2.95,21.53,6.62,10.09,4.16,17.75,7.31,24.84,5.8,6.67-1.42,11.99-6.78,16.09-13.03h0c6.47-9.92,9.81-22.06,10.41-24.24,4.59-16.67,1.33-26.17,9.11-31.46,3.25-2.22,8.52-2.86,19.04-4.14,11.85-1.45,13.81-.19,17.39-2.49,8.49-5.43,8.32-19.42,8.28-22.35-.07-5.82-1.54-10.96-3.51-15.26"/><path class="cls-8" d="M682.75,531.8c.23-1.71,.74-3.06,1.33-4.14,1.9-3.51,5.1-4.91,4.96-8.28-.11-2.96-2.72-5.19-3.33-5.72-3.01-2.57-5.14-1.4-7.15-3.34-2.36-2.26-1.35-5.66-1.44-11.91-.05-3.81-.12-9.31-1.9-13.83-1.7-4.33-4.07-5.5-16.69-15.73-7.29-5.92-10.95-8.91-11.92-10.49-4.48-7.37-5.29-19.47,.48-27.18,6.56-8.77,16.21-4.59,23.36-14.3,2.72-3.7,3.92-7.83,4.56-11.73,.34-2.07,.51-4.07,.68-5.91,1.08-11.99-3.15-15.66,0-22.41,3.38-7.23,11.42-9.86,13.35-10.49,12.37-4.04,23.33,3.38,25.27,4.77,7.24,5.14,10.14,12.12,13.83,20.98,3.86,9.28,1.48,11.2,4.77,16.21,5.25,8.01,15.97,11.9,24.79,11.92,12.47,.02,22.77-7.68,30.99-13.83,9.62-7.2,13.55-13.22,21.93-13.35,1.41-.02,7.38-.11,10.97,3.81,3.32,3.64,1.56,7.38,3.81,18.6,1.21,6.05,1.82,9.07,3.81,12.39,3.24,5.38,8.06,8.38,12.17,10.33,1.08-3.51,2.79-7.05,5.47-10.33,1.7-2.06,8.9-10.85,18.12-9.53,15.94,3,12.84,18.41,0,24.31-6.64,2.81-13.09,.07-20.02-2.86-1.07-.46-2.29-.97-3.57-1.59-1.97,6.41-1.83,12.75-1.68,17.33,.28,30.42,15.56,53.5,51.49,46.24,10.91-2.13,13.9-6.37,21.46-4.77,8.67,1.85,15.4,9.71,18.12,17.65,2.27,6.63,1.53,12.73,.22,17.18"/><path class="cls-9" d="M750.36,531.8c-1.81-13.05-5.8-30.35-14.95-48.85-6.14-12.43-13.2-21.54-27.32-39.75-13.73-17.71-22.63-29.07-33.08-38.05-3.84-3.31-7.88-6.29-12.46-9.15-10.86-6.79-20.87-13.05-34.78-13.25-4.47-.06-14.55,.43-35.9,13.98-2.75,1.74-5.69,3.7-8.82,5.9-23.57,16.57-24.48,23.05-48.85,42.23-18.05,14.2-29.25,23.01-47.2,29.81-39.22,14.28-78.84,9.77-105.99-6.63-3.13-1.95-6.04-4.03-8.73-6.2-19.19-15.45-27.71-35.59-33.5-49.28-5.4-12.76-13.14-31.66-10.77-56.3,.93-9.58,2.35-24.37,12.43-38.09,1.48-2.02,4.21-5.46,13.98-11.74,6.4-4.12,15.82-9.46,29.9-16.42,28.82-14.24,33.38-13.65,45.54-23.18,16.2-12.69,24.69-26.74,26.5-29.81,10.82-18.38,7.78-26.9,17.39-53.83,6.97-19.53,11.07-31.01,20.7-42.23,9.44-10.99,20.71-17.67,35.58-23.63h.01c9.25-3.71,19.87-7.13,32.31-11.14,16.03-5.17,26.24-7.18,34.16-9.37,7.98-2.21,13.61-4.58,20.49-10.51,14.69-12.64,20.23-28.69,23.19-37.26,6.22-18.02,6.34-34.81,4.8-47.55"/><path class="cls-4" d="M912.32,1.5c-1.71,2.28-3.32,4.87-4.67,7.8-4.38,9.47-3.99,17.79-3.31,32.3,.45,9.72,1.95,18.35,4.97,35.6,2.34,13.43,2.5,12.15,3.31,18.22,1.1,8.25,2,15,2.17,20.73,.24,7.84-.87,13.77-4.66,19.02-10.32,13.5-27.55,14.48-39.74,1.65-6.9-6.91-5.35-11.85-10.77-18.21-7.45-8.75-19.31-9.91-28.15-10.77-3.44-.33-18.36-1.78-34.54,5.15h0c-5.59,2.4-11.33,5.8-16.8,10.59-35.41,33.09-25.64,84.4,3.31,107.64,3.71,2.95,7.32,5.1,11.36,6.94,5.66,2.57,12.15,4.51,20.94,7.14,26.45,7.92,35.89,3.82,56.3,9.94,4.08,1.24,7.98,2.67,11.7,4.26,30.1,12.8,48.6,36.06,59.19,59.43"/></g></g></svg>