<!--?xml version="1.0" encoding="UTF-8"?--><svg id="Layer_2" xmlns="http://www.w3.org/2000/svg" viewBox="0 0 946.91 536.59" style=""><defs><style>.cls-1{stroke-width:3.09px;}.cls-1,.cls-2,.cls-3,.cls-4,.cls-5{fill:none;stroke-linecap:round;stroke-miterlimit:10;}.cls-1,.cls-4{stroke:#2b3a58;}.cls-2,.cls-3,.cls-4{stroke-width:1.03px;}.cls-2,.cls-5{stroke:#ca5f5b;}.cls-3{stroke:#714ab9;}.cls-5{stroke-width:6.17px;}</style></defs><g id="Lines"><g><path class="cls-2 lsIdHEII_0" d="M3.09,414.21c10.75-12.69,22.27-27.74,33.59-45.22,29.08-45.82,52.17-101.94,65.07-143.77,6.06-20.71,6.37-28.66,16.59-46,24.43-41.47,77.61-89.25,134.55-88.55,35.54,.43,72.09,30.57,143.76,90.85,76.86,64.65,97.04,96.23,141.46,96.61,39.36,.34,73.7-24.01,77.05-26.45,36.9-26.81,32.78-53.81,62.1-66.7,36.34-15.64,88.68,4.25,112.36,36.94,12.15,17.97,13.53,41.4,31.4,109.11,16.78,63.61,25.17,95.4,40.25,119.61,19.63,29.64,38.8,49.78,82.56,74.43"></path><path class="cls-2 lsIdHEII_1" d="M3.09,138.71c6.21,11.33,13.42,20.13,10.59,31.3-1.15,4.55-4.03,9.68-10.59,14.75"></path><path class="cls-5 lsIdHEII_2" d="M3.09,83.03C29.67,40.33,57.26,37.88,114.88,30.86c49.53-5.61,59,1.52,90.86-5.74,21.58-4.93,39.71-13.33,54.18-22.04"></path><path class="cls-1 lsIdHEII_3" d="M383.36,3.09c4.76,12.02,11.56,25.55,21.34,39.28,24.54,37.22,66.7,78.17,124.16,54.43,42.18-18.66,61.52-50.15,67.98-93.71"></path><path class="cls-3 lsIdHEII_4" d="M485.94,3.09c2.39,16.53,7.31,34.71,16.5,53.08,10.79,22.21,23.67,45.19,48.31,55.2,22.7,9.61,54.58,9.7,74.75-6.9,18.96-15.61,12.78-33.8,31.06-52.9,21.9-22.9,55.4-23.07,63.25-23,40.3,.39,72.15,27.77,100.05,51.76,19.23,16.52,23.51,24.63,43.7,36.8,19.01,12.38,48.72,24.72,80.26,20.24"></path><path class="cls-1 lsIdHEII_5" d="M864.81,533.5c-1.67-53.96,22.5-127.5,55.11-147.27,7.94-4.94,16.12-7.95,23.91-9.71"></path><path class="cls-5 lsIdHEII_6" d="M671.14,533.5c-3.52-41.44-3.2-76.29-1.93-102.42,1.93-40.04,3.2-62.7,12.65-92,9.44-29.27,21.41-66.35,57.51-93.15,70.48-52.24,164.8-30.88,204.46,58.54"></path><path class="cls-3 lsIdHEII_7" d="M338.8,533.5c25.94-37,43.38-51.28,69.74-73.45,39.28-34.41,83.72-30.59,116.91-11.72,12.33,6.85,19.34,13.92,27.7,23.53,6.96,7.98,14.84,17.7,27.5,30.52,12.38,12.55,24.21,22.87,34.49,31.12"></path><path class="cls-1 lsIdHEII_8" d="M3.09,472.34c25.66,11.47,50.73,37.29,61.55,61.16"></path><path class="cls-4 lsIdHEII_9" d="M126.31,533.5c34.37-66.16,115.91-185.56,150.73-182.92,34.91-3.48,65.79,22.24,73.6,28.75,16.36,13.62,16.76,21.25,42.55,58.65,19.29,28.18,47.17,70.05,67.86,74.76,34.23,11.47,82.19-3.49,92.1-40.88,11.75-39.72-11.4-97.4-47.25-127.03-37.24-30.76-90.41-33.09-174.81-36.8-30.59-1.35-54.06-.23-87.4-11.5-14.43-4.89-20.18-8.53-71.3-35.66-40.54-21.51-59.66-31.27-70.64-35.66-23.69-9.9-59.45,.1-98.66,56.72"></path></g></g><style data-made-with="vivus-instant">.lsIdHEII_0{stroke-dasharray:1434 1436;stroke-dashoffset:1435;animation:lsIdHEII_draw_0 24200ms ease-in-out 0ms infinite,lsIdHEII_fade 24200ms linear 0ms infinite;}.lsIdHEII_1{stroke-dasharray:53 55;stroke-dashoffset:54;animation:lsIdHEII_draw_1 24200ms ease-in-out 0ms infinite,lsIdHEII_fade 24200ms linear 0ms infinite;}.lsIdHEII_2{stroke-dasharray:280 282;stroke-dashoffset:281;animation:lsIdHEII_draw_2 24200ms ease-in-out 0ms infinite,lsIdHEII_fade 24200ms linear 0ms infinite;}.lsIdHEII_3{stroke-dasharray:316 318;stroke-dashoffset:317;animation:lsIdHEII_draw_3 24200ms ease-in-out 0ms infinite,lsIdHEII_fade 24200ms linear 0ms infinite;}.lsIdHEII_4{stroke-dasharray:598 600;stroke-dashoffset:599;animation:lsIdHEII_draw_4 24200ms ease-in-out 0ms infinite,lsIdHEII_fade 24200ms linear 0ms infinite;}.lsIdHEII_5{stroke-dasharray:189 191;stroke-dashoffset:190;animation:lsIdHEII_draw_5 24200ms ease-in-out 0ms infinite,lsIdHEII_fade 24200ms linear 0ms infinite;}.lsIdHEII_6{stroke-dasharray:555 557;stroke-dashoffset:556;animation:lsIdHEII_draw_6 24200ms ease-in-out 0ms infinite,lsIdHEII_fade 24200ms linear 0ms infinite;}.lsIdHEII_7{stroke-dasharray:352 354;stroke-dashoffset:353;animation:lsIdHEII_draw_7 24200ms ease-in-out 0ms infinite,lsIdHEII_fade 24200ms linear 0ms infinite;}.lsIdHEII_8{stroke-dasharray:89 91;stroke-dashoffset:90;animation:lsIdHEII_draw_8 24200ms ease-in-out 0ms infinite,lsIdHEII_fade 24200ms linear 0ms infinite;}.lsIdHEII_9{stroke-dasharray:1305 1307;stroke-dashoffset:1306;animation:lsIdHEII_draw_9 24200ms ease-in-out 0ms infinite,lsIdHEII_fade 24200ms linear 0ms infinite;}@keyframes lsIdHEII_draw{100%{stroke-dashoffset:0;}}@keyframes lsIdHEII_fade{0%{stroke-opacity:1;}98.34710743801652%{stroke-opacity:1;}100%{stroke-opacity:0;}}@keyframes lsIdHEII_draw_0{3.3057851239669422%{stroke-dashoffset: 1435}44.62809917355372%{ stroke-dashoffset: 0;}100%{ stroke-dashoffset: 0;}}@keyframes lsIdHEII_draw_1{5.601469237832875%{stroke-dashoffset: 54}46.923783287419646%{ stroke-dashoffset: 0;}100%{ stroke-dashoffset: 0;}}@keyframes lsIdHEII_draw_2{7.897153351698806%{stroke-dashoffset: 281}49.219467401285584%{ stroke-dashoffset: 0;}100%{ stroke-dashoffset: 0;}}@keyframes lsIdHEII_draw_3{10.192837465564738%{stroke-dashoffset: 317}51.515151515151516%{ stroke-dashoffset: 0;}100%{ stroke-dashoffset: 0;}}@keyframes lsIdHEII_draw_4{12.48852157943067%{stroke-dashoffset: 599}53.81083562901745%{ stroke-dashoffset: 0;}100%{ stroke-dashoffset: 0;}}@keyframes lsIdHEII_draw_5{14.784205693296604%{stroke-dashoffset: 190}56.10651974288338%{ stroke-dashoffset: 0;}100%{ stroke-dashoffset: 0;}}@keyframes lsIdHEII_draw_6{17.079889807162534%{stroke-dashoffset: 556}58.4022038567493%{ stroke-dashoffset: 0;}100%{ stroke-dashoffset: 0;}}@keyframes lsIdHEII_draw_7{19.375573921028465%{stroke-dashoffset: 353}60.69788797061524%{ stroke-dashoffset: 0;}100%{ stroke-dashoffset: 0;}}@keyframes lsIdHEII_draw_8{21.671258034894397%{stroke-dashoffset: 90}62.99357208448117%{ stroke-dashoffset: 0;}100%{ stroke-dashoffset: 0;}}@keyframes lsIdHEII_draw_9{23.96694214876033%{stroke-dashoffset: 1306}65.28925619834712%{ stroke-dashoffset: 0;}100%{ stroke-dashoffset: 0;}}</style></svg>