<?xml version="1.0" encoding="UTF-8"?><svg id="Layer_2" xmlns="http://www.w3.org/2000/svg" viewBox="0 0 927.61 845.09"><defs><style>.cls-1{fill:none;stroke:#5a319f;stroke-miterlimit:10;}</style></defs><g id="Grids"><g><line class="cls-1" x1="927.11" y1=".5" x2=".5" y2=".5"/><line class="cls-1" x1="927.11" y1="169.18" x2=".5" y2="169.18"/><line class="cls-1" x1="927.11" y1="337.86" x2=".5" y2="337.86"/><line class="cls-1" x1="927.11" y1="506.54" x2=".5" y2="506.54"/><line class="cls-1" x1="927.11" y1="675.22" x2=".5" y2="675.22"/><line class="cls-1" x1="927.11" y1="843.9" x2=".5" y2="843.9"/><line class="cls-1" x1="927.11" y1=".5" x2="927.11" y2="843.9"/><line class="cls-1" x1="843.35" y1="506.54" x2="843.35" y2="675.22"/><line class="cls-1" x1="759.6" y1="506.54" x2="759.6" y2="843.9"/><line class="cls-1" x1="588.89" y1="506.54" x2="588.89" y2="843.9"/><line class="cls-1" x1="421.93" y1="675.22" x2="421.93" y2="843.9"/><line class="cls-1" x1="506.74" y1="506.54" x2="506.74" y2="675.22"/><line class="cls-1" x1="336.35" y1="337.86" x2="336.35" y2="506.54"/><line class="cls-1" x1="84.09" y1="169.18" x2="84.09" y2="337.86"/><line class="cls-1" x1="168.42" y1="169.18" x2="168.42" y2="337.86"/><line class="cls-1" x1="421.93" y1="169.18" x2="421.93" y2="337.86"/><line class="cls-1" x1="449.75" y1="169.18" x2="449.75" y2="337.86"/><line class="cls-1" x1="477.58" y1="169.18" x2="477.58" y2="337.86"/><line class="cls-1" x1="505.41" y1=".5" x2="505.41" y2="337.86"/><line class="cls-1" x1="533.24" y1="169.18" x2="533.24" y2="337.86"/><line class="cls-1" x1="561.07" y1="169.18" x2="561.07" y2="337.86"/><line class="cls-1" x1="588.89" y1="169.18" x2="588.89" y2="337.86"/><line class="cls-1" x1="672.38" y1="2.05" x2="672.38" y2="170.73"/><line class="cls-1" x1=".5" y1=".5" x2=".5" y2="843.9"/><line class="cls-1" x1="843.35" y1="636.55" x2="588.89" y2="636.55"/><line class="cls-1" x1="760.53" y1="702.97" x2="588.89" y2="702.97"/><line class="cls-1" x1="760.53" y1="730.86" x2="588.89" y2="730.86"/><line class="cls-1" x1="760.53" y1="758.74" x2="588.89" y2="758.74"/><line class="cls-1" x1="760.53" y1="786.63" x2="588.89" y2="786.63"/><line class="cls-1" x1="760.53" y1="814.52" x2="588.89" y2="814.52"/><line class="cls-1" x1="588.89" y1="590.88" x2="253.33" y2="590.88"/><circle class="cls-1" cx="505.41" cy="84.88" r="83.48"/><circle class="cls-1" cx="801" cy="295.26" r="41.74"/><circle class="cls-1" cx="801.43" cy="632.62" r="41.74"/><path class="cls-1" d="M756.91,169.85c92.79,0,168.01,75.22,168.01,168.01s-75.22,168.01-168.01,168.01"/><path class="cls-1" d="M.08,507.21c92.79,0,168.01,75.22,168.01,168.01S92.88,843.24,.08,843.24"/><path class="cls-1" d="M.08,591.21c46.4,0,84.01,37.61,84.01,84.01S46.48,759.23,.08,759.23"/><path class="cls-1" d="M168.1,170.59c45.8,0,82.93,37.13,82.93,82.93s-37.13,82.93-82.93,82.93"/><path class="cls-1" d="M219.93,.5C173.82,88.13,94,150.71,.5,165.71"/><path class="cls-1" d="M421.93,675.19c-46.56,0-84.31-37.75-84.31-84.31s37.75-84.31,84.31-84.31"/><path class="cls-1" d="M421.72,844.59c0-93.33,75.65-168.98,168.98-168.98s168.98,75.65,168.98,168.98"/><path class="cls-1" d="M588.89,507.61c0,45.38-36.78,82.16-82.16,82.16"/><line class="cls-1" x1="449.75" y1="22.66" x2="251.03" y2="22.66"/><line class="cls-1" x1="251.03" y1="52.98" x2="428.24" y2="52.98"/><line class="cls-1" x1="251.03" y1="83.3" x2="421.95" y2="83.3"/><line class="cls-1" x1="251.03" y1="113.62" x2="427" y2="113.62"/><line class="cls-1" x1="251.03" y1="143.94" x2="446.4" y2="143.94"/><circle class="cls-1" cx="566.35" cy="613.42" r="22.54"/><circle class="cls-1" cx="547.82" cy="803.51" r="41.08"/></g></g></svg>