<?xml version="1.0" encoding="UTF-8"?><svg id="Layer_2" xmlns="http://www.w3.org/2000/svg" viewBox="0 0 918.78 735.39"><defs><style>.cls-1{fill:none;stroke:#714ab9;stroke-miterlimit:10;stroke-width:1.86px;}</style></defs><g id="Grids"><g><rect class="cls-1" x=".93" y=".94" width="183.39" height="183.37"/><g><path class="cls-1" d="m28.87,184.31C28.87,98.6,98.61,28.86,184.32,28.86"/><path class="cls-1" d="m60.47,184.31c0-68.29,55.56-123.85,123.85-123.85"/><path class="cls-1" d="m92.05,184.31c0-50.86,41.39-92.25,92.27-92.25"/><path class="cls-1" d="m123.65,184.31c0-33.46,27.21-60.67,60.67-60.67"/><path class="cls-1" d="m155.25,184.31c0-16.05,13.02-29.07,29.07-29.07"/></g><g><path class="cls-1" d="m212.28,734.46c.63-85.17,70.11-154.26,155.43-154.26"/><path class="cls-1" d="m243.87,734.46c.63-67.75,55.93-122.66,123.83-122.66"/><path class="cls-1" d="m275.46,734.46c.63-50.32,41.76-91.06,92.25-91.06"/><path class="cls-1" d="m307.05,734.46c.63-32.92,27.59-59.48,60.65-59.48"/><path class="cls-1" d="m338.67,734.46c.61-15.49,13.38-27.88,29.04-27.88"/></g><g><path class="cls-1" d="m762.4,367.7c0-85.71,69.74-155.45,155.45-155.45"/><path class="cls-1" d="m794,367.7c0-68.29,55.56-123.85,123.85-123.85"/><path class="cls-1" d="m825.58,367.7c0-50.86,41.39-92.25,92.27-92.25"/><path class="cls-1" d="m857.18,367.7c0-33.46,27.21-60.67,60.67-60.67"/><path class="cls-1" d="m888.78,367.7c0-16.05,13.02-29.07,29.07-29.07"/></g><g><path class="cls-1" d="m155.25,184.31c0,85.34-69.12,154.84-154.32,155.43"/><path class="cls-1" d="m123.65,184.31c0,67.92-54.95,123.24-122.72,123.83"/><line class="cls-1" x1="92.05" y1="184.31" x2="92.07" y2="184.31"/><path class="cls-1" d="m.93,276.54c50.36-.59,91.14-41.74,91.14-92.23h-.02"/><path class="cls-1" d="m.93,244.96c32.94-.59,59.54-27.57,59.54-60.65"/><path class="cls-1" d="m28.87,184.31c0,15.68-12.41,28.46-27.94,29.04"/></g><rect class="cls-1" x="184.32" y=".93" width="183.38" height="183.38"/><rect class="cls-1" x="367.7" y=".93" width="183.38" height="183.38"/><rect class="cls-1" x="551.09" y=".93" width="183.38" height="183.38"/><rect class="cls-1" x="734.47" y=".93" width="183.38" height="183.38"/><rect class="cls-1" x=".93" y="184.31" width="183.39" height="183.39"/><rect class="cls-1" x="184.32" y="184.31" width="183.38" height="183.38"/><rect class="cls-1" x="367.7" y="184.31" width="183.38" height="183.38"/><rect class="cls-1" x="551.09" y="184.31" width="183.38" height="183.38"/><rect class="cls-1" x="734.47" y="184.31" width="183.38" height="183.38"/><rect class="cls-1" x=".93" y="367.7" width="183.38" height="183.38"/><rect class="cls-1" x="184.32" y="367.7" width="183.38" height="183.38"/><rect class="cls-1" x="367.7" y="367.7" width="183.38" height="183.38"/><rect class="cls-1" x="734.47" y="367.7" width="183.38" height="183.38"/><rect class="cls-1" x=".93" y="551.08" width="183.38" height="183.38"/><rect class="cls-1" x="184.32" y="551.08" width="183.38" height="183.38"/><rect class="cls-1" x="367.7" y="551.08" width="183.38" height="183.38"/><rect class="cls-1" x="551.09" y="551.08" width="183.38" height="183.38"/><rect class="cls-1" x="734.47" y="551.08" width="183.38" height="183.38"/><line class="cls-1" x1="276.3" y1="184.32" x2="276.3" y2="367.69"/><line class="cls-1" x1="826.16" y1=".93" x2="826.16" y2="184.31"/><line class="cls-1" x1="825.58" y1="367.7" x2="825.58" y2="551.08"/><line class="cls-1" x1="276.3" y1="367.7" x2="276.3" y2="551.08"/><g><line class="cls-1" x1="215.44" y1=".93" x2="215.44" y2="184.31"/><line class="cls-1" x1="245.87" y1=".93" x2="245.87" y2="184.31"/><line class="cls-1" x1="276.3" y1=".93" x2="276.3" y2="184.31"/><line class="cls-1" x1="306.72" y1=".93" x2="306.72" y2="184.31"/><line class="cls-1" x1="337.15" y1=".93" x2="337.15" y2="184.31"/></g><g><line class="cls-1" x1="31.77" y1="551.08" x2="31.77" y2="734.46"/><line class="cls-1" x1="62.2" y1="551.08" x2="62.2" y2="734.46"/><line class="cls-1" x1="92.63" y1="551.08" x2="92.63" y2="734.46"/><line class="cls-1" x1="123.05" y1="551.08" x2="123.05" y2="734.46"/><line class="cls-1" x1="153.48" y1="551.08" x2="153.48" y2="734.46"/></g><g><line class="cls-1" x1="581.92" y1="184.32" x2="581.92" y2="367.69"/><line class="cls-1" x1="612.35" y1="184.32" x2="612.35" y2="367.69"/><line class="cls-1" x1="642.78" y1="184.32" x2="642.78" y2="367.69"/><line class="cls-1" x1="673.21" y1="184.32" x2="673.21" y2="367.69"/><line class="cls-1" x1="703.63" y1="184.32" x2="703.63" y2="367.69"/></g><g><line class="cls-1" x1="917.85" y1="581.92" x2="734.47" y2="581.92"/><line class="cls-1" x1="917.85" y1="612.34" x2="734.47" y2="612.34"/><line class="cls-1" x1="917.85" y1="642.77" x2="734.47" y2="642.77"/><line class="cls-1" x1="917.85" y1="673.2" x2="734.47" y2="673.2"/><line class="cls-1" x1="917.85" y1="703.63" x2="734.47" y2="703.63"/></g><line class="cls-1" x1="551.08" y1="395.63" x2="367.71" y2="395.63"/><line class="cls-1" x1="551.08" y1="427.23" x2="367.71" y2="427.23"/><line class="cls-1" x1="551.08" y1="458.82" x2="367.71" y2="458.82"/><line class="cls-1" x1="551.08" y1="490.41" x2="367.71" y2="490.41"/><line class="cls-1" x1="551.08" y1="522.01" x2="367.7" y2="522.01"/><g><path class="cls-1" d="m551.09,156.38c-85.71,0-155.45-69.74-155.45-155.45"/><path class="cls-1" d="m551.09,124.78c-68.29,0-123.85-55.56-123.85-123.85"/><path class="cls-1" d="m551.09,93.2c-50.86,0-92.25-41.39-92.25-92.27"/><path class="cls-1" d="m551.09,61.6c-33.46,0-60.67-27.21-60.67-60.67"/><path class="cls-1" d="m551.09,30c-16.05,0-29.07-13.02-29.07-29.07"/></g><g><path class="cls-1" d="m551.09,395.63c85.71,0,155.45,69.74,155.45,155.45"/><path class="cls-1" d="m551.09,427.23c68.29,0,123.85,55.56,123.85,123.85"/><path class="cls-1" d="m551.09,458.81c50.86,0,92.25,41.39,92.25,92.27"/><path class="cls-1" d="m551.09,490.41c33.46,0,60.67,27.21,60.67,60.67"/><path class="cls-1" d="m551.09,522.01c16.05,0,29.07,13.02,29.07,29.07"/><path class="cls-1" d="m551.09,395.63c85.71,0,155.45,69.74,155.45,155.45"/><path class="cls-1" d="m551.09,427.23c68.29,0,123.85,55.56,123.85,123.85"/><path class="cls-1" d="m551.09,458.81c50.86,0,92.25,41.39,92.25,92.27"/><path class="cls-1" d="m551.09,490.41c33.46,0,60.67,27.21,60.67,60.67"/><path class="cls-1" d="m551.09,522.01c16.05,0,29.07,13.02,29.07,29.07"/></g><g><path class="cls-1" d="m706.54,551.08c0,85.71-69.74,155.45-155.45,155.45"/><path class="cls-1" d="m674.94,551.08c0,68.29-55.56,123.85-123.85,123.85"/><path class="cls-1" d="m643.36,551.08c0,50.86-41.39,92.25-92.27,92.25"/><path class="cls-1" d="m611.76,551.08c0,33.46-27.21,60.67-60.67,60.67"/><path class="cls-1" d="m580.16,551.08c0,16.05-13.02,29.07-29.07,29.07"/><path class="cls-1" d="m706.54,551.08c0,85.71-69.74,155.45-155.45,155.45"/><path class="cls-1" d="m674.94,551.08c0,68.29-55.56,123.85-123.85,123.85"/><path class="cls-1" d="m643.36,551.08c0,50.86-41.39,92.25-92.27,92.25"/><path class="cls-1" d="m611.76,551.08c0,33.46-27.21,60.67-60.67,60.67"/><path class="cls-1" d="m580.16,551.08c0,16.05-13.02,29.07-29.07,29.07"/></g><line class="cls-1" x1="551.09" y1="92.62" x2="734.47" y2="92.62"/><line class="cls-1" x1=".93" y1="459.39" x2="184.32" y2="459.39"/><line class="cls-1" x1="367.7" y1="643.33" x2="551.09" y2="643.33"/><line class="cls-1" x1="367.7" y1="276" x2="551.09" y2="276"/><path class="cls-1" d="m155.19,367.7c0,34.55-28.01,62.56-62.56,62.56s-62.56-28.01-62.56-62.56"/><path class="cls-1" d="m396.83,734.46c0-34.55,28.01-62.56,62.56-62.56s62.56,28.01,62.56,62.56"/><path class="cls-1" d="m734.47,396.83c34.55,0,62.56,28.01,62.56,62.56,0,34.55-28.01,62.56-62.56,62.56"/><path class="cls-1" d="m705.34.93c0,34.55-28.01,62.56-62.56,62.56s-62.56-28.01-62.56-62.56"/><path class="cls-1" d="m367.7,338.57c-34.55,0-62.56-28.01-62.56-62.56,0-34.55,28.01-62.56,62.56-62.56"/></g></g></svg>