<?xml version="1.0" encoding="UTF-8"?><svg id="Layer_2" xmlns="http://www.w3.org/2000/svg" viewBox="0 0 928.74 846.23"><defs><style>.cls-1{fill:none;stroke:#69bda4;stroke-miterlimit:10;stroke-width:2.13px;}</style></defs><g id="Grids"><g><line class="cls-1" x1="927.67" y1="1.07" x2="1.07" y2="1.07"/><line class="cls-1" x1="927.67" y1="169.75" x2="1.07" y2="169.75"/><line class="cls-1" x1="927.67" y1="338.43" x2="1.07" y2="338.43"/><line class="cls-1" x1="927.67" y1="507.11" x2="1.07" y2="507.11"/><line class="cls-1" x1="927.67" y1="675.79" x2="1.07" y2="675.79"/><line class="cls-1" x1="927.67" y1="844.47" x2="1.07" y2="844.47"/><line class="cls-1" x1="927.67" y1="1.07" x2="927.67" y2="844.47"/><line class="cls-1" x1="843.92" y1="507.11" x2="843.92" y2="675.79"/><line class="cls-1" x1="760.17" y1="507.11" x2="760.17" y2="844.47"/><line class="cls-1" x1="589.46" y1="507.11" x2="589.46" y2="844.47"/><line class="cls-1" x1="422.49" y1="675.79" x2="422.49" y2="844.47"/><line class="cls-1" x1="507.3" y1="507.11" x2="507.3" y2="675.79"/><line class="cls-1" x1="336.91" y1="338.43" x2="336.91" y2="507.11"/><line class="cls-1" x1="84.66" y1="169.75" x2="84.66" y2="338.43"/><line class="cls-1" x1="168.99" y1="169.75" x2="168.99" y2="338.43"/><line class="cls-1" x1="422.49" y1="169.75" x2="422.49" y2="338.43"/><line class="cls-1" x1="450.32" y1="169.75" x2="450.32" y2="338.43"/><line class="cls-1" x1="478.15" y1="169.75" x2="478.15" y2="338.43"/><line class="cls-1" x1="505.98" y1="1.07" x2="505.98" y2="338.43"/><line class="cls-1" x1="533.8" y1="169.75" x2="533.8" y2="338.43"/><line class="cls-1" x1="561.63" y1="169.75" x2="561.63" y2="338.43"/><line class="cls-1" x1="589.46" y1="169.75" x2="589.46" y2="338.43"/><line class="cls-1" x1="672.94" y1="2.61" x2="672.94" y2="171.29"/><line class="cls-1" x1="1.07" y1="1.07" x2="1.07" y2="844.47"/><line class="cls-1" x1="843.92" y1="637.12" x2="589.46" y2="637.12"/><line class="cls-1" x1="761.1" y1="703.54" x2="589.46" y2="703.54"/><line class="cls-1" x1="761.1" y1="731.42" x2="589.46" y2="731.42"/><line class="cls-1" x1="761.1" y1="759.31" x2="589.46" y2="759.31"/><line class="cls-1" x1="761.1" y1="787.2" x2="589.46" y2="787.2"/><line class="cls-1" x1="761.1" y1="815.08" x2="589.46" y2="815.08"/><line class="cls-1" x1="589.46" y1="591.45" x2="253.9" y2="591.45"/><circle class="cls-1" cx="505.98" cy="85.45" r="83.48"/><circle class="cls-1" cx="801.56" cy="295.83" r="41.74"/><circle class="cls-1" cx="801.99" cy="633.19" r="41.74"/><path class="cls-1" d="M757.48,170.41c92.79,0,168.01,75.22,168.01,168.01s-75.22,168.01-168.01,168.01"/><path class="cls-1" d="M.65,507.77c92.79,0,168.01,75.22,168.01,168.01S93.44,843.8,.65,843.8"/><path class="cls-1" d="M.65,591.78c46.4,0,84.01,37.61,84.01,84.01S47.05,759.79,.65,759.79"/><path class="cls-1" d="M168.66,171.15c45.8,0,82.93,37.13,82.93,82.93s-37.13,82.93-82.93,82.93"/><path class="cls-1" d="M220.5,1.06C174.38,88.7,94.56,151.28,1.07,166.28"/><path class="cls-1" d="M422.49,675.76c-46.56,0-84.31-37.75-84.31-84.31s37.75-84.31,84.31-84.31"/><path class="cls-1" d="M422.29,845.16c0-93.33,75.65-168.98,168.98-168.98s168.98,75.65,168.98,168.98"/><path class="cls-1" d="M589.46,508.17c0,45.38-36.78,82.16-82.16,82.16"/><line class="cls-1" x1="450.32" y1="23.23" x2="251.6" y2="23.23"/><line class="cls-1" x1="251.59" y1="53.55" x2="428.81" y2="53.55"/><line class="cls-1" x1="251.59" y1="83.87" x2="422.51" y2="83.87"/><line class="cls-1" x1="251.59" y1="114.19" x2="427.56" y2="114.19"/><line class="cls-1" x1="251.59" y1="144.51" x2="446.97" y2="144.51"/><circle class="cls-1" cx="566.92" cy="613.99" r="22.54"/><circle class="cls-1" cx="548.38" cy="804.08" r="41.08"/></g></g></svg>