<?xml version="1.0" encoding="UTF-8"?><svg id="Layer_2" xmlns="http://www.w3.org/2000/svg" viewBox="0 0 529.78 922.98"><defs><style>.cls-1,.cls-2{fill:none;}.cls-2{stroke:#69bda4;stroke-miterlimit:10;stroke-width:.75px;}</style></defs><g id="Grids"><g><rect class="cls-1" x="-196.44" y="197.19" width="922.23" height="528.6" transform="translate(726.16 196.81) rotate(90)"/><rect class="cls-2" x="352.76" y=".37" width="176.21" height="176.21" transform="translate(529.35 -352.38) rotate(90)"/><rect class="cls-2" x="352.76" y="383.41" width="176.21" height="176.21" transform="translate(912.39 30.65) rotate(90)"/><rect class="cls-2" x="357.38" y="555.01" width="166.98" height="176.21" transform="translate(1083.99 202.25) rotate(90)"/><rect class="cls-2" x="337.45" y="191.89" width="206.82" height="176.21" transform="translate(720.87 -160.86) rotate(90)"/><rect class="cls-2" x="342.87" y="736.5" width="195.99" height="176.21" transform="translate(1265.48 383.74) rotate(90)"/><rect class="cls-2" x="176.54" y=".37" width="176.21" height="176.21" transform="translate(353.13 -176.17) rotate(90)"/><rect class="cls-2" x="176.54" y="383.41" width="176.21" height="176.21" transform="translate(736.17 206.87) rotate(90)"/><rect class="cls-2" x="181.16" y="555.01" width="166.98" height="176.21" transform="translate(907.77 378.47) rotate(90)"/><rect class="cls-2" x="4.99" y="555.01" width="166.98" height="176.21" transform="translate(731.6 554.64) rotate(90)"/><rect class="cls-2" x="161.24" y="191.89" width="206.82" height="176.21" transform="translate(544.65 15.35) rotate(90)"/><rect class="cls-2" x="166.66" y="736.5" width="195.99" height="176.21" transform="translate(1089.26 559.96) rotate(90)"/><rect class="cls-2" x="-9.51" y="736.5" width="195.99" height="176.21" transform="translate(913.09 736.13) rotate(90)"/><rect class="cls-2" x="176.54" y=".37" width="176.21" height="176.21" transform="translate(353.13 -176.17) rotate(90)"/><rect class="cls-2" x=".38" y=".37" width="176.21" height="176.21" transform="translate(176.96 0) rotate(90)"/><rect class="cls-2" x="28.46" y="148.51" width="120.05" height="176.21" transform="translate(325.1 148.13) rotate(90)"/><rect class="cls-2" x="44.43" y="427.47" width="88.11" height="176.21" transform="translate(604.06 427.09) rotate(90)"/><rect class="cls-2" x="1.04" y="295.98" width="174.88" height="176.21" transform="translate(472.57 295.6) rotate(90)"/><circle class="cls-2" cx="493.42" cy="52.93" r="35.56"/><path class="cls-2" d="M528.97,559.63c-73.29,0-132.7-59.41-132.7-132.7s59.41-132.7,132.7-132.7"/><path class="cls-2" d="M352.67,726.79c0,97.27-78.85,176.12-176.12,176.12S.42,824.05,.42,726.79"/><path class="cls-2" d="M352.76,643.83c45.72,0,82.78,37.06,82.78,82.78s-37.06,82.78-82.78,82.78"/><path class="cls-2" d="M529.41,88.48c0,48.78-39.54,88.32-88.32,88.32s-88.32-39.54-88.32-88.32"/><path class="cls-2" d="M176.54,264.81c0-48.66,39.45-88.11,88.11-88.11s88.11,39.45,88.11,88.11"/><line class="cls-2" x1="528.97" y1="88.48" x2="352.76" y2="88.48"/><g><line class="cls-2" x1="352.76" y1="56.13" x2="176.54" y2="56.13"/><line class="cls-2" x1="352.76" y1="120.83" x2="176.54" y2="120.83"/></g><g><line class="cls-2" x1="352.76" y1="268.17" x2="176.54" y2="268.17"/><line class="cls-2" x1="352.76" y1="296.64" x2="176.54" y2="296.64"/><line class="cls-2" x1="352.76" y1="338.14" x2="176.54" y2="338.14"/></g><line class="cls-2" x1="528.97" y1="469.44" x2="403.13" y2="469.44"/><circle class="cls-2" cx="475.15" cy="437.24" r="53.83"/><circle class="cls-2" cx="299.18" cy="643.12" r="34.52"/><path class="cls-2" d="M.56,296.64c48.29,0,87.44,39.15,87.44,87.44"/><path class="cls-2" d="M.38,296.64c0-97.32,78.89-176.21,176.21-176.21"/><path class="cls-2" d="M176.59,471.52c0,48.66-39.45,88.11-88.11,88.11S.38,520.18,.38,471.52"/><path class="cls-2" d="M272.85,559.63c44.13,0,79.91-35.78,79.91-79.91"/><path class="cls-2" d="M264.65,638.59c0-43.55-35.31-78.86-78.86-78.86"/><line class="cls-2" x1="505.95" y1="383.41" x2="505.95" y2="295.91"/><line class="cls-2" x1="479.87" y1="383.42" x2="479.87" y2="303.62"/><line class="cls-2" x1="453.78" y1="383.42" x2="453.78" y2="317.6"/><line class="cls-2" x1="427.7" y1="383.42" x2="427.7" y2="341.19"/><line class="cls-2" x1="393.58" y1="798.32" x2="393.58" y2="922.6"/><line class="cls-2" x1="434.98" y1="726.61" x2="434.98" y2="922.6"/><line class="cls-2" x1="476.37" y1="726.61" x2="476.37" y2="922.6"/><line class="cls-2" x1="131.77" y1="559.63" x2="131.77" y2="897.22"/><line class="cls-2" x1="131.77" y1="296.64" x2="131.77" y2="471.52"/><line class="cls-2" x1="88.48" y1="296.64" x2="88.48" y2="879.28"/><line class="cls-2" x1="45.2" y1="559.63" x2="45.2" y2="843.92"/><line class="cls-2" x1="264.65" y1="383.41" x2="264.65" y2="726.61"/><line class="cls-2" x1="333.7" y1="643.12" x2="176.54" y2="643.12"/><line class="cls-2" x1="352.76" y1="469.44" x2="264.65" y2="469.44"/><line class="cls-2" x1="308.83" y1="383.41" x2="308.83" y2="469.44"/><line class="cls-2" x1="88.48" y1="384.08" x2=".56" y2="384.08"/><circle class="cls-2" cx="64.59" cy="69.1" r="51.73"/><circle class="cls-2" cx="212.07" cy="455.53" r="35.52"/></g></g></svg>