<?xml version="1.0" encoding="UTF-8"?><svg id="Layer_2" xmlns="http://www.w3.org/2000/svg" viewBox="0 0 99.68 99.68"><defs><style>.cls-1{fill:none;stroke-width:0px;}.cls-2{fill:#fff;fill-rule:evenodd;stroke:#fff;stroke-miterlimit:10;stroke-width:1.02px;}</style></defs><g id="Grids"><path class="cls-2" d="M79.34,25.85v-4.67c0-.58-.47-1.05-1.05-1.05s-1.05.47-1.05,1.05v4.67c0,.58.47,1.05,1.05,1.05s1.05-.47,1.05-1.05Z"/><path class="cls-2" d="M93.97,41.15h-4.67c-.58,0-1.05.47-1.05,1.05s.47,1.05,1.05,1.05h4.67c.58,0,1.05-.47,1.05-1.05s-.47-1.05-1.05-1.05Z"/><path class="cls-2" d="M89.05,31.68l3.3-3.3c.41-.41.41-1.07,0-1.48s-1.07-.41-1.48,0l-3.3,3.3c-.41.41-.41,1.07,0,1.48s1.07.41,1.48,0Z"/><path class="cls-2" d="M22.4,77.12v4.67c0,.58.47,1.05,1.05,1.05s1.05-.47,1.05-1.05v-4.67c0-.58-.47-1.05-1.05-1.05s-1.05.47-1.05,1.05Z"/><path class="cls-2" d="M18.63,24.31c-.07.11-.13.22-.19.34l-4.71,9.43c-.66,1.33-.67,2.89,0,4.22l1.76,3.56v26.18c0,.58.47,1.05,1.05,1.05h9.7c.58,0,1.05-.47,1.05-1.05v-4.85c0-1.01.4-1.97,1.11-2.68.71-.71,1.68-1.11,2.68-1.11h0c2.1,0,3.8,1.7,3.8,3.8v4.85c0,.58.47,1.05,1.05,1.05h12.93s.05,0,.08,0c.03,0,.06,0,.08,0h4.32c-.35,1.36-.5,3.16-.43,4.95.07,1.7.34,3.38.75,4.65h-.94c-.58,0-1.05.47-1.05,1.05v6.88c0,.58.47,1.05,1.05,1.05h28.61c.58,0,1.05-.47,1.05-1.05v-6.88c0-.58-.47-1.05-1.05-1.05h-1.72c.07-.11.13-.22.19-.34l4.71-9.43c.66-1.33.67-2.89,0-4.22l-2.14-4.32v-24.65c0-.28-.11-.54-.31-.74-.2-.2-.46-.31-.74-.31h-8.65v-3.8c0-3.26-2.64-5.9-5.89-5.9h0c-1.56,0-3.06.62-4.17,1.73-1.1,1.1-1.72,2.6-1.72,4.16v3.81h-16.24c.53-1.39.76-3.57.67-5.72-.07-1.7-.34-3.38-.75-4.65h.94c.58,0,1.05-.47,1.05-1.05v-6.88c0-.58-.47-1.05-1.05-1.05h-28.61c-.58,0-1.05.47-1.05,1.05v6.88c0,.58.47,1.05,1.05,1.05h1.72ZM80.29,80.78h-26.51s0,4.79,0,4.78c0,0,26.51,0,26.51,0v-4.79ZM75.86,78.69c.87,0,1.67-.49,2.07-1.28l4.71-9.43c.37-.74.37-1.61,0-2.36l-5.93-11.97c-.47-.94-1.58-1.36-2.55-.96h0c-.85.35-1.32,1.26-1.11,2.15.75,3.21,1.97,8.49,1.97,8.49.13.55-.21,1.11-.75,1.25-1.94.51-3.24,1.24-4.04,2.2-.74.9-.99,1.99-.95,3.21.02.58-.43,1.06-1.01,1.09-.58.02-1.06-.43-1.09-1.01-.01-.34,0-.67.01-.99h-11.71c-.46,1.1-.58,3-.5,4.86.06,1.36.24,2.72.53,3.77.1.37.22.7.35.96h19.98ZM30.16,36.78c-.16.26-.33.52-.53.76-.87,1.06-2.21,1.97-4.14,2.61l1.75,7.53c.44,1.89-.56,3.82-2.35,4.56h0c-1.99.82-4.27-.04-5.22-1.97l-2.07-4.18v20.91h7.6v-3.81c0-1.56.62-3.06,1.72-4.16,1.1-1.1,2.6-1.72,4.16-1.72h0c3.26,0,5.9,2.64,5.9,5.89v3.8h10.83v-11.88c0-.58.47-1.05,1.05-1.05h4.85c1.01,0,1.97-.4,2.69-1.11.71-.71,1.11-1.68,1.11-2.69h0c0-1.01-.4-1.98-1.11-2.69s-1.68-1.11-2.68-1.11h-4.85c-.58,0-1.05-.47-1.05-1.05v-8.65h-17.65ZM80.29,56.15v-19.37h-8.65c-.58,0-1.05-.47-1.05-1.05v-4.85c0-2.1-1.7-3.8-3.8-3.8h0c-1.01,0-1.97.4-2.68,1.11-.71.71-1.11,1.68-1.11,2.68v4.85c0,.58-.47,1.05-1.05,1.05h-12.04v7.6h3.81c1.56,0,3.06.62,4.16,1.72,1.1,1.1,1.72,2.6,1.72,4.16h0c0,1.57-.62,3.07-1.73,4.18-1.11,1.1-2.6,1.73-4.17,1.73h-3.8v10.83h17.8c.23-.54.53-1.06.92-1.53.87-1.06,2.21-1.97,4.14-2.61l-1.75-7.53c-.44-1.89.56-3.82,2.35-4.56h0c1.99-.82,4.27.04,5.22,1.97l1.69,3.42ZM22.38,24.31c-.87,0-1.67.49-2.07,1.28l-4.71,9.43c-.37.74-.37,1.61,0,2.36l5.93,11.97c.47.94,1.58,1.36,2.55.96h0c.85-.35,1.32-1.26,1.11-2.15l-1.97-8.49c-.13-.55.21-1.11.75-1.25,1.94-.51,3.24-1.24,4.04-2.2.74-.9.99-1.99.95-3.21-.02-.58.43-1.06,1.01-1.09.58-.02,1.06.43,1.09,1.01.02.61-.01,1.2-.12,1.76h11.42c.03-.11.08-.22.15-.32.66-.96.83-3.16.74-5.32-.06-1.36-.24-2.72-.53-3.77-.1-.37-.22-.7-.35-.96h-19.98ZM17.96,22.21h26.51s0-4.79,0-4.78c0,0-26.51,0-26.51,0v4.79Z"/><path class="cls-2" d="M4.77,61.82h4.67c.58,0,1.05-.47,1.05-1.05s-.47-1.05-1.05-1.05h-4.67c-.58,0-1.05.47-1.05,1.05s.47,1.05,1.05,1.05Z"/><path class="cls-2" d="M10.66,72.39l-3.3,3.3c-.41.41-.41,1.07,0,1.48s1.07.41,1.48,0l3.3-3.3c.41-.41.41-1.07,0-1.48s-1.07-.41-1.48,0Z"/><rect class="cls-1" x="0" width="99.68" height="99.68"/></g></svg>