<?xml version="1.0" encoding="UTF-8"?><svg id="Layer_2" xmlns="http://www.w3.org/2000/svg" viewBox="0 0 99.68 99.68"><defs><style>.cls-1{fill:none;}.cls-1,.cls-2{stroke-width:0px;}.cls-2{fill:#fff;}</style></defs><g id="Grids"><path class="cls-2" d="M82.83,29.69h-4.99v-4.97c0-3.62-2.94-6.55-6.55-6.56H16.72c-3.62,0-6.55,2.94-6.55,6.56v29.71h0c0,3.62,2.93,6.55,6.55,6.55h4.99v4.99c0,3.62,2.94,6.55,6.55,6.55h31.37v12.95c0,.76.44,1.45,1.13,1.76.25.12.53.17.8.17.47,0,.93-.17,1.28-.48l16.45-14.41h3.56c3.62,0,6.55-2.94,6.55-6.55v-29.72c0-1.74-.7-3.41-1.93-4.64-1.24-1.23-2.91-1.92-4.65-1.91h0ZM21.71,36.25v20.86h-4.99c-1.48,0-2.68-1.2-2.68-2.68v-29.7c0-1.48,1.2-2.68,2.68-2.68h54.57c1.48,0,2.68,1.2,2.68,2.68v4.98H28.26c-3.61,0-6.54,2.93-6.55,6.54h0ZM85.51,65.97c0,1.48-1.2,2.67-2.68,2.68h-4.29c-.47,0-.92.17-1.28.47l-13.76,12.08v-10.65c0-.51-.2-1.01-.57-1.37s-.86-.57-1.37-.57H28.26c-1.47,0-2.66-1.19-2.68-2.65v-29.72c0-1.48,1.21-2.68,2.68-2.68h54.57c1.48,0,2.67,1.2,2.68,2.68v29.72ZM77.85,41.17c0,.51-.2,1.01-.57,1.37s-.86.57-1.37.57h-10.75c-1.07,0-1.93-.86-1.93-1.93s.87-1.93,1.93-1.93h10.75c.51,0,1.01.2,1.37.57s.57.86.57,1.37h0ZM33.33,41.17c0-1.07.86-1.93,1.93-1.93h22.16c1.07,0,1.93.86,1.93,1.93s-.86,1.93-1.93,1.93h-22.16c-1.07,0-1.93-.86-1.93-1.93ZM77.85,50.85c0,.51-.2,1.01-.57,1.37s-.86.57-1.37.57h-40.65c-1.07,0-1.93-.87-1.93-1.93s.86-1.94,1.93-1.94h40.65c.51,0,1.01.21,1.37.57.36.36.57.85.57,1.37h0ZM77.85,60.53h0c0,.51-.2,1-.57,1.36-.36.36-.86.57-1.37.57h-27.59c-1.07,0-1.93-.87-1.93-1.94s.86-1.93,1.93-1.93h27.59c1.04,0,1.9.82,1.93,1.87v.07ZM43.54,60.53h0c0,.51-.2,1-.57,1.36-.36.36-.86.57-1.37.57h-6.34c-1.07,0-1.93-.87-1.93-1.94s.86-1.93,1.93-1.93h6.29c1.05,0,1.9.82,1.94,1.87l.05.07Z"/><rect class="cls-1" x="0" width="99.68" height="99.68"/></g></svg>