<?xml version="1.0" encoding="UTF-8"?><svg id="Layer_2" xmlns="http://www.w3.org/2000/svg" viewBox="0 0 99.68 99.68"><defs><style>.cls-1{fill:none;}.cls-1,.cls-2{stroke-width:0px;}.cls-2{fill:#fff;}</style></defs><g id="Grids"><path class="cls-2" d="M44.05,50.67c.02.9-.7,1.65-1.6,1.67s-1.65-.7-1.67-1.6c-.06-2.78-.69-5.48-1.83-7.95-1.13-2.47-2.76-4.71-4.83-6.58-.67-.61-.73-1.64-.12-2.32.32-.36.77-.54,1.22-.54h9.85c.45,0,.87-.19,1.16-.48.29-.3.48-.71.48-1.16v-1.84c0-.45-.19-.87-.48-1.16-.31-.31-.73-.48-1.16-.48h-13.27c-2.03,0-3.08,1.47-3.63,3.43-.68,2.43-.68,5.65-.68,8.26v6.86c0,4.24,1.88,8.18,4.53,11.26,2.48,2.88,6.58,5.93,10.56,6.34.9.09,1.56.89,1.47,1.79s-.89,1.56-1.79,1.47c-1.04-.11-2.14-.37-3.25-.76v3.11h22.78v-3.98c0-.54.26-1.02.66-1.32,2.94-2.67,4.86-5.96,6.05-9.6,1.23-3.75,1.69-7.9,1.69-12.1v-7.38h-5.12c-.91,0-1.73-.37-2.32-.96-.22-.22-.4-.46-.55-.73-.13.02-.27.03-.41.03h-5.12c-.91,0-1.73-.37-2.32-.96-.17-.17-.33-.37-.46-.58-.16.03-.33.04-.5.04h-3.44c-.16,1.07-.66,2.02-1.39,2.75-.9.9-2.13,1.45-3.48,1.45h-6.07c1.17,1.48,2.15,3.09,2.93,4.79,1.32,2.87,2.05,6.02,2.12,9.25h0ZM36.77,77.62c.91,0,1.64.74,1.64,1.64s-.74,1.64-1.64,1.64h-2.69v4.35h31.95v-11.99h-31.95v4.35h2.69ZM35.72,69.98v-4.65c-2.21-1.29-4.36-3.05-6.18-5.16-3.13-3.63-5.34-8.31-5.34-13.4v-6.86c0-2.8,0-6.25.81-9.14.94-3.34,2.87-5.84,6.78-5.84h4.78v-10.51c0-.91.37-1.73.96-2.32s1.42-.96,2.32-.96h5.12c.91,0,1.73.37,2.32.96.16.16.3.33.43.52.17-.03.35-.04.54-.04h5.12c.91,0,1.73.37,2.32.96.17.17.33.37.46.58.16-.03.33-.04.5-.04h5.12c.91,0,1.73.37,2.32.96.22.22.4.46.55.73.13-.02.27-.03.41-.03h5.12c.91,0,1.73.37,2.32.96s.96,1.42.96,2.32v23.94c0,4.51-.51,8.99-1.86,13.12-1.3,3.97-3.39,7.6-6.55,10.61v3.27h2.59c.91,0,1.64.74,1.64,1.64v15.27c0,.91-.74,1.64-1.64,1.64h-35.23c-.91,0-1.64-.74-1.64-1.64v-15.27c0-.91.74-1.64,1.64-1.64h3.29ZM65.07,19.04v13.27h5.12v-13.27h-5.12ZM56.66,17.37v13.27h5.12v-13.27h-5.12ZM39.85,24.94h5.12v-10.51h-5.12v10.51ZM48.54,26.39c.73.73,1.24,1.69,1.4,2.75h3.44v-13.27h-5.12v10.26l.28.26h0Z"/><rect class="cls-1" width="99.68" height="99.68"/></g></svg>