<?xml version="1.0" encoding="UTF-8"?><svg id="Layer_2" xmlns="http://www.w3.org/2000/svg" viewBox="0 0 99.68 99.68"><defs><style>.cls-1{fill:none;stroke-width:0px;}.cls-2{fill:#fff;stroke:#fff;stroke-miterlimit:10;}</style></defs><g id="Grids"><path class="cls-2" d="M55.5,46.74c-5.58.02-11.16.04-16.74.06l-8.5,4.8c-.27.15-.56.23-.85.23h-4.58v20.46h4.58c.38,0,.73.12,1.01.32l8.38,5.24h18.02c2.22,0,4.24-.88,5.7-2.29,1.44-1.4,2.34-3.34,2.34-5.47v-9.57c0-2.13-.9-4.07-2.34-5.47-1.45-1.42-3.47-2.29-5.7-2.29h-14.79v-3.49h14.79c3.16,0,6.04,1.26,8.12,3.29,2.1,2.04,3.4,4.86,3.4,7.97v9.57c0,3.11-1.3,5.92-3.4,7.97-2.09,2.03-4.96,3.29-8.12,3.29h-5.76v7.24c0,.97-.78,1.75-1.75,1.75h-5.91c-.97,0-1.75-.78-1.75-1.75v-7.24h-3.35c-.31,0-.63-.09-.92-.27l-8.47-5.3h-4.08v1.95c0,.97-.78,1.75-1.75,1.75h-9.04c-.97,0-1.75-.78-1.75-1.75v-31.32c0-.97.78-1.75,1.75-1.75h9.04c.97,0,1.75.78,1.75,1.75v1.94h4.14l8.43-4.76c.27-.16.58-.26.91-.26h3.35V11.74c0-.96.39-1.83,1.03-2.47h.01c.63-.64,1.51-1.03,2.47-1.03h2.4c.96,0,1.83.39,2.47,1.03h.01c.63.64,1.02,1.52,1.02,2.48v2.12c7.66-3.88,13.39-1.2,19.13,1.47,5.48,2.56,10.96,5.12,18.36.18.32-.24.73-.37,1.16-.34.96.07,1.68.9,1.62,1.86-.21,2.92-1.17,5.69-2.74,8.06-1.31,1.97-3.03,3.67-5.08,4.95.47,1.27,1.21,2.41,2.13,3.37,1.22,1.27,2.78,2.2,4.5,2.68.41.1.78.34,1.04.72.54.8.33,1.88-.47,2.42-9.15,6.19-15.59,3.21-22.02.24-5.31-2.45-10.61-4.9-17.62-.59v4.4l4.44-.02v3.48h0ZM21.33,48.15h-5.55v27.83h5.55v-27.83ZM51.06,17.85v17.02c7.64-3.87,13.36-1.22,19.09,1.43,4.79,2.21,9.59,4.44,15.68,1.69-.99-.6-1.9-1.33-2.7-2.16-1.64-1.7-2.84-3.84-3.38-6.24-.18-.8.21-1.58.91-1.93,2.07-1.06,3.79-2.62,5.03-4.49.59-.89,1.07-1.85,1.43-2.86-7.29,3.35-12.84.76-18.39-1.83-5.3-2.48-10.61-4.95-17.65-.63h0ZM45.15,43.3h2.42s0-31.57,0-31.57h-2.42s0,31.58,0,31.58h0ZM45.15,81.35v5.49h2.42v-5.49h-2.42Z"/><rect class="cls-1" width="99.68" height="99.68"/></g></svg>