<?xml version="1.0" encoding="UTF-8"?><svg id="Layer_2" xmlns="http://www.w3.org/2000/svg" viewBox="0 0 99.68 99.68"><defs><style>.cls-1{fill:none;stroke-width:0px;}.cls-2{fill:#fff;stroke:#fff;stroke-miterlimit:10;}</style></defs><g id="Grids"><path class="cls-2" d="M75.99,12.61H29.02c-5.18.22-9.34,4.81-9.34,10.42v7.17c0,1.34,1.08,2.42,2.42,2.42h14.85v17.42c-.64-.04-1.22.06-1.69.33-.69.39-1.09,1.09-1.09,1.92,0,.38,0,.8.01,1.24.04,3.09.11,7.77-1.96,9.88-.64.66-1.46,1.03-2.49,1.14-.58-.98-1.64-1.63-2.86-1.63h-8.37c-1.83,0-3.32,1.49-3.32,3.32v18.66c0,1.83,1.49,3.32,3.32,3.32h8.37c1.38,0,2.57-.85,3.07-2.04.05.03.1.06.15.09,1.74,1.05,3.24,1.96,5.75,1.96h16.2c2.16,0,3.91-1.75,3.91-3.91,0-.8-.24-1.54-.65-2.16,1.04-.5,1.83-1.44,2.11-2.59l18.56.08h.04c1.92,0,3.73-.75,5.11-2.12,1.39-1.39,2.16-3.23,2.16-5.18V19.91c0-4.03-3.27-7.3-7.3-7.3h0ZM21.82,30.2v-7.17c0-4.57,3.39-8.28,7.56-8.28s7.57,3.72,7.57,8.28v7.45h-14.85c-.15,0-.28-.13-.28-.28ZM26.89,86.08h-8.37c-.65,0-1.18-.53-1.18-1.18v-18.66c0-.65.53-1.18,1.18-1.18h8.37c.65,0,1.18.53,1.18,1.18v18.66c0,.65-.53,1.18-1.18,1.18h0ZM49.64,71.16h3.99s.05,0,.08,0c.01,0,.03,0,.04,0,.94,0,1.65.76,1.65,1.77s-.8,1.78-1.78,1.78h-3.99c-.59,0-1.07.48-1.07,1.07s.48,1.07,1.07,1.07h3.99c.98,0,1.78.8,1.78,1.77s-.8,1.77-1.78,1.77h-3.99c-.59,0-1.07.48-1.07,1.07s.48,1.07,1.07,1.07h2.41c.98,0,1.77.8,1.77,1.78s-.8,1.77-1.77,1.77h-16.2c-1.91,0-3.06-.69-4.65-1.65-.32-.19-.65-.39-1-.59v-17.18c1.42-.2,2.62-.78,3.56-1.75,2.69-2.75,2.61-7.96,2.56-11.41,0-.43-.01-.84-.01-1.21,0-.03,0-.05,0-.06.17-.1.86-.12,1.81.36,1.67.85,3.41,2.89,3.29,6.09v.04l.02,5.68c0,.59.48,1.07,1.07,1.07h11.12c.98,0,1.78.8,1.78,1.77s-.8,1.78-1.78,1.78h-3.99c-.59,0-1.07.48-1.07,1.07s.48,1.07,1.07,1.07h0ZM81.15,72.35c0,1.38-.54,2.68-1.53,3.66-.98.97-2.27,1.5-3.63,1.5l-18.64-.08c-.2-.63-.57-1.2-1.04-1.65.76-.71,1.23-1.73,1.23-2.85s-.46-2.16-1.19-2.87c.74-.71,1.19-1.71,1.19-2.81,0-2.16-1.76-3.91-3.92-3.91h-10.05l-.02-4.6c.12-3.28-1.36-6.18-3.96-7.77-.17-.1-.34-.2-.51-.28v-27.65c0-3.37-1.5-6.38-3.83-8.28h40.72c2.85,0,5.16,2.32,5.16,5.16,0,0,0,52.43,0,52.43ZM60.12,40.51c5.94,0,10.78-4.84,10.78-10.78s-4.84-10.78-10.78-10.78-10.78,4.84-10.78,10.78,4.84,10.78,10.78,10.78ZM60.12,21.08c4.76,0,8.64,3.88,8.64,8.64s-3.88,8.64-8.64,8.64-8.64-3.88-8.64-8.64,3.88-8.64,8.64-8.64ZM55.24,30.59c-.42-.42-.42-1.09,0-1.51s1.09-.42,1.51,0l2.25,2.25,4.4-5.48c.37-.46,1.04-.53,1.5-.16.46.37.53,1.04.16,1.5l-5.15,6.4c-.19.24-.47.38-.78.4-.02,0-.04,0-.06,0-.28,0-.55-.11-.76-.31l-3.09-3.09h0ZM45.22,46.13c0-.59.48-1.07,1.07-1.07h16.08c.59,0,1.07.48,1.07,1.07s-.48,1.07-1.07,1.07h-16.08c-.59,0-1.07-.48-1.07-1.07ZM75.03,46.13c0,.59-.48,1.07-1.07,1.07h-5.63c-.59,0-1.07-.48-1.07-1.07s.48-1.07,1.07-1.07h5.63c.59,0,1.07.48,1.07,1.07ZM75.03,52.83c0,.59-.48,1.07-1.07,1.07h-16.08c-.59,0-1.07-.48-1.07-1.07s.48-1.07,1.07-1.07h16.08c.59,0,1.07.48,1.07,1.07ZM45.22,52.83c0-.59.48-1.07,1.07-1.07h5.63c.59,0,1.07.48,1.07,1.07s-.48,1.07-1.07,1.07h-5.63c-.59,0-1.07-.48-1.07-1.07ZM63.43,59.52c0,.59-.48,1.07-1.07,1.07h-16.08c-.59,0-1.07-.48-1.07-1.07s.48-1.07,1.07-1.07h16.08c.59,0,1.07.48,1.07,1.07ZM75.03,59.52c0,.59-.48,1.07-1.07,1.07h-5.63c-.59,0-1.07-.48-1.07-1.07s.48-1.07,1.07-1.07h5.63c.59,0,1.07.48,1.07,1.07Z"/><rect class="cls-1" width="99.68" height="99.68"/></g></svg>