<?xml version="1.0" encoding="UTF-8"?><svg id="Layer_2" xmlns="http://www.w3.org/2000/svg" viewBox="0 0 99.68 99.68"><defs><style>.cls-1{fill:none;}.cls-1,.cls-2{stroke-width:0px;}.cls-2{fill:#fff;}</style></defs><g id="Grids"><path class="cls-2" d="M84.15,37.3h-3.22c-.92,0-1.67.75-1.67,1.67s.75,1.67,1.67,1.67h3.22c.92,0,1.67-.75,1.67-1.67s-.75-1.67-1.67-1.67Z"/><path class="cls-2" d="M79.14,32.11c.44,0,.87-.18,1.18-.49l1.79-1.79c.65-.66.65-1.71,0-2.36-.66-.66-1.71-.66-2.37,0l-1.79,1.79c-.48.48-.62,1.2-.36,1.82.26.62.87,1.03,1.55,1.03h0Z"/><path class="cls-2" d="M77.95,48.69l1.79,1.79h0c.66.65,1.71.65,2.37,0,.65-.65.65-1.71,0-2.36l-1.79-1.79c-.66-.65-1.71-.64-2.36,0s-.65,1.7,0,2.36h0Z"/><path class="cls-2" d="M15.59,38.97c0,.44.18.87.49,1.18s.74.49,1.18.49h3.22c.92,0,1.67-.75,1.67-1.67s-.75-1.67-1.67-1.67h-3.22c-.44,0-.87.18-1.18.49-.31.31-.49.74-.49,1.18h0Z"/><path class="cls-2" d="M21.67,27.46c-.66-.66-1.71-.66-2.37,0-.65.65-.65,1.71,0,2.36l1.79,1.79c.66.65,1.71.64,2.36,0,.65-.65.65-1.7,0-2.35l-1.79-1.79Z"/><path class="cls-2" d="M21.67,50.48l1.79-1.79c.65-.66.64-1.71,0-2.36s-1.7-.66-2.36,0l-1.79,1.79c-.31.31-.49.74-.49,1.18,0,.45.18.87.49,1.19.31.32.74.49,1.19.49.45,0,.87-.18,1.19-.5h0Z"/><path class="cls-2" d="M59.07,37.3h-1.65c-2.31,0-4.17,1.87-4.18,4.18v.84h-5.07c0-.23,0-.5,0-.84h0c0-2.31-1.88-4.17-4.18-4.18h-1.65c-2.31,0-4.18,1.87-4.18,4.18s1.87,4.18,4.18,4.18h2.5c0,1.37,0,3.48,0,6.69,0,.92.75,1.67,1.67,1.67h0,0c.92,0,1.67-.75,1.67-1.67,0-2.97,0-5.12-.04-6.69h5.07c0,1.34,0,3.92-.02,11.7h0c0,.92.75,1.67,1.67,1.67.92,0,1.67-.75,1.67-1.67,0-7.8.01-10.38.02-11.71h2.49c2.31,0,4.18-1.87,4.18-4.18s-1.87-4.18-4.18-4.18h0ZM42.35,42.31c-.46,0-.83-.37-.83-.83s.37-.84.83-.84h1.65c.46,0,.84.38.84.84,0,.3,0,.57,0,.83h-2.49ZM59.07,42.31h-2.48v-.83c0-.46.38-.84.84-.84h1.65c.46,0,.83.37.83.84s-.37.83-.83.83h0Z"/><path class="cls-2" d="M66.85,21.71c-4.38-3.91-10.03-6.1-15.9-6.15-5.87-.06-11.56,2.01-16.02,5.83-4.46,3.82-7.38,9.12-8.22,14.93-.63,4.26-.11,8.61,1.5,12.6,1.62,3.99,4.28,7.47,7.69,10.09.39.32.6.8.59,1.31v2.19c-1.47.38-2.51,1.71-2.51,3.23v1.67c0,1.85,1.5,3.34,3.34,3.35v5.02c0,2.77,2.25,5.01,5.02,5.02h.37l.14.55h0c.9,3.61,4.14,6.13,7.85,6.13s6.95-2.53,7.85-6.13l.14-.55h.37c2.77,0,5.01-2.25,5.02-5.02v-5.02c1.84,0,3.34-1.5,3.34-3.35v-1.67c0-1.52-1.03-2.85-2.51-3.23v-2.14c-.01-.53.21-1.03.62-1.37,5.7-4.41,9.15-11.12,9.4-18.33.25-7.2-2.72-14.15-8.1-18.94h0ZM50.71,84.12c-2.08,0-3.93-1.35-4.54-3.35h9.08c-.61,1.99-2.46,3.35-4.54,3.35h0ZM64.09,67.4h-5.02c-.92,0-1.67.75-1.67,1.67s.75,1.67,1.67,1.67h1.67v5.02c0,.92-.75,1.67-1.67,1.67h-16.72c-.92,0-1.67-.75-1.67-1.67v-5.02h8.24c.92,0,1.67-.75,1.67-1.67s-.75-1.67-1.67-1.67h-11.59v-1.67h26.76v1.67ZM63.49,56.35h0c-1.22.97-1.93,2.45-1.91,4.01v2.03h-21.74v-2.07c0-1.54-.69-3-1.89-3.95-2.95-2.26-5.24-5.26-6.63-8.71-1.4-3.44-1.84-7.2-1.3-10.87.68-4.54,2.83-8.74,6.13-11.94,3.29-3.2,7.54-5.24,12.1-5.8,6.1-.72,12.2,1.27,16.7,5.45,4.5,4.18,6.93,10.13,6.65,16.26s-3.24,11.83-8.1,15.59h0Z"/><path class="cls-2" d="M56.56,69.07c0,2.23-3.35,2.23-3.35,0s3.35-2.23,3.35,0"/><path class="cls-2" d="M48.2,57.36c0,2.23-3.35,2.23-3.35,0s3.35-2.23,3.35,0"/><rect class="cls-1" x="0" width="99.68" height="99.68"/></g></svg>